<?xml version="1.0" standalone="no"?>
<!DOCTYPE svg PUBLIC "-//W3C//DTD SVG 1.1//EN" "http://www.w3.org/Graphics/SVG/1.1/DTD/svg11.dtd" >
<svg>
<metadata>
Created by FontForge 20110222 at Sat Jun 14 05:49:21 2014
 By Orthosie Webhosting
Copyright 1990-1993 Bitstream Inc.  All rights reserved.
</metadata>
<defs>
<font id="Modern20BT-RomanB" horiz-adv-x="1024" >
  <font-face 
    font-family="Modern20 BT"
    font-weight="400"
    font-stretch="normal"
    units-per-em="2048"
    panose-1="2 7 7 4 7 5 5 2 3 4"
    ascent="1638"
    descent="-410"
    x-height="917"
    cap-height="1374"
    bbox="-342 -483 2300 1942"
    underline-thickness="117"
    underline-position="-141"
    unicode-range="U+0020-F002"
  />
<missing-glyph horiz-adv-x="1229" 
d="M102 -362v1806h1024v-1806h-1024zM217 -248h795v1577h-795v-1577z" />
    <glyph glyph-name=".notdef" horiz-adv-x="1229" 
d="M102 -362v1806h1024v-1806h-1024zM217 -248h795v1577h-795v-1577z" />
    <glyph glyph-name=".null" horiz-adv-x="0" 
 />
    <glyph glyph-name="nonmarkingreturn" horiz-adv-x="516" 
 />
    <glyph glyph-name="space" unicode=" " horiz-adv-x="516" 
 />
    <glyph glyph-name="exclam" unicode="!" horiz-adv-x="508" 
d="M268 340h-28v22q0 219 -48.5 471.5t-48.5 296.5q0 99 37.5 180t75.5 81q41 0 76 -78.5t35 -171.5q0 -31 -48 -293.5t-51 -507.5zM141 113q0 49 35 87t82 38q48 0 81.5 -37t33.5 -90q0 -51 -35.5 -88t-81.5 -37q-45 0 -80 38t-35 89z" />
    <glyph glyph-name="quotedbl" unicode="&#x22;" horiz-adv-x="694" 
d="M496 856l-74 458q-1 8 -1.5 16.5t-0.5 23.5q0 51 25.5 79.5t70.5 28.5t70.5 -28t25.5 -78q0 -13 -3 -36q-1 -4 -1 -5l-73 -459h-39zM160 856l-74 459q-1 7 -1.5 15.5t-0.5 23.5q0 52 24.5 80t69.5 28q47 0 71.5 -27.5t24.5 -80.5q0 -16 -0.5 -24.5t-1.5 -15.5l-73 -458
h-39z" />
    <glyph glyph-name="numbersign" unicode="#" horiz-adv-x="1575" 
d="M977 858h-275l-94 -264h275zM920 1460l-156 -436h268l156 436h182l-156 -436h291l-59 -166h-291l-92 -262h307l-59 -168h-307l-154 -434h-184l155 434h-268l-154 -434h-184l156 434h-301l59 168h301l92 262h-319l61 166h318l155 436h183z" />
    <glyph glyph-name="dollar" unicode="$" horiz-adv-x="1034" 
d="M379 1327q-103 -14 -162 -79t-59 -165q0 -94 56.5 -155t164.5 -84v483zM412 838q49 -11 145 -27v522q-19 1 -37 1.5t-37 0.5q-10 0 -45 -2q-16 -1 -26 -2v-493zM557 -4v589q-17 3 -68.5 13t-76.5 14v-618q9 -1 25 -2q32 -2 42 -2q9 0 27.5 1.5t50.5 4.5zM590 0
q117 18 189.5 101.5t72.5 199.5q0 107 -68 179t-194 100v-580zM412 -41v-172h-33v176q-143 17 -236.5 102t-93.5 191q0 61 31 98t82 37q36 0 60 -26t24 -66q0 -39 -24 -72.5t-75 -66.5q27 -67 85 -107.5t147 -54.5v620q-163 37 -247.5 131.5t-84.5 241.5q0 148 88 245.5
t244 123.5v86h33v-82q15 1 40 2.5t31 1.5q7 0 31.5 -1.5t42.5 -2.5v82h33v-84q138 -24 218.5 -93.5t80.5 -162.5q0 -55 -27 -90t-67 -35q-34 0 -57 25.5t-23 62.5q0 43 27 73t73 36q-24 62 -79.5 99.5t-145.5 51.5v-522q177 -32 277 -144.5t100 -279.5q0 -162 -101 -274
t-276 -144v-178h-33v174q-19 -2 -37 -3t-35 -1q-29 0 -44 0.5t-29 1.5z" />
    <glyph glyph-name="percent" unicode="%" horiz-adv-x="1640" 
d="M1151 371q0 -218 25.5 -293.5t93.5 -75.5q61 0 84.5 63.5t23.5 266.5q0 231 -25 306t-89 75q-66 0 -89.5 -56t-23.5 -286zM1272 739q126 0 211.5 -109.5t85.5 -275.5q0 -162 -88.5 -272.5t-212.5 -110.5q-133 0 -220 111.5t-87 282.5q0 166 86.5 270t224.5 104zM477 -57
h-63l716 1403h72zM260 977q0 -215 26.5 -292t94.5 -77q61 0 84.5 64.5t23.5 267.5q0 231 -25 306t-89 75q-67 0 -91 -58.5t-24 -285.5zM383 1346q126 0 211.5 -110t85.5 -275q0 -166 -88.5 -274.5t-218.5 -108.5q-128 0 -215.5 112.5t-87.5 280.5q0 166 87.5 270.5
t225.5 104.5z" />
    <glyph glyph-name="ampersand" unicode="&#x26;" horiz-adv-x="1630" 
d="M754 940q98 29 147 87t49 144q0 82 -42.5 135.5t-106.5 53.5t-106 -38.5t-42 -96.5q0 -41 26.5 -116t74.5 -169zM877 176q-108 177 -185 328.5t-139 304.5q-116 -56 -166.5 -126.5t-50.5 -176.5q0 -72 26 -158t70 -162q46 -77 102.5 -117t120.5 -40q57 0 107 32.5
t115 114.5zM899 147q-85 -107 -176.5 -156.5t-202.5 -49.5q-172 0 -277.5 101.5t-105.5 268.5q0 171 97.5 300t302.5 229q-19 49 -28 96t-9 92q0 150 92 257.5t215 107.5q94 0 161.5 -64t67.5 -151q0 -80 -71 -151t-197 -114q61 -132 126 -259.5t134 -250.5q76 111 122 207
t46 140q0 56 -46 81t-167 31v33q25 -1 68 -2q106 -2 141 -2q54 0 125 2.5t176 7.5v-32q-85 -5 -140 -31t-85 -76q-1 -1 -71.5 -138.5t-149.5 -250.5l36 -64q59 -103 117 -156t113 -53q77 0 117 72t40 209q0 26 -0.5 40.5t-1.5 26.5h35q1 -12 1.5 -26.5t0.5 -42.5
q0 -194 -85 -308t-226 -114q-81 0 -152.5 46t-142.5 144z" />
    <glyph glyph-name="quotesingle" unicode="'" horiz-adv-x="358" 
d="M160 856l-74 459q-1 7 -1.5 15.5t-0.5 23.5q0 52 24.5 80t69.5 28q47 0 71.5 -27.5t24.5 -80.5q0 -16 -0.5 -24.5t-1.5 -15.5l-73 -458h-39z" />
    <glyph glyph-name="parenleft" unicode="(" horiz-adv-x="844" 
d="M698 -399q-215 213 -319.5 440t-104.5 483t104.5 483t319.5 441l25 -27q-141 -141 -202.5 -344.5t-61.5 -552.5q0 -348 61.5 -552t202.5 -345z" />
    <glyph glyph-name="parenright" unicode=")" horiz-adv-x="844" 
d="M145 1448q215 -214 319.5 -441.5t104.5 -482.5q0 -256 -104 -483t-320 -440l-24 26q141 141 202.5 345t61.5 552q0 346 -61.5 550.5t-202.5 346.5z" />
    <glyph glyph-name="asterisk" unicode="*" horiz-adv-x="1110" 
d="M526 987q-69 36 -153.5 55t-89.5 21q-38 15 -61 44.5t-23 61.5q0 26 21.5 42t55.5 16q57 0 133 -88t131 -127q-4 71 -34.5 162.5t-30.5 119.5q0 46 25 79.5t55 33.5t54 -33.5t24 -79.5q0 -28 -31 -119.5t-34 -162.5q57 39 132.5 127t133.5 88q35 0 55 -15.5t20 -42.5
q0 -84 -162 -126q-107 -28 -165 -56q57 -27 163 -54q164 -42 164 -126q0 -27 -20 -42t-55 -15q-57 0 -133 88.5t-133 127.5q3 -70 34 -163t31 -121q0 -47 -23.5 -80t-54.5 -33q-30 0 -55 33.5t-25 79.5q0 29 31.5 123t33.5 161q-58 -39 -132.5 -127.5t-131.5 -88.5
q-35 0 -55 15t-20 42q0 85 162 127q106 27 163 53z" />
    <glyph glyph-name="plus" unicode="+" horiz-adv-x="1706" 
d="M938 1221v-527h514v-166h-514v-528h-170v528h-514v166h514v527h170z" />
    <glyph glyph-name="comma" unicode="," horiz-adv-x="516" 
d="M100 -330q89 66 134 155t44 201q-15 -10 -29 -15t-30 -5q-47 0 -76.5 31.5t-29.5 81.5q0 56 31 87.5t85 31.5q58 0 94.5 -48t36.5 -124q0 -110 -64.5 -220t-178.5 -194z" />
    <glyph glyph-name="hyphen" unicode="-" horiz-adv-x="627" 
d="M72 395v158h483v-158h-483z" />
    <glyph glyph-name="period" unicode="." horiz-adv-x="516" 
d="M125 111q0 51 34.5 89t82.5 38q47 0 80.5 -37.5t33.5 -89.5t-34 -88.5t-80 -36.5q-45 0 -81 37.5t-36 87.5z" />
    <glyph glyph-name="slash" unicode="/" horiz-adv-x="729" 
d="M45 -190h-74l633 1564h80z" />
    <glyph glyph-name="zero" unicode="0" horiz-adv-x="1034" 
d="M332 702q0 -447 39 -572.5t147 -125.5q107 0 144.5 99t37.5 511q0 430 -40.5 567.5t-145.5 137.5t-143.5 -101.5t-38.5 -515.5zM528 1348q181 0 302.5 -196t121.5 -501q0 -300 -123.5 -490t-304.5 -190q-192 0 -318 197.5t-126 505.5q0 302 125 488t323 186z" />
    <glyph glyph-name="one" unicode="1" horiz-adv-x="1034" 
d="M113 -2v33q62 5 149 9q143 6 144 73v1011q-1 100 -188 102q-70 2 -113 3l-1 33q27 0 80.5 -1t79.5 -1q134 0 214 20t134 66h27q-1 -89 -3.5 -263.5t-2.5 -251.5q0 -339 5 -544t13 -221q13 -24 176 -26q65 0 105 -1l-1 -33q-71 1 -144.5 1.5t-186.5 0.5q-99 0 -218 -2.5
t-269 -7.5z" />
    <glyph glyph-name="two" unicode="2" horiz-adv-x="1034" 
d="M135 -28h-41q12 166 71 291t148 175q16 9 48 26q167 90 221 169q36 53 52.5 131.5t16.5 193.5q0 183 -58 271t-179 88q-127 0 -202 -92.5t-75 -251.5v-23l4 -2q16 28 34 39.5t46 11.5q45 0 68.5 -36t23.5 -105q0 -66 -28 -105.5t-74 -39.5q-57 0 -93 60t-36 159
q0 191 99.5 303.5t271.5 112.5q186 0 305 -130.5t119 -332.5q0 -183 -86 -281.5t-291 -142.5q-172 -37 -232 -89.5t-96 -155.5q26 8 46 11.5t38 3.5q76 0 218 -33.5t204 -33.5q88 0 127 53t39 174v43h26q1 -12 2 -34q2 -64 2 -85q0 -166 -63 -262t-170 -96q-94 0 -191 109
q-14 15 -22 24q-46 50 -82 70t-76 20q-64 0 -97 -51t-38 -157z" />
    <glyph glyph-name="three" unicode="3" horiz-adv-x="1034" 
d="M142 225q1 -102 76.5 -161.5t205.5 -59.5q137 0 203.5 85t66.5 259q0 169 -55.5 264t-155.5 95q-36 0 -91 -17.5t-81 -17.5q-34 0 -54.5 8.5t-20.5 21.5q0 14 31 28.5t65 14.5q18 0 56.5 -8t57.5 -8q114 0 171 74t57 223q0 145 -54.5 219t-160.5 74q-104 0 -173 -48
t-89 -134q17 7 32 10.5t27 3.5q39 0 62.5 -27t23.5 -71q0 -50 -31 -81.5t-80 -31.5t-78.5 33.5t-29.5 89.5q0 123 103.5 204t269.5 81q180 0 292.5 -91t112.5 -233q0 -116 -83.5 -188.5t-256.5 -106.5v-10q175 -8 269 -92t94 -232q0 -177 -138 -300.5t-335 -123.5
q-177 0 -286.5 89.5t-109.5 228.5q0 76 39.5 122t104.5 46q51 0 83.5 -34.5t32.5 -90.5q0 -49 -32.5 -83t-81.5 -34q-11 0 -25 2.5t-34 7.5z" />
    <glyph glyph-name="four" unicode="4" horiz-adv-x="1034" 
d="M510 418v616h-10l-369 -616h379zM229 -2v33q33 2 88 5q185 10 185 75v235h-451l615 1036h51q-3 -178 -3.5 -278.5t-0.5 -190.5q0 -57 1.5 -181.5t4.5 -313.5h237v-72h-237l4 -191q1 -85 20 -98t203 -18v-33q-72 2 -140.5 3t-150.5 1q-88 0 -194.5 -3t-231.5 -9z" />
    <glyph glyph-name="five" unicode="5" horiz-adv-x="1034" 
d="M182 584l146 774q98 -48 181 -71t155 -23q65 0 117.5 24t107.5 78l20 -12q-82 -144 -160 -204t-180 -60q-61 0 -120 20t-117 61l-82 -434q54 52 120 75.5t160 23.5q175 0 286.5 -111.5t111.5 -286.5q0 -202 -150 -344.5t-360 -142.5q-151 0 -247.5 89t-96.5 224
q0 78 40 127t103 49q50 0 82.5 -32t32.5 -82q0 -55 -36.5 -90t-92.5 -35q-11 0 -33 4q-12 3 -18 4q9 -108 75 -170t170 -62q142 0 215.5 126.5t73.5 369.5q0 163 -57 247.5t-166 84.5q-90 0 -154.5 -57t-99.5 -166z" />
    <glyph glyph-name="six" unicode="6" horiz-adv-x="1034" 
d="M346 662q34 82 91.5 120.5t144.5 38.5q169 0 277 -114t108 -293q0 -201 -125.5 -331t-313.5 -130q-201 0 -313.5 160t-112.5 450q0 345 145 573t357 228q125 0 209 -72.5t84 -179.5q0 -64 -33.5 -102.5t-89.5 -38.5q-53 0 -85 31.5t-32 84.5q0 51 29 80t80 29h18h17
q-17 66 -67.5 103.5t-121.5 37.5q-136 0 -192 -127.5t-74 -547.5zM535 -18q106 0 156 107t50 333q0 193 -45 279.5t-145 86.5q-110 0 -160.5 -103t-50.5 -333q0 -197 45.5 -283.5t149.5 -86.5z" />
    <glyph glyph-name="seven" unicode="7" horiz-adv-x="1034" 
d="M150 830q9 64 13.5 129t4.5 135q0 61 -9.5 128.5t-27.5 139.5l25 6q9 -35 16 -62.5t12 -51.5l4 1q30 49 62 70t78 21q82 0 191 -115q31 -32 48 -49q35 -35 69 -51.5t71 -16.5q57 0 101 37.5t66 105.5q9 27 15 63q9 46 29 46q12 0 18 -7t6 -22q0 -80 -126.5 -338
t-170.5 -442q-32 -135 -42.5 -294t-12.5 -173q-11 -68 -40.5 -103.5t-76.5 -35.5q-61 0 -95 54t-34 151q0 110 48 227.5t175 302.5q28 40 79 113q164 235 198 325q-57 -34 -113.5 -50.5t-118.5 -16.5q-96 0 -197.5 32.5t-117.5 32.5q-47 0 -70 -45t-51 -248z" />
    <glyph glyph-name="eight" unicode="8" horiz-adv-x="1034" 
d="M733 764q34 56 52 121t18 135q0 138 -76.5 220.5t-204.5 82.5q-124 0 -199 -62t-75 -163q0 -78 43 -136.5t127 -95.5q33 -14 140.5 -42.5t174.5 -59.5zM328 684q-63 -61 -92 -145t-29 -203q0 -160 80.5 -247t228.5 -87q137 0 217 76.5t80 208.5q0 144 -102.5 231.5
t-382.5 165.5zM301 694q-88 46 -132 116.5t-44 164.5q0 164 111 272.5t282 108.5q159 0 269 -100.5t110 -235.5q0 -56 -33 -121t-104 -149q89 -49 135.5 -134t46.5 -200q0 -203 -116.5 -328t-305.5 -125q-183 0 -306.5 112t-123.5 267q0 86 50.5 170.5t160.5 181.5z" />
    <glyph glyph-name="nine" unicode="9" horiz-adv-x="1034" 
d="M295 936q0 -200 46 -296.5t142 -96.5q103 0 159 96t56 274q0 217 -48.5 315.5t-153.5 98.5q-102 0 -151.5 -96t-49.5 -295zM244 135q17 -71 67.5 -107t132.5 -36q133 0 185.5 106t52.5 430v105q-50 -64 -110.5 -95.5t-133.5 -31.5q-154 0 -260 116t-106 291
q0 194 121 318.5t309 124.5q205 0 315.5 -165.5t110.5 -475.5q0 -315 -143 -532.5t-351 -217.5q-123 0 -205 68t-82 170q0 66 37 106.5t97 40.5q43 0 73.5 -31.5t30.5 -76.5q0 -52 -30 -81.5t-83 -29.5l-9.5 1.5t-18.5 2.5z" />
    <glyph glyph-name="colon" unicode=":" horiz-adv-x="555" 
d="M145 795q0 51 34 88t81 37q48 0 82.5 -37t34.5 -88t-35.5 -88t-81.5 -37q-45 0 -80 37t-35 88zM145 111q0 51 34 89t81 38q48 0 82.5 -37.5t34.5 -89.5t-35 -88.5t-82 -36.5q-45 0 -80 37t-35 88z" />
    <glyph glyph-name="semicolon" unicode=";" horiz-adv-x="555" 
d="M145 803q0 51 34 89t81 38q48 0 82.5 -37.5t34.5 -89.5q0 -51 -35.5 -88t-81.5 -37q-45 0 -80 37.5t-35 87.5zM123 -330q89 66 133.5 155t44.5 201q-15 -10 -29.5 -15t-29.5 -5q-47 0 -77 31.5t-30 81.5q0 56 31 87.5t86 31.5q58 0 94.5 -48t36.5 -124q0 -111 -64 -221
t-178 -193z" />
    <glyph glyph-name="less" unicode="&#x3c;" horiz-adv-x="1706" 
d="M1442 991l-934 -381l934 -381v-182l-1178 483v160l1178 486v-185z" />
    <glyph glyph-name="equal" unicode="=" horiz-adv-x="1706" 
d="M1452 487v-165h-1198v165h1198zM1452 901v-168h-1198v168h1198z" />
    <glyph glyph-name="greater" unicode="&#x3e;" horiz-adv-x="1706" 
d="M1442 690v-160l-1178 -483v182l934 381l-934 381v185z" />
    <glyph glyph-name="question" unicode="?" horiz-adv-x="930" 
d="M313 326v10q0 126 28.5 202t129.5 156q73 60 100 134.5t27 226.5q0 160 -42 232.5t-134 72.5q-91 0 -153 -65.5t-64 -165.5q15 8 28.5 12t26.5 4q47 0 74.5 -36t27.5 -95q0 -51 -28.5 -83t-73.5 -32q-53 0 -85 47t-32 127q0 139 86 228.5t222 89.5q145 0 240 -116.5
t95 -295.5q0 -124 -45 -198t-161 -128q-20 -9 -58 -25q-180 -77 -180 -280v-22h-29zM219 113q0 49 35 87t82 38q48 0 80.5 -37t32.5 -90q0 -51 -34.5 -88t-80.5 -37q-45 0 -80 38t-35 89z" />
    <glyph glyph-name="at" unicode="@" horiz-adv-x="2019" 
d="M1305 823l51 170h172l-172 -616l-2 -6q-15 -59 -15 -90q0 -49 22 -76t60 -27q34 0 84 22t92 56q110 88 169 222t59 296q0 279 -191 450t-504 171q-173 0 -328.5 -65t-273.5 -185q-122 -125 -183.5 -286t-61.5 -357q0 -172 59.5 -306.5t179.5 -234.5q106 -88 247 -135
t302 -47q166 0 321 51.5t304 157.5l37 -47q-148 -111 -315 -167.5t-347 -56.5q-188 0 -347 46.5t-275 134.5q-151 113 -230.5 277t-79.5 362q0 203 86 381t250 313q135 111 297.5 168t345.5 57q348 0 557 -188.5t209 -501.5q0 -159 -59 -297.5t-168 -237.5q-62 -54 -129 -82
t-133 -28q-98 0 -152.5 52.5t-60.5 152.5q-64 -105 -137.5 -154t-165.5 -49q-134 0 -212.5 92t-78.5 248q0 112 49 219t141 195q68 65 147.5 99t161.5 34q90 0 145.5 -47.5t72.5 -139.5zM1249 772q0 83 -37.5 132.5t-99.5 49.5q-64 0 -117 -45t-106 -147
q-57 -107 -87 -209.5t-30 -185.5t36.5 -133t94.5 -50q62 0 115.5 41.5t107.5 132.5q56 96 89.5 210t33.5 204z" />
    <glyph glyph-name="A" unicode="A" horiz-adv-x="1481" 
d="M436 522h363l-183 525zM33 0v39q109 3 174 67.5t127 243.5l368 1057h48q147 -441 279 -811t188 -504q17 -41 139 -48q53 -2 87 -5v-39q-129 3 -223 4.5t-151 1.5q-69 0 -167.5 -1.5t-229.5 -4.5v39q118 4 179 8.5t107 9.5l-141 412h-395l-49 -139q-15 -43 -23 -79.5
t-8 -64.5q0 -77 48 -109.5t171 -37.5v-39q-87 3 -156 4.5t-116 1.5q-39 0 -103.5 -1.5t-152.5 -4.5z" />
    <glyph glyph-name="B" unicode="B" horiz-adv-x="1503" 
d="M45 37l16 1q222 14 234 46q9 26 12.5 199t3.5 542q0 207 -4 328.5t-12 144.5q-6 19 -49 28t-201 15v39q122 -6 210 -9t144 -3q76 0 211 6t195 6q254 0 397.5 -93.5t143.5 -256.5q0 -131 -118 -210.5t-335 -92.5v-6q241 -12 372.5 -101.5t131.5 -240.5q0 -174 -166 -279.5
t-449 -105.5q-86 0 -226 5t-196 5q-86 0 -161 -1t-154 -3v37zM563 707q0 -298 4.5 -456.5t14.5 -180.5q9 -21 50 -30t132 -9q193 0 283 79.5t90 249.5q0 191 -94 269t-353 78h-127zM563 744q23 -2 47.5 -2.5t69.5 -0.5q236 0 323 63t87 222q0 160 -80 235.5t-248 75.5
q-101 0 -138 -7t-44 -25q-7 -15 -11 -261q-3 -181 -6 -300z" />
    <glyph glyph-name="C" unicode="C" horiz-adv-x="1309" 
d="M1227 575q0 -288 -137 -448t-383 -160q-282 0 -451.5 189.5t-169.5 505.5q0 327 175.5 537t445.5 210q98 0 174 -36.5t149 -119.5h19q29 42 53 85t41 87h31v-649h-37q-32 294 -139 445t-283 151q-179 0 -271 -173t-92 -509q0 -345 95.5 -513.5t291.5 -168.5
q205 0 328 151t123 404v12h37z" />
    <glyph glyph-name="D" unicode="D" horiz-adv-x="1556" 
d="M567 51q59 -7 100.5 -10.5t75.5 -3.5q243 0 347 134t104 450q0 383 -107.5 552.5t-347.5 169.5q-43 0 -86 -3t-86 -9q-1 -91 -4.5 -180.5l-3.5 -89.5v-496q0 -132 2 -260t6 -254zM15 31q43 5 115 12q158 15 167 41q6 17 8 89t2 345v303q0 296 -2 375t-8 96q-9 26 -173 41
q-69 6 -110 10v39q41 -1 114 -3q185 -5 247 -5q102 0 233 4t160 4q314 0 505 -197t191 -517q0 -142 -62.5 -274t-178.5 -236q-96 -85 -208.5 -121.5t-289.5 -36.5q-59 0 -160.5 3t-144.5 3q-75 0 -169 -3t-237 -11z" />
    <glyph glyph-name="E" unicode="E" horiz-adv-x="1554" 
d="M41 39q15 1 43 3q204 12 213 42q7 20 10.5 125t3.5 311v305q0 222 -3.5 336t-10.5 136q-10 31 -239 40h-17v37q118 -2 251.5 -3t385.5 -1q193 0 405.5 2t231.5 2v-536h-35q-32 303 -126.5 401t-375.5 98q-125 0 -157 -5.5t-39 -20.5q-8 -16 -13 -353q-2 -133 -4 -212
q17 -2 34 -2.5t48 -0.5q171 0 232 73.5t69 289.5h33v-791h-33q-9 226 -67 310t-201 84q-1 0 -38.5 -1t-76.5 -1q0 -274 4 -441t11 -191q5 -18 45 -25t204 -7q269 0 372 108.5t149 419.5h32v-143v-221q0 -67 0.5 -113t1.5 -94q-278 3 -465.5 4.5t-285.5 1.5
q-153 0 -301.5 -1.5t-290.5 -4.5v39z" />
    <glyph glyph-name="F" unicode="F" horiz-adv-x="1411" 
d="M41 39q15 1 43 3q204 12 213 42q7 20 10.5 125t3.5 311v305q0 222 -3.5 336t-10.5 136q-10 31 -239 40h-17v37q131 -2 268 -3t363 -1q150 0 304.5 1t323.5 3v-567h-32q-25 318 -121.5 424t-382.5 106q-107 0 -141.5 -5.5t-44.5 -20.5q-5 -15 -8 -282q-3 -174 -5 -283
q17 -2 32.5 -2.5t43.5 -0.5q167 0 228 73.5t69 289.5h35v-776h-35q-13 220 -70 299.5t-196 79.5q-1 0 -36 -1t-71 -1v-193v-170q0 -103 4 -171.5t11 -89.5q11 -32 251 -43q21 -1 31 -1v-39q-145 3 -254 4.5t-186 1.5q-51 0 -146.5 -1.5t-234.5 -4.5v39z" />
    <glyph glyph-name="G" unicode="G" horiz-adv-x="1536" 
d="M1292 0h-24q-8 74 -34.5 110.5t-72.5 36.5q-45 0 -133 -64l-12 -9q-83 -58 -157.5 -82.5t-166.5 -24.5q-246 0 -422 203t-176 500q0 162 62 304.5t182 256.5q93 89 194.5 134.5t204.5 45.5t189 -43.5t164 -134.5h30q28 31 53.5 72t51.5 98h28v-604h-26
q-54 271 -182.5 425t-299.5 154q-176 0 -266 -185t-90 -552q0 -326 82.5 -481.5t255.5 -155.5q89 0 163.5 34.5t108.5 90.5q26 42 37 109.5t11 203.5v9q-1 154 -197 159q-57 1 -92 3v36q114 -3 212.5 -4.5t180.5 -1.5q55 0 144 1.5t212 4.5v-37q-12 0 -35 -1
q-153 -8 -165 -31q-9 -16 -13 -96.5t-4 -245.5q0 -76 0.5 -129.5t1.5 -108.5z" />
    <glyph glyph-name="H" unicode="H" horiz-adv-x="1737" 
d="M802 39v-39q-117 3 -211 4.5t-159 1.5q-68 0 -166.5 -1.5t-224.5 -4.5v39q15 1 43 3q204 12 213 42q6 17 8 89t2 345v303q0 296 -2 375t-8 96q-10 33 -251 45h-5v37q114 -3 215 -4.5t188 -1.5q58 0 149.5 1.5t209.5 4.5v-37l-14 -1q-200 -14 -216 -40q-6 -16 -9 -122.5
t-5 -434.5h621q0 347 -3.5 440t-11.5 113q-10 30 -214 44q-12 1 -17 1v37q116 -3 204.5 -4.5t145.5 -1.5q89 0 192 1.5t219 4.5l1 -37h-3q-241 -12 -251 -44q-7 -20 -9.5 -117t-2.5 -467q0 -400 2.5 -503.5t9.5 -121.5q11 -30 214 -43q25 -1 40 -2l-1 -39q-129 3 -229 4.5
t-170 1.5q-51 0 -143.5 -1.5t-218.5 -4.5v39q7 0 21 1q195 15 208 40q10 17 13.5 115t3.5 479h-621q0 -375 3 -473.5t11 -116.5q9 -27 180 -41q33 -3 49 -4z" />
    <glyph glyph-name="I" unicode="I" horiz-adv-x="905" 
d="M55 39q15 1 42 3q203 12 212 42q9 26 13 198t4 539q0 206 -4.5 326.5t-12.5 144.5q-10 33 -251 45h-3l1 37q80 -3 175.5 -4.5t286.5 -1.5q71 0 154.5 1.5t177.5 4.5v-37h-5q-241 -12 -251 -45q-9 -24 -12.5 -160.5t-3.5 -422.5q0 -310 3.5 -456t12.5 -169q12 -30 214 -42
q27 -2 42 -3l-1 -39q-123 3 -222.5 4.5t-173.5 1.5q-75 0 -174.5 -1.5t-222.5 -4.5z" />
    <glyph glyph-name="J" unicode="J" horiz-adv-x="1118" 
d="M275 1335l-1 39q117 -4 226 -6t235 -2q32 0 123 2t207 6v-38q-23 -2 -62 -4q-198 -9 -198 -107v-29l10 -731v-84q0 -166 -135.5 -298t-317.5 -132q-137 0 -229 87.5t-92 215.5q0 82 45.5 133t116.5 51q62 0 100.5 -39t38.5 -104q0 -57 -33.5 -91t-89.5 -34q-26 0 -53 10
t-29 10q-10 0 -13 -5t-3 -19q0 -68 64.5 -120t156.5 -52q128 0 174.5 96.5t46.5 497.5v94q0 400 -3 501.5t-11 114.5q-14 25 -215 35q-38 1 -59 2z" />
    <glyph glyph-name="K" unicode="K" horiz-adv-x="1651" 
d="M41 39q15 1 43 3q204 12 213 42q6 17 8 89.5t2 348.5v305q0 296 -2 374t-8 96q-9 25 -154 34q-63 3 -102 7v36q110 -3 205.5 -4.5t177.5 -1.5q55 0 142.5 1.5t207.5 4.5v-37q-15 -1 -41 -2q-153 -10 -162 -37q-6 -19 -9 -112.5t-3 -446.5v-151q352 298 486.5 437.5
t134.5 199.5q0 56 -60 83.5t-184 29.5v36q93 -3 170 -4.5t139 -1.5q67 0 145.5 1.5t169.5 4.5l1 -33h-17q-160 0 -402 -261q-112 -121 -184 -189l340 -660q11 -20 28 -55q53 -107 79 -117q33 -13 194 -19q11 -1 17 -1l-1 -39q-129 3 -223 4.5t-151 1.5q-65 0 -158.5 -1.5
t-215.5 -4.5v39q69 2 130 7t117 13q-88 190 -174 356t-168 306l-213 -180q0 -52 1 -144q2 -291 12 -318q7 -17 49.5 -26t152.5 -14v-39q-122 3 -211 4.5t-149 1.5q-66 0 -159.5 -1.5t-213.5 -4.5v39z" />
    <glyph glyph-name="L" unicode="L" horiz-adv-x="1489" 
d="M41 39q15 1 43 3q204 12 213 42q8 24 13 139.5t5 296.5v305q0 195 -5 319.5t-13 149.5q-6 19 -50 28t-206 15v37q27 0 80 -1q223 -3 307 -3q92 0 334 3q54 1 82 1v-37q-161 -6 -204.5 -15t-49.5 -28q-10 -27 -15.5 -181t-5.5 -411q0 -270 5.5 -432.5t15.5 -191.5
q6 -19 45.5 -26t198.5 -7q238 0 352.5 139t150.5 467h35q0 -27 -1 -82.5t-1 -83.5v-252q0 -74 0.5 -126.5t1.5 -106.5q-35 0 -301 3t-498 3q-109 0 -242.5 -1.5t-289.5 -4.5v39z" />
    <glyph glyph-name="M" unicode="M" horiz-adv-x="1804" 
d="M346 1305h-35l17 -871q5 -255 63.5 -324.5t222.5 -72.5v-33q-30 1 -67 1.5t-109 0.5q-102 0 -202.5 -3t-196.5 -9v32q142 9 198 60.5t56 175.5v8l-14 786q-4 173 -54.5 228.5t-187.5 57.5v32q40 -1 85 -1.5t130 -0.5q68 0 149.5 0.5t171.5 1.5l312 -983h16l302 977
q66 -1 137.5 -1.5t189.5 -0.5q56 0 110.5 0.5t114.5 1.5v-33h-26q-210 -6 -220 -37q-5 -15 -6.5 -140t-1.5 -832q0 -154 2 -196.5t6 -53.5q9 -21 62.5 -30t183.5 -12v-32q-88 2 -174.5 3t-208.5 1q-121 0 -211.5 -1t-181.5 -3v36q28 2 74 3q196 7 196 104v1151h-32
l-199 -643q-68 -218 -116 -390t-68 -263h-72z" />
    <glyph glyph-name="N" unicode="N" horiz-adv-x="1536" 
d="M45 -6v39q157 23 212.5 84t55.5 233v68l-16 782q-34 75 -88 104.5t-186 32.5v37q50 -1 100.5 -1.5t122.5 -0.5q91 0 136.5 0.5t84.5 1.5l735 -968v567q0 218 -61.5 287.5t-237.5 81.5v32q19 0 56 -1q173 -3 239 -3q65 0 236 3q38 1 57 1v-32q-149 -12 -202.5 -71
t-53.5 -286v-471q0 -149 3 -285.5t9 -261.5h-41q-96 167 -266 392q-20 27 -29 39l-579 765l14 -751q5 -224 68.5 -297t236.5 -76v-39l-147.5 2.5t-110.5 1.5q-64 0 -147 -2.5t-201 -7.5z" />
    <glyph glyph-name="O" unicode="O" horiz-adv-x="1460" 
d="M739 1372q-177 0 -270.5 -168t-93.5 -487q0 -332 95 -522.5t259 -190.5q177 0 266.5 160t89.5 475q0 350 -90.5 541.5t-255.5 191.5zM717 -35q-122 0 -240.5 55t-206.5 152q-86 96 -135 228.5t-49 271.5q0 155 58 301.5t161 251.5q90 91 200.5 137.5t237.5 46.5
q99 0 195.5 -36t177.5 -103q121 -101 190.5 -256.5t69.5 -327.5q0 -301 -193 -511t-466 -210z" />
    <glyph glyph-name="P" unicode="P" horiz-adv-x="1395" 
d="M578 1327q-2 -51 -7.5 -245.5t-5.5 -309.5q0 -19 2 -58t2 -59q15 0 44 -1q86 -3 114 -3q195 0 271.5 76t76.5 262q0 183 -83 267.5t-263 84.5q-41 0 -78.5 -3.5t-72.5 -10.5zM569 620q0 -30 -3 -97.5t-3 -104.5q0 -164 5 -247t16 -95q20 -25 244 -35q27 -1 42 -2v-39
q-138 3 -245.5 4.5t-182.5 1.5q-54 0 -153.5 -1.5t-247.5 -4.5v39q15 1 43 3q204 12 213 42q7 20 10.5 125t3.5 311v305q0 222 -3.5 336t-10.5 136q-10 31 -239 40h-17v37q33 -1 94 -3q176 -5 236 -5q85 0 222 6t187 6q257 0 406 -105t149 -282q0 -180 -154.5 -278.5
t-441.5 -98.5q-32 0 -74 1.5t-96 4.5z" />
    <glyph glyph-name="Q" unicode="Q" horiz-adv-x="1479" 
d="M790 8q5 40 12 91t7 61q0 49 -26.5 75.5t-73.5 26.5q-57 0 -94 -38t-37 -97t38 -92t107 -33q15 0 32 1.5t35 4.5zM557 51q-6 24 -9 41t-3 29q0 78 49.5 125t130.5 47q79 0 131 -51t96 -174q73 54 110.5 195.5t37.5 365.5q0 362 -96 551.5t-279 189.5q-178 0 -269 -172
t-91 -508q0 -249 53 -422.5t139 -216.5zM1384 63v-8q0 -216 -84 -329t-245 -113q-129 0 -198 89.5t-69 256.5v8q-10 -1 -23 -1.5t-44 -0.5q-259 0 -447 203t-188 498q0 312 192 526.5t465 214.5q271 0 453 -214.5t182 -539.5q0 -210 -107.5 -378t-299.5 -255
q65 -183 108.5 -242t100.5 -59q84 0 128 87.5t44 256.5h32z" />
    <glyph glyph-name="R" unicode="R" horiz-adv-x="1575" 
d="M559 739h105q261 0 346.5 66.5t85.5 232.5q0 159 -83 231t-265 72q-100 0 -136.5 -8.5t-42.5 -30.5q-7 -33 -9 -450q-1 -73 -1 -113zM41 0v39q6 0 18 1q226 14 236 44q7 21 9.5 144t2.5 599q0 249 -3 349.5t-9 119.5q-12 32 -239 41h-15v37q74 -2 146.5 -3t168.5 -1
q107 0 251.5 5t183.5 5q255 0 408 -97.5t153 -258.5q0 -126 -130.5 -208.5t-348.5 -90.5l-1 -8q189 -15 276.5 -101t115.5 -289q3 -22 8 -63q29 -227 92 -227q45 0 69.5 55t24.5 156q0 36 -3 76.5t-9 87.5l33 4q6 -40 9 -81t3 -83q0 -140 -52 -211.5t-153 -71.5
q-131 0 -200.5 74t-69.5 213v24q2 82 2 158q0 166 -55.5 214.5t-286.5 49.5h-117q0 -393 3 -496.5t10 -122.5q11 -29 214 -42q25 -1 39 -2v-39q-129 3 -224 4.5t-159 1.5q-70 0 -171 -1.5t-230 -4.5z" />
    <glyph glyph-name="S" unicode="S" horiz-adv-x="1352" 
d="M209 -33v623h31q71 -286 210.5 -437t329.5 -151q128 0 205.5 73t77.5 191q0 125 -75 195t-359 139q-255 62 -361 162.5t-106 269.5q0 166 116 273.5t295 107.5q109 0 199 -45t174 -141q46 29 73 74t42 114h22v-530h-28q-44 227 -175 359t-311 132q-130 0 -209 -66
t-79 -175t85 -170.5t363 -116.5q259 -52 369 -156.5t110 -290.5q0 -191 -123 -312.5t-317 -121.5q-107 0 -207.5 56t-183.5 161q-53 -30 -88 -82t-60 -135h-20z" />
    <glyph glyph-name="T" unicode="T" horiz-adv-x="1456" 
d="M265 39q44 2 118 5q188 7 197 54q5 32 7.5 247t2.5 718q0 6 -2.5 95.5t-3.5 176.5q-10 1 -21 1.5t-33 0.5q-159 0 -241 -122.5t-131 -450.5h-29v610q74 0 269.5 -1t316.5 -1q240 0 364.5 0.5t232.5 1.5l1 -620h-29q-47 333 -131.5 459t-249.5 126q-17 0 -51 -3
q-4 -1 -6 -1q-1 -21 -1 -61q-3 -178 -3 -246v-176v-272q0 -239 3.5 -358t10.5 -138q12 -33 276 -44q22 -1 33 -1v-39q-31 1 -90 2q-260 6 -360 6q-96 0 -210 -2t-241 -6z" />
    <glyph glyph-name="U" unicode="U" horiz-adv-x="1608" 
d="M297 1174v69q0 30 -3.5 43.5t-12.5 20.5q-24 14 -147 22q-59 4 -93 7v38q104 -4 206.5 -6t205.5 -2q70 0 167.5 2t210.5 6v-39q-22 -1 -63 -3q-198 -11 -207 -50q-6 -25 -11 -227t-5 -482q0 -335 68.5 -449t242.5 -114q144 0 247 61.5t150 174.5q14 33 20.5 71t6.5 95v49
l-10 538q-4 194 -63 262.5t-228 79.5v33q19 0 57 -1q167 -3 230 -3q62 0 230 3q37 1 56 1v-32q-143 -4 -194 -57t-51 -214v-33l10 -575v-76q0 -180 -131.5 -300t-333.5 -120q-159 0 -293 66t-217 186q-26 40 -37.5 75t-11.5 97q0 3 -1 10.5t-1 10.5q0 5 0.5 7.5t1.5 4.5z
" />
    <glyph glyph-name="V" unicode="V" horiz-adv-x="1518" 
d="M8 1339l1 35q110 -3 192 -4.5t139 -1.5q84 0 182 1.5t209 4.5v-33q-45 -3 -115 -7q-122 -6 -122 -38q0 -11 14 -49q4 -9 6 -14l352 -907h15l247 712q17 44 25 81t8 65q0 80 -52 118.5t-159 38.5h-16v33q80 -3 141.5 -4.5t108.5 -1.5q50 0 116 1.5t146 4.5v-33
q-179 -3 -280 -297q-7 -21 -11 -32l-186 -535q-36 -101 -79.5 -227t-90.5 -266h-68l-485 1249q-39 99 -187 104q-33 2 -51 2z" />
    <glyph glyph-name="W" unicode="W" horiz-adv-x="2095" 
d="M4 1341v33q92 -3 170.5 -4.5t144.5 -1.5q59 0 144.5 1.5t195.5 4.5v-33q-61 -3 -108 -8.5t-86 -13.5l338 -922h12l211 736l-39 129q-22 72 -149 76q-52 2 -84 4v32q105 -3 188 -4.5t145 -1.5q65 0 154 1.5t203 4.5v-32q-49 -3 -103.5 -8.5t-117.5 -14.5q5 -26 17 -65
q2 -7 3 -11l277 -864h12l231 702q10 32 15.5 61.5t5.5 53.5q0 35 -12 61t-37 46q-23 16 -60.5 25.5t-91.5 13.5v32q70 -3 130 -4.5t112 -1.5q38 0 94.5 1.5t130.5 4.5v-33q-178 -17 -237 -202q-7 -22 -11 -33l-225 -676q-28 -83 -62.5 -191t-78.5 -253h-56l-329 1073h-15
l-182 -637q-29 -101 -58.5 -210.5t-58.5 -225.5h-57l-436 1218q-37 104 -60 117.5t-180 19.5z" />
    <glyph glyph-name="X" unicode="X" horiz-adv-x="1606" 
d="M127 -4v32q161 10 285 197q24 35 37 54l256 362l-340 546l-9 15q-63 105 -90 117q-16 7 -70 13.5t-155 13.5v28q81 -2 165 -3t216 -1q139 0 225 1t168 3v-28q-147 -8 -189 -16.5t-42 -24.5q0 -7 4.5 -17t15.5 -26l252 -418l211 284q23 32 34 58t11 49q0 51 -41 75.5
t-151 35.5v28q80 -2 136 -3t109 -1q37 0 243 9l19 1v-28q-172 -15 -280 -164q-11 -15 -17 -23l-251 -346l411 -675q2 -3 5 -8q64 -105 261 -107v-29q-126 3 -221.5 4.5t-163.5 1.5q-63 0 -158 -1.5t-220 -4.5v29q130 5 181.5 17t51.5 36q0 16 -52 109.5t-149 250.5l-102 166
l-201 -282q-32 -46 -49.5 -89.5t-17.5 -76.5q0 -63 45.5 -94t146.5 -37v-27q-29 0 -87 1t-87 1q-99 0 -183.5 -2t-162.5 -6z" />
    <glyph glyph-name="Y" unicode="Y" horiz-adv-x="1565" 
d="M344 27q11 0 32 1q258 11 269 44q6 16 8 69.5t2 245.5v211l-344 637q-52 98 -228 104q-38 2 -58 2v33q127 -3 217.5 -4.5t146.5 -1.5q91 0 196.5 1.5t225.5 4.5v-32q-77 -2 -142.5 -7.5t-123.5 -15.5l350 -660l8 -2l252 443q18 33 27.5 64.5t9.5 58.5q0 56 -45.5 86
t-155.5 43v28h30q136 -4 191 -4q66 0 135 2t140 6v-28q-87 -8 -148.5 -56t-126.5 -161l-302 -528q-2 -52 -2.5 -102t-0.5 -120q0 -203 3 -256.5t10 -65.5q16 -28 241 -38q38 -1 60 -2v-35q-23 0 -67 1q-272 7 -382 7q-84 0 -323 -6q-68 -1 -105 -2v35z" />
    <glyph glyph-name="Z" unicode="Z" horiz-adv-x="1442" 
d="M123 0v14l776 1231q20 30 26.5 44t6.5 24q0 12 -26 16t-118 4h-63q-235 0 -327.5 -110.5t-127.5 -417.5h-32q0 180 -2 317t-6 246q122 2 462 2.5t557 3.5v-14q-147 -234 -382 -606q-418 -661 -418 -697q0 -10 45.5 -14t187.5 -4q210 0 283 31.5t127 115.5
q50 80 82.5 194.5t46.5 262.5h32q-1 -41 -1.5 -88t-0.5 -139q0 -125 2 -227t7 -189h-25q-389 4 -573 4q-122 0 -248.5 -1t-290.5 -3z" />
    <glyph glyph-name="bracketleft" unicode="[" horiz-adv-x="844" 
d="M299 1374h477v-47h-313v-1646h313v-46h-477v1739z" />
    <glyph glyph-name="backslash" unicode="\" horiz-adv-x="729" 
d="M672 -190l-639 1564h80l630 -1564h-71z" />
    <glyph glyph-name="bracketright" unicode="]" horiz-adv-x="844" 
d="M545 -367h-477v48h313v1646h-313v47h477v-1741z" />
    <glyph glyph-name="asciicircum" unicode="^" horiz-adv-x="2048" 
d="M1130 1462l502 -565h-104l-506 397l-506 -397h-104l503 565h215z" />
    <glyph glyph-name="underscore" unicode="_" 
d="M1024 -311v-172h-1024v172h1024z" />
    <glyph glyph-name="grave" unicode="`" 
d="M395 1366l242 -305h-49l-273 233q-27 24 -37 39.5t-10 30.5q0 22 16.5 37.5t39.5 15.5q16 0 32 -11t39 -40z" />
    <glyph glyph-name="a" unicode="a" horiz-adv-x="1065" 
d="M608 537q-46 -55 -177 -74h-2q-60 -9 -106.5 -74t-46.5 -151q0 -105 31.5 -157t93.5 -52q90 0 147 80.5t58 215.5zM610 154q-48 -92 -121.5 -134.5t-183.5 -42.5q-114 0 -173.5 54.5t-59.5 158.5q0 122 82 210t201 92q160 5 208.5 37.5t48.5 162.5q0 129 -36 177.5
t-125 48.5q-90 0 -144.5 -40t-68.5 -116h6q48 0 74 -22t26 -64q0 -43 -33.5 -75t-77.5 -32q-46 0 -74 32.5t-28 86.5q0 105 96.5 182.5t235.5 77.5q140 0 245 -62.5t105 -137.5q0 -17 -6 -155.5t-6 -260.5q0 -169 18 -228t64 -59q47 0 69.5 53t22.5 164q0 36 -2 72.5
t-6 77.5h28q1 -15 4 -46q7 -82 7 -122q0 -141 -45 -204t-144 -63q-81 0 -136.5 47.5t-70.5 129.5z" />
    <glyph glyph-name="b" unicode="b" horiz-adv-x="1087" 
d="M141 -16l19 821q3 156 4.5 259t1.5 146v27q0 92 -134 96q-39 1 -63 2l1 35q100 3 201.5 9t203.5 15v-685h8q33 118 95.5 173.5t162.5 55.5q156 0 266.5 -134t110.5 -325q0 -202 -128 -347.5t-306 -145.5q-100 0 -173 44t-120 132h-15l-92 -178h-43zM600 905
q-105 0 -163 -127t-58 -360q0 -213 47 -308.5t152 -95.5q109 0 157.5 106t48.5 343q0 221 -46 331.5t-138 110.5z" />
    <glyph glyph-name="c" unicode="c" horiz-adv-x="967" 
d="M874 389v-16q0 -188 -93.5 -294t-260.5 -106q-198 0 -323 127t-125 328q0 212 139 366t328 154q127 0 219 -79t92 -181q0 -58 -32 -94.5t-83 -36.5q-48 0 -81 34t-33 83q0 45 28.5 73.5t73.5 28.5q3 0 10 -1t10 -1q-18 70 -67.5 108t-122.5 38q-128 0 -188 -112t-60 -351
q0 -236 57 -339.5t185 -103.5q144 0 223.5 95.5t79.5 267.5v12h24z" />
    <glyph glyph-name="d" unicode="d" horiz-adv-x="1110" 
d="M694 233h-12q-33 -138 -93 -198t-165 -60q-155 0 -253.5 131t-98.5 340q0 208 118 356t277 148q83 0 135.5 -60t75.5 -181l8 -2v516q0 101 -144 104q-78 2 -130 4v33q118 2 236.5 9.5t238.5 21.5v-1241v-45q0 -60 100 -64q42 -2 69 -4v-31q-148 -7 -224 -12t-137 -10z
M678 457q0 210 -53.5 338.5t-139.5 128.5q-89 0 -135.5 -120t-46.5 -351q0 -243 39.5 -345t130.5 -102q89 0 147 125t58 326z" />
    <glyph glyph-name="e" unicode="e" horiz-adv-x="995" 
d="M886 477h-583q0 -10 -1 -30t-1 -29q0 -207 64.5 -308.5t195.5 -101.5q135 0 213 88t78 242v10h31q0 -183 -93 -280t-270 -97q-211 0 -329.5 122.5t-118.5 338.5q0 222 125 369t313 147q171 0 269 -122.5t107 -348.5zM684 510v35v59q0 155 -45 235.5t-131 80.5
q-102 0 -151 -98.5t-53 -311.5h380z" />
    <glyph glyph-name="f" unicode="f" horiz-adv-x="739" 
d="M47 32q17 2 47 4q144 10 144 122v43v671h-199v48h199v16q0 209 103 344t257 135q100 0 161.5 -52.5t61.5 -137.5q0 -50 -35.5 -86.5t-85.5 -36.5q-45 0 -73.5 29.5t-28.5 76.5q0 43 23.5 74.5t68.5 48.5q-16 27 -40.5 40t-57.5 13q-83 0 -115.5 -81t-32.5 -312v-71h205
v-48h-205v-702v-41v-6q1 -75 136 -86q34 -2 55 -5l-1 -32q-97 3 -172 4.5t-128 1.5q-49 0 -121 -1.5t-165 -4.5z" />
    <glyph glyph-name="g" unicode="g" horiz-adv-x="1090" 
d="M621 -25q-186 0 -278.5 -44t-92.5 -132q0 -91 80 -139.5t233 -48.5q169 0 264 54.5t95 150.5q0 80 -75 119.5t-226 39.5zM362 627q0 -129 48.5 -199t136.5 -70t132 67t44 202q0 138 -45.5 211t-130.5 73q-87 0 -136 -74.5t-49 -209.5zM260 399q-55 34 -86 89t-31 120
q0 140 117.5 236t292.5 96q47 0 91.5 -8.5t84.5 -24.5q-10 30 -14 51t-4 39q0 66 38.5 108t98.5 42q45 0 75.5 -28.5t30.5 -69.5q0 -30 -19 -49t-50 -19q-34 0 -54 18.5t-20 49.5q0 12 4 24t12 23h-16q-29 0 -49.5 -25t-20.5 -63q0 -28 6.5 -55t20.5 -58q79 -50 121.5 -121
t42.5 -151q0 -128 -105 -210.5t-274 -82.5q-67 0 -131.5 12t-120.5 35q-55 -13 -89 -46.5t-34 -74.5q0 -50 42.5 -78t117.5 -28q45 0 159 12t181 12q154 0 238.5 -72.5t84.5 -203.5q0 -152 -113 -234t-325 -82q-201 0 -327.5 65t-126.5 160q0 58 44.5 93t149.5 59v6
q-93 17 -140.5 69.5t-47.5 137.5q0 75 36 132t109 95z" />
    <glyph glyph-name="h" unicode="h" horiz-adv-x="1192" 
d="M11 29q23 3 60 7q117 12 117 95v49l7 1047v30q0 75 -129 81q-43 2 -68 4v32q107 2 208.5 7t199.5 14l-7 -723h17q29 131 105.5 198.5t197.5 67.5t207 -70.5t86 -158.5v-7l-19 -499v-41q0 -14 -1 -38.5t-1 -35.5q0 -41 129 -54q18 -2 29 -4v-34q-71 2 -159.5 5t-102.5 3
q-46 0 -100 -1t-154 -3v34q82 6 115 14t38 24q6 17 10.5 139t4.5 295q0 238 -33.5 311.5t-120.5 73.5q-133 0 -189.5 -163.5t-56.5 -588.5v-18q1 -73 118 -82q32 -3 50 -4v-33q-49 1 -101 1.5t-138 0.5q-72 0 -152.5 -2t-167.5 -6z" />
    <glyph glyph-name="i" unicode="i" horiz-adv-x="631" 
d="M178 1251q0 53 40.5 94t94.5 41q56 0 96 -39.5t40 -97.5q0 -54 -40.5 -93.5t-97.5 -39.5q-50 0 -91.5 41.5t-41.5 93.5zM12 33q107 8 134.5 15.5t31.5 20.5q6 15 12.5 140.5t6.5 282.5q0 31 2 130.5t2 168.5q0 80 -128 85q-36 2 -57 3l1 32q100 3 202 9.5t202 15.5
q-7 -209 -11 -378t-4 -251q0 -154 2 -193.5t8 -48.5q7 -9 40.5 -16t118.5 -16v-33q-38 1 -108 4q-127 4 -164 4q-57 0 -221 -6q-45 -1 -70 -2v33z" />
    <glyph glyph-name="j" unicode="j" horiz-adv-x="635" 
d="M195 1251q0 53 40 94t95 41t94 -39.5t39 -97.5q0 -54 -40.5 -93.5t-96.5 -39.5q-51 0 -91 41.5t-40 93.5zM43 879v32q100 2 197.5 8t191.5 17l4 -784q0 -171 -16 -247t-53 -138q-50 -82 -133.5 -129.5t-180.5 -47.5q-105 0 -167 50t-62 135q0 57 32.5 93t82.5 36
q46 0 73 -29t27 -78q0 -60 -56.5 -84.5t-56.5 -36.5q0 -22 32 -39.5t73 -17.5q109 0 151.5 90t42.5 426v658q0 78 -130 83q-34 2 -52 3z" />
    <glyph glyph-name="k" unicode="k" horiz-adv-x="1155" 
d="M8 33q31 4 78 9q100 11 100 81q0 1 1 7q1 25 1 48l7 1053v31q-1 75 -129 80q-42 2 -68 4v34q108 2 209.5 7t198.5 14l-9 -998l262 252q59 58 82 92t23 62q0 44 -41 63t-141 21v28q45 0 91.5 -0.5t117.5 -0.5q42 0 112.5 1.5t169.5 3.5v-28h-6q-78 0 -145 -37t-150 -129
l-70 -76l238 -520q3 -6 7 -15q40 -89 122 -89q1 0 6 -1q19 -3 39 -3v-33q-10 0 -30 1q-180 7 -259 7h-33q-103 -2 -194 -2v32q18 2 47 3q92 4 92 41q0 8 -1.5 16.5t-4.5 16.5l-180 397l-154 -139v-181q0 -17 -1 -41.5t-1 -31.5q0 -67 111 -77q26 -2 40 -3l1 -33
q-57 1 -148.5 3.5t-126.5 2.5q-32 0 -120.5 -2.5t-143.5 -3.5v33z" />
    <glyph glyph-name="l" unicode="l" horiz-adv-x="631" 
d="M403 1395v-1209q0 -15 1.5 -33.5t1.5 -21.5v-12q0 -69 115 -79q32 -3 52 -5v-35q-31 1 -132 3.5t-160 2.5q-25 0 -72.5 -1.5t-195.5 -8.5v33q22 3 58 7q119 14 119 114v16v1069q0 96 -121 103q-38 2 -61 4v32q70 2 151.5 6.5t243.5 14.5z" />
    <glyph glyph-name="m" unicode="m" horiz-adv-x="1733" 
d="M8 29q28 4 71 9q98 13 103 39q6 32 8.5 179.5t2.5 482.5v54q0 83 -169 93q-10 0 -16 1v32q160 6 240 10t147 9l6 -231h9q35 123 101 176t183 53q127 0 196.5 -70t74.5 -200h4q27 148 94.5 211t198.5 63q118 0 203 -70t85 -149v-2l-14 -533v-96q0 -39 113 -47q35 -3 54 -4
l1 -32q-59 0 -117.5 0.5t-144.5 0.5q-25 0 -115.5 -1.5t-144.5 -2.5v33q98 8 123 15.5t28 20.5q6 18 10.5 150.5t4.5 321.5q0 218 -33.5 288t-118.5 70q-131 0 -183 -160.5t-52 -625.5q0 -68 138 -82q16 -1 25 -2v-33q-94 3 -157 4.5t-93 1.5q-53 0 -122.5 -1.5t-157.5 -4.5
v33l8 1q142 14 150 38q5 18 8.5 134.5t3.5 291.5v90q0 198 -30.5 253.5t-108.5 55.5q-130 0 -182 -155.5t-52 -614.5v-6q0 -72 148 -86h2v-35q-29 1 -121.5 3.5t-147.5 2.5q-19 0 -160 -6q-64 -2 -103 -4z" />
    <glyph glyph-name="n" unicode="n" horiz-adv-x="1186" 
d="M8 29q28 4 70 9q98 13 104 39q6 23 9.5 176.5t3.5 385.5q0 62 -2 133v23q-1 81 -158 90q-17 1 -27 2v33h4q258 8 387 18l9 -231h4q43 121 114 177t181 56q127 0 213 -72.5t86 -158.5v-2l-17 -543q0 -14 -1 -33t-1 -25q0 -57 149 -70q9 -1 13 -1l-1 -35q-29 1 -85 3
q-143 5 -191 5q-27 0 -129 -4q-73 -3 -116 -4v35q92 7 120.5 15t32.5 22q6 18 9.5 136.5t3.5 336.5q0 212 -34 279t-120 67q-135 0 -189.5 -154t-54.5 -610q0 -78 152 -92l-1 -35q-68 3 -136.5 4.5t-137.5 1.5q-19 0 -160 -6q-64 -2 -103 -4z" />
    <glyph glyph-name="o" unicode="o" horiz-adv-x="1049" 
d="M524 920q-110 0 -165.5 -120t-55.5 -360q0 -216 55 -327t162 -111t165 114t58 322q0 233 -56.5 357.5t-162.5 124.5zM541 948q185 0 310.5 -142.5t125.5 -356.5q0 -199 -134 -338.5t-321 -139.5q-196 0 -323 136t-127 342q0 214 133.5 356.5t335.5 142.5z" />
    <glyph glyph-name="p" unicode="p" horiz-adv-x="1085" 
d="M612 901q-91 0 -144.5 -101.5t-53.5 -279.5q0 -226 58 -363t151 -137q82 0 122.5 103.5t40.5 312.5q0 257 -40 361t-134 104zM401 725h7q23 102 87.5 160.5t151.5 58.5q144 0 252.5 -138t108.5 -331q0 -192 -115.5 -340.5t-249.5 -148.5q-92 0 -152.5 75.5t-82.5 219.5
v-576q0 -56 146 -65q48 -2 79 -5v-32q-100 3 -182 4.5t-150 1.5q-46 0 -119.5 -1.5t-175.5 -4.5v32q19 2 50 4q138 9 139 78q0 8 -1 32.5t-1 41.5v993q-1 94 -165 102q-14 0 -22 1v32q96 2 191.5 6.5t193.5 12.5z" />
    <glyph glyph-name="q" unicode="q" horiz-adv-x="1075" 
d="M285 455q0 -216 48 -332.5t136 -116.5q95 0 149 124t54 345q0 234 -44 336t-143 102t-149.5 -116.5t-50.5 -341.5zM674 225q-25 -128 -86.5 -190t-165.5 -62q-146 0 -248 135.5t-102 329.5q0 215 122.5 357.5t307.5 142.5q88 0 155.5 -47t102.5 -133q33 37 59 84t45 106
h23l-4 -1157q0 -18 -1 -43.5t-1 -34.5q0 -65 143 -74q27 -2 43 -4v-32q-76 3 -147 4.5t-154 1.5q-59 0 -139.5 -1.5t-179.5 -4.5l-1 32q30 2 79 5q148 9 149 67v49v469z" />
    <glyph glyph-name="r" unicode="r" horiz-adv-x="844" 
d="M9 35q27 4 70 8q99 12 103 36q6 34 9.5 185.5t3.5 374.5v156q-1 81 -158 90q-17 1 -27 2v32q160 6 239.5 10t145.5 9l2 -324h11q34 168 91.5 246t145.5 78q68 0 108 -37.5t40 -101.5q0 -59 -30.5 -94t-82.5 -35q-43 0 -70.5 29t-27.5 75q0 58 43 89.5t43 37.5
q0 5 -7.5 9.5t-17.5 4.5q-126 0 -184 -188t-58 -600q0 -80 149 -92q36 -3 56 -5v-34q-164 6 -230.5 8t-103.5 2q-93 0 -151 -1.5t-112 -4.5v35z" />
    <glyph glyph-name="s" unicode="s" horiz-adv-x="924" 
d="M150 -23v420h22q35 -186 130 -288.5t233 -102.5q79 0 128.5 42.5t49.5 109.5q0 90 -60 140.5t-243 92.5q-173 39 -236 100.5t-63 174.5q0 128 77 206t203 78q71 0 130.5 -27t111.5 -83h18q17 19 30 45t24 61h20v-375h-25q-16 164 -97.5 257.5t-207.5 93.5
q-83 0 -136.5 -42t-53.5 -106q0 -118 277 -189q44 -11 67 -18q137 -35 200.5 -106.5t63.5 -188.5q0 -133 -76.5 -215t-199.5 -82q-86 0 -158 37.5t-137 114.5q-25 -34 -43 -72t-29 -78h-20z" />
    <glyph glyph-name="t" unicode="t" horiz-adv-x="844" 
d="M201 854h-215v29q188 21 277.5 127.5t111.5 337.5h28v-428h293v-56h-293v-628q0 -125 30.5 -173.5t103.5 -48.5q78 0 114.5 62t36.5 196q0 49 -1.5 108.5t-4.5 129.5h27q4 -59 6 -119.5t2 -122.5q0 -161 -58 -229t-194 -68q-118 0 -200.5 55t-82.5 126v2z" />
    <glyph glyph-name="u" unicode="u" horiz-adv-x="1159" 
d="M2 870v35q93 3 193 8.5t213 14.5q-7 -206 -10 -367.5t-3 -277.5q0 -163 31 -217t106 -54q119 0 168.5 157.5t49.5 592.5v14q0 78 -17 92.5t-86 14.5q-12 0 -49 -1t-61 -1v32q112 6 215.5 12.5t205.5 14.5v-793q0 -82 13 -98t63 -16q10 0 42 1t54 1v-35q-83 -1 -177.5 -7
t-196.5 -16l-6 271h-7q-31 -145 -96.5 -209t-181.5 -64t-199.5 71t-83.5 144v3l17 569v49q0 39 -15 49t-75 10h-107z" />
    <glyph glyph-name="v" unicode="v" horiz-adv-x="1071" 
d="M-37 887v33q23 -1 66 -2q169 -3 233 -3q66 0 239 3q41 1 62 2v-33q-24 -2 -64 -4q-130 -7 -130 -27q0 -5 9 -27q4 -9 7 -16l236 -575h10l162 469q8 23 12 44t4 42q0 50 -37.5 72t-124.5 22v33q13 -1 36 -1q121 -4 167 -4q36 0 135 3q34 1 53 2v-33q-89 -6 -132 -38
t-75 -120l-135 -390q-1 -3 -46 -130.5t-87 -251.5h-39l-350 827q-31 74 -58.5 87.5t-152.5 15.5z" />
    <glyph glyph-name="w" unicode="w" horiz-adv-x="1491" 
d="M461 -43l-322 825v1q-39 102 -196 104v33q19 -1 53 -1q158 -4 219 -4q54 0 194 3q37 1 58 2v-33q-14 -2 -38 -4q-103 -10 -103 -31q0 -6 15 -47q7 -19 11 -30l205 -554h6l150 473l-37 97q-24 68 -48 82t-85 14h-17v33q16 -1 45 -1q140 -4 191 -4q84 0 256 4l12 1v-33
q-99 -6 -130 -13.5t-32 -23.5q0 -6 10 -31.5t15 -40.5l182 -542h12l156 469q9 27 14 50.5t5 41.5q0 45 -32.5 65t-115.5 25v33q14 -1 40 -2q99 -3 138 -3q40 0 145 4q21 0 31 1v-33q-80 -3 -119.5 -33.5t-78.5 -148.5l-150 -445q-11 -35 -45 -136.5t-55 -166.5h-43l-252 698
l-123 -393q-4 -13 -15 -46q-48 -145 -81 -259h-45z" />
    <glyph glyph-name="x" unicode="x" horiz-adv-x="1104" 
d="M455 0q-42 1 -78.5 1.5t-71.5 0.5q-53 0 -190 -6q-28 -1 -43 -2v31h6q68 0 115.5 29.5t105.5 117.5l160 240l-248 381q-3 4 -9 14q-51 80 -179 80v28q80 -3 145.5 -4.5t116.5 -1.5q37 0 121.5 3t125.5 3v-28q-15 -1 -43 -3q-89 -4 -90 -30q0 -6 12 -25q5 -7 7 -10
l157 -237l111 159q21 31 28 49t7 35q0 31 -30.5 46.5t-90.5 15.5v30q29 -1 61.5 -1.5t98.5 -0.5q65 0 98.5 0.5t63.5 1.5v-30q-107 -4 -185 -120q-8 -11 -12 -17l-131 -191l295 -444q36 -57 68 -70.5t104 -16.5l-1 -32q-107 5 -183.5 7.5t-137.5 2.5q-42 0 -91 -0.5
t-103 -1.5v29q95 4 117 11t22 24q0 7 -5 18.5t-15 28.5l-189 276l-119 -180q-20 -31 -29.5 -54t-9.5 -42q0 -45 32 -65t105 -21z" />
    <glyph glyph-name="y" unicode="y" horiz-adv-x="977" 
d="M483 -37l-317 846q-1 3 -3 7q-26 71 -159 75v34q91 -2 187.5 -3.5t195.5 -1.5q55 0 81.5 1t49.5 4v-34q-27 -2 -69 -3q-88 -3 -89 -22q0 -7 12 -36q2 -5 3 -7l207 -553h6l145 435q9 26 14 51.5t5 46.5q0 48 -30 69.5t-105 24.5l-1 29q4 0 13 -1q126 -3 186 -3
q24 0 51 0.5t76 2.5v-30h-14q-110 0 -224 -359q-40 -124 -65 -198q-28 -84 -75 -233q-158 -506 -345 -506q-89 0 -139.5 43.5t-50.5 119.5q0 59 34.5 97.5t88.5 38.5q49 0 79.5 -32t30.5 -81q0 -65 -56 -96l-56 -31q0 -12 19 -21.5t46 -9.5q96 0 158 77t110 259z" />
    <glyph glyph-name="z" unicode="z" horiz-adv-x="1038" 
d="M674 889q-29 1 -76.5 2.5t-58.5 1.5q-170 0 -230.5 -72t-89.5 -309h-20v410q15 -2 31.5 -3t39.5 -1q39 0 117.5 1t120.5 1q26 0 102.5 -1t126.5 -1q9 0 71 1.5t114 1.5v-6l-608 -880q53 -3 100 -4.5t84 -1.5q176 0 243 83t109 343h24q1 -122 3.5 -236t6.5 -219
q-53 2 -87.5 3t-67.5 1q-27 0 -112 -1t-142 -1q-30 0 -112 1t-134 1q-40 0 -81.5 -1t-86.5 -3v4z" />
    <glyph glyph-name="braceleft" unicode="{" 
d="M850 1459q-128 -2 -175.5 -55t-47.5 -210v-137q0 -225 -56.5 -307.5t-208.5 -114.5q152 -32 208.5 -114.5t56.5 -307.5v-137q0 -157 47 -209t176 -54v-57h-10q-222 0 -305.5 74t-83.5 272v201q0 161 -58 223.5t-215 75.5v68q159 15 216 76t57 223v200q0 200 84.5 273.5
t314.5 73.5v-57z" />
    <glyph glyph-name="bar" unicode="|" 
d="M602 1565v-2048h-178v2048h178z" />
    <glyph glyph-name="braceright" unicode="}" 
d="M575 1169v-200q0 -162 57 -223t216 -76v-68q-157 -13 -215 -74.5t-58 -224.5v-201q0 -197 -84 -271.5t-307 -74.5h-10v57q129 2 176 54t47 209v137q0 227 56.5 308.5t208.5 113.5q-151 32 -208 113.5t-57 308.5v137q0 157 -47.5 210t-175.5 55v57h10q223 0 307 -74.5
t84 -272.5z" />
    <glyph glyph-name="asciitilde" unicode="~" horiz-adv-x="1706" 
d="M1530 600q-103 -71 -197.5 -106t-183.5 -35q-44 0 -92.5 8.5t-98.5 26.5q-25 8 -76 26q-212 74 -319 74q-82 0 -174 -38t-211 -122v187q106 72 202 107.5t185 35.5q62 0 125.5 -12t168.5 -48q13 -4 42 -15q164 -58 250 -58q85 0 177 37t202 116v-184z" />
    <glyph glyph-name="Adieresis" unicode="&#xc4;" horiz-adv-x="1481" 
d="M436 522h363l-183 525zM33 0v39q109 3 174 67.5t127 243.5l368 1057h48q147 -441 279 -811t188 -504q17 -41 139 -48q53 -2 87 -5v-39q-129 3 -223 4.5t-151 1.5q-69 0 -167.5 -1.5t-229.5 -4.5v39q118 4 179 8.5t107 9.5l-141 412h-395l-49 -139q-15 -43 -23 -79.5
t-8 -64.5q0 -77 48 -109.5t171 -37.5v-39q-87 3 -156 4.5t-116 1.5q-39 0 -103.5 -1.5t-152.5 -4.5zM915 1766q35 0 61.5 -26.5t26.5 -61.5q0 -39 -25.5 -65t-62.5 -26q-38 0 -63 25.5t-25 62.5q0 36 26.5 63.5t61.5 27.5zM567 1766q35 0 61.5 -26.5t26.5 -61.5
q0 -38 -26 -64.5t-62 -26.5q-38 0 -63 26t-25 65q0 35 26.5 61.5t61.5 26.5z" />
    <glyph glyph-name="Aring" unicode="&#xc5;" horiz-adv-x="1481" 
d="M725 1860q-63 0 -108.5 -44.5t-45.5 -107.5q0 -64 44.5 -108t109.5 -44t108.5 44t43.5 108q0 63 -44.5 107.5t-107.5 44.5zM725 1942q97 0 165 -68.5t68 -165.5t-68 -165t-165 -68q-98 0 -165.5 67.5t-67.5 165.5t67.5 166t165.5 68zM436 522h363l-183 525zM33 0v39
q109 3 174 67.5t127 243.5l368 1057h48q147 -441 279 -811t188 -504q17 -41 139 -48q53 -2 87 -5v-39q-129 3 -223 4.5t-151 1.5q-69 0 -167.5 -1.5t-229.5 -4.5v39q118 4 179.5 8.5t109.5 9.5l-144 412h-395l-49 -139q-15 -43 -23 -79.5t-8 -64.5q0 -77 48 -109.5
t171 -37.5v-39q-87 3 -156 4.5t-116 1.5q-39 0 -103.5 -1.5t-152.5 -4.5z" />
    <glyph glyph-name="Ccedilla" unicode="&#xc7;" horiz-adv-x="1309" 
d="M1227 575q0 -288 -137 -448t-383 -160q-282 0 -451.5 189.5t-169.5 505.5q0 327 175.5 537t445.5 210q98 0 174 -36.5t149 -119.5h19q29 42 53 85t41 87h31v-649h-37q-32 294 -139 445t-283 151q-179 0 -271 -173t-92 -509q0 -345 95.5 -513.5t291.5 -168.5
q205 0 328 151t123 404v12h37zM659 0h56v-121q8 1 23 2q29 2 40 2q75 0 120.5 -44.5t45.5 -117.5q0 -75 -56 -118t-155 -43q-57 0 -122 17t-148 54l24 60q73 -33 130.5 -49.5t99.5 -16.5q57 0 87.5 26t30.5 75q0 42 -30 67t-82 25q-12 0 -27.5 -1.5t-35.5 -4.5z" />
    <glyph glyph-name="Eacute" unicode="&#xc9;" horiz-adv-x="1554" 
d="M41 39q15 1 43 3q204 12 213 42q7 20 10.5 125t3.5 311v305q0 222 -3.5 336t-10.5 136q-10 31 -239 40h-17v37q118 -2 251.5 -3t385.5 -1q193 0 405.5 2t231.5 2v-536h-35q-32 303 -126.5 401t-375.5 98q-125 0 -157 -5.5t-39 -20.5q-8 -16 -13 -353q-2 -133 -4 -212
q17 -2 34 -2.5t48 -0.5q171 0 232 73.5t69 289.5h33v-791h-33q-9 226 -67 310t-201 84q-1 0 -38.5 -1t-76.5 -1q0 -274 4 -441t11 -191q5 -18 45 -25t204 -7q269 0 372 108.5t149 419.5h32v-143v-221q0 -67 0.5 -113t1.5 -94q-278 3 -465.5 4.5t-285.5 1.5
q-153 0 -301.5 -1.5t-290.5 -4.5v39zM975 1755l-273 -233h-49l242 305q23 29 39 40t32 11q23 0 39.5 -15.5t16.5 -37.5q0 -15 -10 -30.5t-37 -39.5z" />
    <glyph glyph-name="Ntilde" unicode="&#xd1;" horiz-adv-x="1536" 
d="M45 -6v39q157 23 212.5 84t55.5 233v68l-16 782q-34 75 -88 104.5t-186 32.5v37q50 -1 100.5 -1.5t122.5 -0.5q91 0 136.5 0.5t84.5 1.5l735 -968v567q0 218 -61.5 287.5t-237.5 81.5v32q19 0 56 -1q173 -3 239 -3q65 0 236 3q38 1 57 1v-32q-149 -12 -202.5 -71
t-53.5 -286v-471q0 -149 3 -285.5t9 -261.5h-41q-96 167 -266 392q-20 27 -29 39l-579 765l14 -751q5 -224 68.5 -297t236.5 -76v-39l-147.5 2.5t-110.5 1.5q-64 0 -147 -2.5t-201 -7.5zM1010 1788h43q-20 -90 -64 -136t-110 -46q-18 0 -37.5 3.5t-40.5 10.5l-117 35
q-21 6 -36 9t-23 3q-42 0 -63.5 -19.5t-35.5 -70.5h-43q17 89 61.5 136.5t108.5 47.5q16 0 38 -4t52 -12l118 -35q19 -5 32.5 -7.5t21.5 -2.5q38 0 61 21.5t34 66.5z" />
    <glyph glyph-name="Odieresis" unicode="&#xd6;" horiz-adv-x="1460" 
d="M739 1372q-177 0 -270.5 -168t-93.5 -487q0 -332 95 -522.5t259 -190.5q177 0 266.5 160t89.5 475q0 350 -90.5 541.5t-255.5 191.5zM717 -35q-122 0 -240.5 55t-206.5 152q-86 96 -135 228.5t-49 271.5q0 155 58 301.5t161 251.5q90 91 200.5 137.5t237.5 46.5
q99 0 195.5 -36t177.5 -103q121 -101 190.5 -256.5t69.5 -327.5q0 -301 -193 -511t-466 -210zM905 1766q35 0 61.5 -26.5t26.5 -61.5q0 -39 -25.5 -65t-62.5 -26q-38 0 -63 25.5t-25 62.5q0 36 26.5 63.5t61.5 27.5zM557 1766q35 0 61.5 -26.5t26.5 -61.5q0 -38 -26 -64.5
t-62 -26.5q-38 0 -63 26t-25 65q0 35 26.5 61.5t61.5 26.5z" />
    <glyph glyph-name="Udieresis" unicode="&#xdc;" horiz-adv-x="1608" 
d="M297 1174v69q0 30 -3.5 43.5t-12.5 20.5q-24 14 -147 22q-59 4 -93 7v38q104 -4 206.5 -6t205.5 -2q70 0 167.5 2t210.5 6v-39q-22 -1 -63 -3q-198 -11 -207 -50q-6 -25 -11 -227t-5 -482q0 -335 68.5 -449t242.5 -114q144 0 247 61.5t150 174.5q14 33 20.5 71t6.5 95v49
l-10 538q-4 194 -63 262.5t-228 79.5v33q19 0 57 -1q167 -3 230 -3q62 0 230 3q37 1 56 1v-32q-143 -4 -194 -57t-51 -214v-33l10 -575v-76q0 -180 -131.5 -300t-333.5 -120q-159 0 -293 66t-217 186q-26 40 -37.5 75t-11.5 97q0 3 -1 10.5t-1 10.5q0 5 0.5 7.5t1.5 4.5z
M1034 1766q35 0 61.5 -26.5t26.5 -61.5q0 -39 -25.5 -65t-62.5 -26q-38 0 -63 25.5t-25 62.5q0 36 26.5 63.5t61.5 27.5zM686 1766q35 0 61.5 -26.5t26.5 -61.5q0 -38 -26 -64.5t-62 -26.5q-38 0 -63 26t-25 65q0 35 26.5 61.5t61.5 26.5z" />
    <glyph glyph-name="aacute" unicode="&#xe1;" horiz-adv-x="1065" 
d="M608 537q-46 -55 -177 -74h-2q-60 -9 -106.5 -74t-46.5 -151q0 -105 31.5 -157t93.5 -52q90 0 147 80.5t58 215.5zM610 154q-48 -92 -121.5 -134.5t-183.5 -42.5q-114 0 -173.5 54.5t-59.5 158.5q0 122 82 210t201 92q160 5 208.5 37.5t48.5 162.5q0 129 -36 177.5
t-125 48.5q-90 0 -144.5 -40t-68.5 -116h6q48 0 74 -22t26 -64q0 -43 -33.5 -75t-77.5 -32q-46 0 -74 32.5t-28 86.5q0 105 96.5 182.5t235.5 77.5q140 0 245 -62.5t105 -137.5q0 -17 -6 -155.5t-6 -260.5q0 -169 18 -228t64 -59q47 0 69.5 53t22.5 164q0 36 -2 72.5
t-6 77.5h28q1 -15 4 -46q7 -82 7 -122q0 -141 -45 -204t-144 -63q-81 0 -136.5 47.5t-70.5 129.5zM713 1294l-273 -233h-49l242 305q23 29 39 40t32 11q23 0 39.5 -15.5t16.5 -37.5q0 -15 -10 -30.5t-37 -39.5z" />
    <glyph glyph-name="agrave" unicode="&#xe0;" horiz-adv-x="1065" 
d="M608 537q-46 -55 -177 -74h-2q-60 -9 -106.5 -74t-46.5 -151q0 -105 31.5 -157t93.5 -52q90 0 147 80.5t58 215.5zM610 154q-48 -92 -121.5 -134.5t-183.5 -42.5q-114 0 -173.5 54.5t-59.5 158.5q0 122 82 210t201 92q160 5 208.5 37.5t48.5 162.5q0 129 -36 177.5
t-125 48.5q-90 0 -144.5 -40t-68.5 -116h6q48 0 74 -22t26 -64q0 -43 -33.5 -75t-77.5 -32q-46 0 -74 32.5t-28 86.5q0 105 96.5 182.5t235.5 77.5q140 0 245 -62.5t105 -137.5q0 -17 -6 -155.5t-6 -260.5q0 -169 18 -228t64 -59q47 0 69.5 53t22.5 164q0 36 -2 72.5
t-6 77.5h28q1 -15 4 -46q7 -82 7 -122q0 -141 -45 -204t-144 -63q-81 0 -136.5 47.5t-70.5 129.5zM399 1366l242 -305h-49l-273 233q-27 24 -37 39.5t-10 30.5q0 22 16.5 37.5t39.5 15.5q16 0 32 -11t39 -40z" />
    <glyph glyph-name="acircumflex" unicode="&#xe2;" horiz-adv-x="1065" 
d="M608 537q-46 -55 -177 -74h-2q-60 -9 -106.5 -74t-46.5 -151q0 -105 31.5 -157t93.5 -52q90 0 147 80.5t58 215.5zM610 154q-48 -92 -121.5 -134.5t-183.5 -42.5q-114 0 -173.5 54.5t-59.5 158.5q0 122 82 210t201 92q160 5 208.5 37.5t48.5 162.5q0 129 -36 177.5
t-125 48.5q-90 0 -144.5 -40t-68.5 -116h6q48 0 74 -22t26 -64q0 -43 -33.5 -75t-77.5 -32q-46 0 -74 32.5t-28 86.5q0 105 96.5 182.5t235.5 77.5q140 0 245 -62.5t105 -137.5q0 -17 -6 -155.5t-6 -260.5q0 -169 18 -228t64 -59q47 0 69.5 53t22.5 164q0 36 -2 72.5
t-6 77.5h28q1 -15 4 -46q7 -82 7 -122q0 -141 -45 -204t-144 -63q-81 0 -136.5 47.5t-70.5 129.5zM469 1409h94l223 -348h-47l-223 231l-223 -231h-47z" />
    <glyph glyph-name="adieresis" unicode="&#xe4;" horiz-adv-x="1065" 
d="M608 537q-46 -55 -177 -74h-2q-60 -9 -106.5 -74t-46.5 -151q0 -105 31.5 -157t93.5 -52q90 0 147 80.5t58 215.5zM610 154q-48 -92 -121.5 -134.5t-183.5 -42.5q-114 0 -173.5 54.5t-59.5 158.5q0 122 82 210t201 92q160 5 208.5 37.5t48.5 162.5q0 129 -36 177.5
t-125 48.5q-90 0 -144.5 -40t-68.5 -116h6q48 0 74 -22t26 -64q0 -43 -33.5 -75t-77.5 -32q-46 0 -74 32.5t-28 86.5q0 105 96.5 182.5t235.5 77.5q140 0 245 -62.5t105 -137.5q0 -17 -6 -155.5t-6 -260.5q0 -169 18 -228t64 -59q47 0 69.5 53t22.5 164q0 36 -2 72.5
t-6 77.5h28q1 -15 4 -46q7 -82 7 -122q0 -141 -45 -204t-144 -63q-81 0 -136.5 47.5t-70.5 129.5zM690 1305q35 0 61.5 -26.5t26.5 -61.5q0 -39 -25.5 -65t-62.5 -26q-38 0 -63 25.5t-25 62.5q0 36 26.5 63.5t61.5 27.5zM342 1305q35 0 61.5 -26.5t26.5 -61.5
q0 -38 -26 -64.5t-62 -26.5q-38 0 -63 26t-25 65q0 35 26.5 61.5t61.5 26.5z" />
    <glyph glyph-name="atilde" unicode="&#xe3;" horiz-adv-x="1065" 
d="M608 537q-46 -55 -177 -74h-2q-60 -9 -106.5 -74t-46.5 -151q0 -105 31.5 -157t93.5 -52q90 0 147 80.5t58 215.5zM610 154q-48 -92 -121.5 -134.5t-183.5 -42.5q-114 0 -173.5 54.5t-59.5 158.5q0 122 82 210t201 92q160 5 208.5 37.5t48.5 162.5q0 129 -36 177.5
t-125 48.5q-90 0 -144.5 -40t-68.5 -116h6q48 0 74 -22t26 -64q0 -43 -33.5 -75t-77.5 -32q-46 0 -74 32.5t-28 86.5q0 105 96.5 182.5t235.5 77.5q140 0 245 -62.5t105 -137.5q0 -17 -6 -155.5t-6 -260.5q0 -169 18 -228t64 -59q47 0 69.5 53t22.5 164q0 36 -2 72.5
t-6 77.5h28q1 -15 4 -46q7 -82 7 -122q0 -141 -45 -204t-144 -63q-81 0 -136.5 47.5t-70.5 129.5zM758 1327h43q-20 -90 -64 -136t-110 -46q-18 0 -37.5 3.5t-40.5 10.5l-117 35q-21 6 -36 9t-23 3q-42 0 -63.5 -19.5t-35.5 -70.5h-43q17 89 61.5 136.5t108.5 47.5
q16 0 38 -4t52 -12l118 -35q19 -5 32.5 -7.5t21.5 -2.5q38 0 61 21.5t34 66.5z" />
    <glyph glyph-name="aring" unicode="&#xe5;" horiz-adv-x="1065" 
d="M508 1427q-63 0 -108.5 -45t-45.5 -108q0 -64 44.5 -108t109.5 -44q64 0 107.5 43.5t43.5 108.5q0 63 -44 108t-107 45zM506 1507q97 0 166 -68.5t69 -164.5q0 -97 -69 -165.5t-166 -68.5q-98 0 -166 68t-68 166t68 165.5t166 67.5zM608 537q-46 -55 -177 -74h-2
q-60 -9 -106.5 -74t-46.5 -151q0 -105 31.5 -157t93.5 -52q90 0 147 80.5t58 215.5zM610 154q-48 -92 -121.5 -134.5t-183.5 -42.5q-114 0 -173.5 54.5t-59.5 158.5q0 123 82.5 210.5t202.5 91.5q159 5 207 37.5t48 162.5q0 129 -36 177.5t-125 48.5q-90 0 -144.5 -40
t-68.5 -116h6q48 0 74 -22t26 -64q0 -43 -33.5 -75t-77.5 -32q-46 0 -74 32.5t-28 86.5q0 105 96.5 182.5t235.5 77.5q140 0 245 -62.5t105 -137.5q0 -17 -6 -155.5t-6 -260.5q0 -169 18 -228t64 -59q47 0 69.5 53t22.5 164q0 36 -2 72.5t-6 77.5h28q1 -15 4 -46
q7 -82 7 -122q0 -141 -45 -204t-144 -63q-81 0 -136.5 47.5t-70.5 129.5z" />
    <glyph glyph-name="ccedilla" unicode="&#xe7;" horiz-adv-x="967" 
d="M874 389v-16q0 -188 -93.5 -294t-260.5 -106q-198 0 -323 127t-125 328q0 212 139 366t328 154q127 0 219 -79t92 -181q0 -58 -32 -94.5t-83 -36.5q-48 0 -81 34t-33 83q0 45 28.5 73.5t73.5 28.5q3 0 10 -1t10 -1q-18 70 -67.5 108t-122.5 38q-128 0 -188 -112t-60 -351
q0 -236 57 -339.5t185 -103.5q144 0 223.5 95.5t79.5 267.5v12h24zM469 0h56v-121q8 1 23 2q29 2 40 2q75 0 120.5 -44.5t45.5 -117.5q0 -75 -56 -118t-155 -43q-57 0 -122 17t-148 54l24 60q73 -33 130.5 -49.5t99.5 -16.5q57 0 87.5 26t30.5 75q0 42 -30 67t-82 25
q-12 0 -27.5 -1.5t-35.5 -4.5z" />
    <glyph glyph-name="eacute" unicode="&#xe9;" horiz-adv-x="995" 
d="M886 477h-583q0 -10 -1 -30t-1 -29q0 -207 64.5 -308.5t195.5 -101.5q135 0 213 88t78 242v10h31q0 -183 -93 -280t-270 -97q-211 0 -329.5 122.5t-118.5 338.5q0 222 125 369t313 147q171 0 269 -122.5t107 -348.5zM684 510v35v59q0 155 -45 235.5t-131 80.5
q-102 0 -151 -98.5t-53 -311.5h380zM695 1294l-273 -233h-49l242 305q23 29 39 40t32 11q23 0 39.5 -15.5t16.5 -37.5q0 -15 -10 -30.5t-37 -39.5z" />
    <glyph glyph-name="egrave" unicode="&#xe8;" horiz-adv-x="995" 
d="M886 477h-583q0 -10 -1 -30t-1 -29q0 -207 64.5 -308.5t195.5 -101.5q135 0 213 88t78 242v10h31q0 -183 -93 -280t-270 -97q-211 0 -329.5 122.5t-118.5 338.5q0 222 125 369t313 147q171 0 269 -122.5t107 -348.5zM684 510v35v59q0 155 -45 235.5t-131 80.5
q-102 0 -151 -98.5t-53 -311.5h380zM381 1366l242 -305h-49l-273 233q-27 24 -37 39.5t-10 30.5q0 22 16.5 37.5t39.5 15.5q16 0 32 -11t39 -40z" />
    <glyph glyph-name="ecircumflex" unicode="&#xea;" horiz-adv-x="995" 
d="M886 477h-583q0 -10 -1 -30t-1 -29q0 -207 64.5 -308.5t195.5 -101.5q135 0 213 88t78 242v10h31q0 -183 -93 -280t-270 -97q-211 0 -329.5 122.5t-118.5 338.5q0 222 125 369t313 147q171 0 269 -122.5t107 -348.5zM684 510v35v59q0 155 -45 235.5t-131 80.5
q-102 0 -151 -98.5t-53 -311.5h380zM451 1409h94l223 -348h-47l-223 231l-223 -231h-47z" />
    <glyph glyph-name="edieresis" unicode="&#xeb;" horiz-adv-x="995" 
d="M886 477h-583q0 -10 -1 -30t-1 -29q0 -207 64.5 -308.5t195.5 -101.5q135 0 213 88t78 242v10h31q0 -183 -93 -280t-270 -97q-211 0 -329.5 122.5t-118.5 338.5q0 222 125 369t313 147q171 0 269 -122.5t107 -348.5zM684 510v35v59q0 155 -45 235.5t-131 80.5
q-102 0 -151 -98.5t-53 -311.5h380zM672 1305q35 0 61.5 -26.5t26.5 -61.5q0 -39 -25.5 -65t-62.5 -26q-38 0 -63 25.5t-25 62.5q0 36 26.5 63.5t61.5 27.5zM324 1305q35 0 61.5 -26.5t26.5 -61.5q0 -38 -26 -64.5t-62 -26.5q-38 0 -63 26t-25 65q0 35 26.5 61.5t61.5 26.5z
" />
    <glyph glyph-name="iacute" unicode="&#xed;" horiz-adv-x="631" 
d="M12 33q107 8 134.5 15.5t31.5 20.5q6 15 12.5 140.5t6.5 282.5q0 31 2 130.5t2 168.5q0 80 -128 85q-36 2 -57 3l1 32q100 3 202 9.5t202 15.5q-7 -209 -11 -378t-4 -251q0 -154 2 -193.5t8 -48.5q7 -9 40.5 -16t118.5 -16v-33q-38 1 -108 4q-127 4 -164 4q-57 0 -221 -6
q-45 -1 -70 -2v33zM512 1294l-273 -233h-49l242 305q23 29 39 40t32 11q23 0 39.5 -15.5t16.5 -37.5q0 -15 -10 -30.5t-37 -39.5z" />
    <glyph glyph-name="igrave" unicode="&#xec;" horiz-adv-x="631" 
d="M12 33q107 8 134.5 15.5t31.5 20.5q6 15 12.5 140.5t6.5 282.5q0 31 2 130.5t2 168.5q0 80 -128 85q-36 2 -57 3l1 32q100 3 202 9.5t202 15.5q-7 -209 -11 -378t-4 -251q0 -154 2 -193.5t8 -48.5q7 -9 40.5 -16t118.5 -16v-33q-38 1 -108 4q-127 4 -164 4q-57 0 -221 -6
q-45 -1 -70 -2v33zM198 1366l242 -305h-49l-273 233q-27 24 -37 39.5t-10 30.5q0 22 16.5 37.5t39.5 15.5q16 0 32 -11t39 -40z" />
    <glyph glyph-name="icircumflex" unicode="&#xee;" horiz-adv-x="631" 
d="M12 33q107 8 134.5 15.5t31.5 20.5q6 15 12.5 140.5t6.5 282.5q0 31 2 130.5t2 168.5q0 80 -128 85q-36 2 -57 3l1 32q100 3 202 9.5t202 15.5q-7 -209 -11 -378t-4 -251q0 -154 2 -193.5t8 -48.5q7 -9 40.5 -16t118.5 -16v-33q-38 1 -108 4q-127 4 -164 4q-57 0 -221 -6
q-45 -1 -70 -2v33zM268 1409h94l223 -348h-47l-223 231l-223 -231h-47z" />
    <glyph glyph-name="idieresis" unicode="&#xef;" horiz-adv-x="631" 
d="M12 33q107 8 134.5 15.5t31.5 20.5q6 15 12.5 140.5t6.5 282.5q0 31 2 130.5t2 168.5q0 80 -128 85q-36 2 -57 3l1 32q100 3 202 9.5t202 15.5q-7 -209 -11 -378t-4 -251q0 -154 2 -193.5t8 -48.5q7 -9 40.5 -16t118.5 -16v-33q-38 1 -108 4q-127 4 -164 4q-57 0 -221 -6
q-45 -1 -70 -2v33zM489 1305q35 0 61.5 -26.5t26.5 -61.5q0 -39 -25.5 -65t-62.5 -26q-38 0 -63 25.5t-25 62.5q0 36 26.5 63.5t61.5 27.5zM141 1305q35 0 61.5 -26.5t26.5 -61.5q0 -38 -26 -64.5t-62 -26.5q-38 0 -63 26t-25 65q0 35 26.5 61.5t61.5 26.5z" />
    <glyph glyph-name="ntilde" unicode="&#xf1;" horiz-adv-x="1186" 
d="M8 29q28 4 70 9q98 13 104 39q6 23 9.5 176.5t3.5 385.5q0 62 -2 133v23q-1 81 -158 90q-17 1 -27 2v33h4q258 8 387 18l9 -231h4q43 121 114 177t181 56q127 0 213 -72.5t86 -158.5v-2l-17 -543q0 -14 -1 -33t-1 -25q0 -57 149 -70q9 -1 13 -1l-1 -35q-29 1 -85 3
q-143 5 -191 5q-27 0 -129 -4q-73 -3 -116 -4v35q92 7 120.5 15t32.5 22q6 18 9.5 136.5t3.5 336.5q0 212 -34 279t-120 67q-135 0 -189.5 -154t-54.5 -610q0 -78 152 -92l-1 -35q-68 3 -136.5 4.5t-137.5 1.5q-19 0 -160 -6q-64 -2 -103 -4zM836 1327h43q-20 -90 -64 -136
t-110 -46q-18 0 -37.5 3.5t-40.5 10.5l-117 35q-21 6 -36 9t-23 3q-42 0 -63.5 -19.5t-35.5 -70.5h-43q17 89 61.5 136.5t108.5 47.5q16 0 38 -4t52 -12l118 -35q19 -5 32.5 -7.5t21.5 -2.5q38 0 61 21.5t34 66.5z" />
    <glyph glyph-name="oacute" unicode="&#xf3;" horiz-adv-x="1049" 
d="M524 920q-110 0 -165.5 -120t-55.5 -360q0 -216 55 -327t162 -111t165 114t58 322q0 233 -56.5 357.5t-162.5 124.5zM541 948q185 0 310.5 -142.5t125.5 -356.5q0 -199 -134 -338.5t-321 -139.5q-196 0 -323 136t-127 342q0 214 133.5 356.5t335.5 142.5zM721 1294
l-273 -233h-49l242 305q23 29 39 40t32 11q23 0 39.5 -15.5t16.5 -37.5q0 -15 -10 -30.5t-37 -39.5z" />
    <glyph glyph-name="ograve" unicode="&#xf2;" horiz-adv-x="1049" 
d="M524 920q-110 0 -165.5 -120t-55.5 -360q0 -216 55 -327t162 -111t165 114t58 322q0 233 -56.5 357.5t-162.5 124.5zM541 948q185 0 310.5 -142.5t125.5 -356.5q0 -199 -134 -338.5t-321 -139.5q-196 0 -323 136t-127 342q0 214 133.5 356.5t335.5 142.5zM407 1366
l242 -305h-49l-273 233q-27 24 -37 39.5t-10 30.5q0 22 16.5 37.5t39.5 15.5q16 0 32 -11t39 -40z" />
    <glyph glyph-name="ocircumflex" unicode="&#xf4;" horiz-adv-x="1049" 
d="M524 920q-110 0 -165.5 -120t-55.5 -360q0 -216 55 -327t162 -111t165 114t58 322q0 233 -56.5 357.5t-162.5 124.5zM541 948q185 0 310.5 -142.5t125.5 -356.5q0 -199 -134 -338.5t-321 -139.5q-196 0 -323 136t-127 342q0 214 133.5 356.5t335.5 142.5zM477 1409h94
l223 -348h-47l-223 231l-223 -231h-47z" />
    <glyph glyph-name="odieresis" unicode="&#xf6;" horiz-adv-x="1049" 
d="M524 920q-110 0 -165.5 -120t-55.5 -360q0 -216 55 -327t162 -111t165 114t58 322q0 233 -56.5 357.5t-162.5 124.5zM541 948q185 0 310.5 -142.5t125.5 -356.5q0 -199 -134 -338.5t-321 -139.5q-196 0 -323 136t-127 342q0 214 133.5 356.5t335.5 142.5zM698 1305
q35 0 61.5 -26.5t26.5 -61.5q0 -39 -25.5 -65t-62.5 -26q-38 0 -63 25.5t-25 62.5q0 36 26.5 63.5t61.5 27.5zM350 1305q35 0 61.5 -26.5t26.5 -61.5q0 -38 -26 -64.5t-62 -26.5q-38 0 -63 26t-25 65q0 35 26.5 61.5t61.5 26.5z" />
    <glyph glyph-name="otilde" unicode="&#xf5;" horiz-adv-x="1049" 
d="M524 920q-110 0 -165.5 -120t-55.5 -360q0 -216 55 -327t162 -111t165 114t58 322q0 233 -56.5 357.5t-162.5 124.5zM541 948q185 0 310.5 -142.5t125.5 -356.5q0 -199 -134 -338.5t-321 -139.5q-196 0 -323 136t-127 342q0 214 133.5 356.5t335.5 142.5zM766 1327h43
q-20 -90 -64 -136t-110 -46q-18 0 -37.5 3.5t-40.5 10.5l-117 35q-21 6 -36 9t-23 3q-42 0 -63.5 -19.5t-35.5 -70.5h-43q17 89 61.5 136.5t108.5 47.5q16 0 38 -4t52 -12l118 -35q19 -5 32.5 -7.5t21.5 -2.5q38 0 61 21.5t34 66.5z" />
    <glyph glyph-name="uacute" unicode="&#xfa;" horiz-adv-x="1159" 
d="M2 870v35q93 3 193 8.5t213 14.5q-7 -206 -10 -367.5t-3 -277.5q0 -163 31 -217t106 -54q119 0 168.5 157.5t49.5 592.5v14q0 78 -17 92.5t-86 14.5q-12 0 -49 -1t-61 -1v32q112 6 215.5 12.5t205.5 14.5v-793q0 -82 13 -98t63 -16q10 0 42 1t54 1v-35q-83 -1 -177.5 -7
t-196.5 -16l-6 271h-7q-31 -145 -96.5 -209t-181.5 -64t-199.5 71t-83.5 144v3l17 569v49q0 39 -15 49t-75 10h-107zM777 1294l-273 -233h-49l242 305q23 29 39 40t32 11q23 0 39.5 -15.5t16.5 -37.5q0 -15 -10 -30.5t-37 -39.5z" />
    <glyph glyph-name="ugrave" unicode="&#xf9;" horiz-adv-x="1159" 
d="M2 870v35q93 3 193 8.5t213 14.5q-7 -206 -10 -367.5t-3 -277.5q0 -163 31 -217t106 -54q119 0 168.5 157.5t49.5 592.5v14q0 78 -17 92.5t-86 14.5q-12 0 -49 -1t-61 -1v32q112 6 215.5 12.5t205.5 14.5v-793q0 -82 13 -98t63 -16q10 0 42 1t54 1v-35q-83 -1 -177.5 -7
t-196.5 -16l-6 271h-7q-31 -145 -96.5 -209t-181.5 -64t-199.5 71t-83.5 144v3l17 569v49q0 39 -15 49t-75 10h-107zM463 1366l242 -305h-49l-273 233q-27 24 -37 39.5t-10 30.5q0 22 16.5 37.5t39.5 15.5q16 0 32 -11t39 -40z" />
    <glyph glyph-name="ucircumflex" unicode="&#xfb;" horiz-adv-x="1159" 
d="M2 870v35q93 3 193 8.5t213 14.5q-7 -206 -10 -367.5t-3 -277.5q0 -163 31 -217t106 -54q119 0 168.5 157.5t49.5 592.5v14q0 78 -17 92.5t-86 14.5q-12 0 -49 -1t-61 -1v32q112 6 215.5 12.5t205.5 14.5v-793q0 -82 13 -98t63 -16q10 0 42 1t54 1v-35q-83 -1 -177.5 -7
t-196.5 -16l-6 271h-7q-31 -145 -96.5 -209t-181.5 -64t-199.5 71t-83.5 144v3l17 569v49q0 39 -15 49t-75 10h-107zM533 1409h94l223 -348h-47l-223 231l-223 -231h-47z" />
    <glyph glyph-name="udieresis" unicode="&#xfc;" horiz-adv-x="1159" 
d="M2 870v35q93 3 193 8.5t213 14.5q-7 -206 -10 -367.5t-3 -277.5q0 -163 31 -217t106 -54q119 0 168.5 157.5t49.5 592.5v14q0 78 -17 92.5t-86 14.5q-12 0 -49 -1t-61 -1v32q112 6 215.5 12.5t205.5 14.5v-793q0 -82 13 -98t63 -16q10 0 42 1t54 1v-35q-83 -1 -177.5 -7
t-196.5 -16l-6 271h-7q-31 -145 -96.5 -209t-181.5 -64t-199.5 71t-83.5 144v3l17 569v49q0 39 -15 49t-75 10h-107zM754 1305q35 0 61.5 -26.5t26.5 -61.5q0 -39 -25.5 -65t-62.5 -26q-38 0 -63 25.5t-25 62.5q0 36 26.5 63.5t61.5 27.5zM406 1305q35 0 61.5 -26.5
t26.5 -61.5q0 -38 -26 -64.5t-62 -26.5q-38 0 -63 26t-25 65q0 35 26.5 61.5t61.5 26.5z" />
    <glyph glyph-name="dagger" unicode="&#x2020;" horiz-adv-x="1110" 
d="M565 922q75 6 176.5 34.5t135.5 28.5q43 0 72.5 -22t29.5 -56q0 -29 -35.5 -52.5t-81.5 -23.5q-26 0 -123 31t-174 39v-10q0 -57 18.5 -111.5t55.5 -109.5q-31 -202 -45 -446.5t-14 -622.5h-45q-2 368 -19.5 637t-50.5 428q39 43 57.5 98.5t19.5 134.5
q-72 -6 -173.5 -35.5t-135.5 -29.5q-43 0 -73.5 22t-30.5 53q0 32 34.5 55t82.5 23q26 0 121.5 -29t175.5 -36q-8 97 -44 210t-36 138q0 54 27.5 95.5t64.5 41.5q34 0 60 -44t26 -101q0 -28 -33.5 -140t-42.5 -200z" />
    <glyph glyph-name="degree" unicode="&#xb0;" horiz-adv-x="674" 
d="M522 1165q0 77 -53.5 131t-130.5 54t-131.5 -54t-54.5 -131q0 -76 54.5 -131t131.5 -55t130.5 54.5t53.5 131.5zM338 1460q123 0 209 -87t86 -210q0 -121 -87 -208t-210 -87t-208 85.5t-85 209.5q0 125 86 211t209 86z" />
    <glyph glyph-name="cent" unicode="&#xa2;" horiz-adv-x="1034" 
d="M541 41v901q-103 -21 -150 -130t-47 -329t46.5 -323.5t150.5 -118.5zM858 414h27v-15q0 -178 -77.5 -281t-223.5 -120v-217h-43l-1 217q-188 5 -303.5 130.5t-115.5 324.5q0 202 121 351.5t299 166.5v178h43v-178q117 -8 197.5 -85.5t80.5 -174.5q0 -58 -31 -93.5
t-79 -35.5q-45 0 -77 34.5t-32 83.5q0 45 27 73t71 28q3 0 10.5 -1t10.5 -1q-17 69 -62.5 106t-115.5 39v-907q133 8 203.5 102.5t70.5 266.5v8z" />
    <glyph glyph-name="sterling" unicode="&#xa3;" horiz-adv-x="1034" 
d="M375 135q-63 48 -116.5 73t-92.5 25q-68 0 -120 -37t-52 -81q0 -50 49 -84.5t119 -34.5q73 0 126.5 35t86.5 104zM412 106q-49 -67 -111 -102t-133 -35q-84 0 -141.5 41.5t-57.5 102.5q0 65 78 116.5t186 51.5q39 0 82 -6.5t93 -17.5q8 26 12 48.5t4 42.5q0 41 -14.5 89
t-53.5 126h-303v49h277q-38 74 -56 143t-18 140q0 194 124 333.5t288 139.5q131 0 221 -111t90 -274q0 -92 -32.5 -144.5t-88.5 -52.5q-47 0 -75.5 34.5t-28.5 90.5q0 58 27.5 92.5t74.5 34.5q20 0 40 -11t36 -31q-3 158 -76 250.5t-194 92.5q-93 0 -151 -82t-58 -217
q0 -100 44 -246.5t52 -181.5h282v-49h-278v-31q0 -76 -21 -149t-63 -145q92 -37 151.5 -51.5t112.5 -14.5q105 0 158 56t53 167v41h27q0 -19 1 -44.5t1 -33.5q0 -188 -73 -296.5t-200 -108.5q-105 0 -262 132q-17 14 -26 21z" />
    <glyph glyph-name="section" unicode="&#xa7;" horiz-adv-x="1110" 
d="M801 397q0 45 -30.5 93.5t-98.5 111.5q-79 73 -140 105t-116 32q-51 0 -83 -31.5t-32 -80.5q0 -53 39 -107.5t127 -122.5q71 -55 121.5 -79.5t91.5 -24.5q52 0 86.5 30t34.5 74zM371 -279q23 -40 60 -60.5t87 -20.5q91 0 149 59.5t58 153.5q0 125 -223 318l-24 21
q-140 122 -190 203.5t-50 169.5q0 95 52 153t136 58q12 0 56 -8q6 -1 10 -2q-94 73 -144.5 163.5t-50.5 184.5q0 124 75 205.5t187 81.5q110 0 180 -60t70 -151q0 -49 -26 -78t-70 -29q-35 0 -58.5 25.5t-23.5 62.5q0 35 24 63t70 46q-21 41 -62 62.5t-96 21.5
q-81 0 -138.5 -58t-57.5 -141q0 -76 58.5 -153.5t199.5 -182.5q137 -102 189 -181t52 -173q0 -97 -52.5 -157t-135.5 -60q-12 0 -28.5 2.5t-36.5 7.5q99 -80 146.5 -166.5t47.5 -185.5q0 -136 -82.5 -224.5t-206.5 -88.5q-101 0 -168 58.5t-67 145.5q0 58 32 97t78 39
q40 0 65 -27t25 -70q0 -47 -29 -78t-87 -47z" />
    <glyph glyph-name="bullet" unicode="&#x2022;" horiz-adv-x="1208" 
d="M307 762q0 123 87 209t210 86q122 0 208.5 -86.5t86.5 -208.5t-87.5 -209.5t-209.5 -87.5q-123 0 -209 87t-86 210z" />
    <glyph glyph-name="paragraph" unicode="&#xb6;" 
d="M969 1380h-117v-1380h-129v1380h-168v-1380h-131v784q-168 6 -268.5 101t-100.5 245q0 158 107 253.5t284 95.5h523v-99z" />
    <glyph glyph-name="germandbls" unicode="&#xdf;" horiz-adv-x="1110" 
d="M12 6v33q160 11 175.5 28.5t17.5 137.5l6 670q2 262 101.5 401t283.5 139q143 0 237.5 -94.5t94.5 -237.5q0 -136 -82 -210.5t-244 -84.5v-10q9 0 23.5 1t21.5 1q187 0 285 -95.5t98 -276.5q0 -180 -100 -301t-246 -121q-88 0 -147.5 50t-59.5 122q0 50 30.5 83t76.5 33
q43 0 69.5 -26.5t26.5 -69.5q0 -41 -22.5 -70t-65.5 -42q18 -25 37 -36.5t43 -11.5q72 0 103.5 94t31.5 320q0 193 -60 261.5t-221 68.5h-32v28q132 2 187.5 68.5t55.5 226.5q0 148 -43 223.5t-127 75.5q-79 0 -114.5 -71t-36.5 -235l-11 -1076q-57 3 -118 4.5t-125 1.5
q-25 0 -74.5 -1t-75.5 -1z" />
    <glyph glyph-name="registered" unicode="&#xae;" horiz-adv-x="1683" 
d="M748 981v-258q14 -1 27 -1.5t26 -0.5q100 0 154.5 44t54.5 126q0 70 -46.5 114t-121.5 44q-47 0 -70.5 -17.5t-23.5 -50.5zM866 1096q145 0 232.5 -55t87.5 -142q0 -84 -65.5 -133t-217.5 -76q96 -25 147.5 -73t69.5 -127q6 -24 10 -67q9 -91 54 -91q29 0 44 34t15 99h49
v-23q0 -85 -43 -129.5t-127 -44.5q-46 0 -80 14.5t-53 43.5q-24 39 -27 111.5t-8 93.5q-16 74 -60.5 109.5t-121.5 35.5h-24v-246q0 -49 22.5 -69.5t85.5 -26.5v-47h-389v46q64 4 88.5 24.5t24.5 72.5v520q0 52 -23.5 72t-89.5 25v49h399zM1464 678q0 122 -48.5 240
t-135.5 206q-86 86 -200 133.5t-236 47.5q-126 0 -241 -48t-202 -137q-89 -90 -135.5 -203t-46.5 -239t47.5 -239.5t136.5 -202.5q91 -91 201.5 -137t237.5 -46q126 0 238.5 47t199.5 136q89 90 136.5 204.5t47.5 237.5zM844 1401q144 0 279 -57t235 -160
q98 -102 151.5 -235.5t53.5 -278.5q0 -138 -59.5 -272.5t-166.5 -239.5q-101 -100 -228 -149.5t-282 -49.5q-135 0 -264 54.5t-229 154.5q-105 104 -159 234t-54 276q0 143 54.5 275t156.5 235q102 102 235 157.5t277 55.5z" />
    <glyph glyph-name="copyright" unicode="&#xa9;" horiz-adv-x="1683" 
d="M1165 1100l2 -320h-47q-32 134 -102 203.5t-172 69.5q-116 0 -176 -94t-60 -275q0 -184 65 -281.5t189 -97.5q82 0 151 43.5t126 130.5l43 -26q-63 -108 -150 -160.5t-200 -52.5q-177 0 -297.5 124t-120.5 306q0 184 119.5 309t295.5 125q80 0 154 -33t78 -33
q28 0 41.5 14t19.5 48h41zM1464 678q0 124 -48 241.5t-136 204.5q-86 86 -200 133.5t-236 47.5q-126 0 -241 -48t-202 -137q-88 -90 -135 -203.5t-47 -238.5q0 -126 47.5 -239.5t136.5 -202.5q91 -91 201.5 -137t237.5 -46q126 0 238.5 47t199.5 136q88 89 136 204.5
t48 237.5zM844 1401q140 0 272.5 -55.5t233.5 -155.5q101 -102 157 -235.5t56 -276.5q0 -142 -55.5 -274t-157.5 -236q-101 -102 -231 -155.5t-277 -53.5q-145 0 -274.5 53t-233.5 156q-104 104 -158.5 234.5t-54.5 275.5q0 143 54 274.5t157 235.5q102 102 235 157.5
t277 55.5z" />
    <glyph glyph-name="trademark" unicode="&#x2122;" horiz-adv-x="1683" 
d="M969 1448l135 -381l137 381h189v-27l-28 -2q-19 -3 -29.5 -16.5t-10.5 -36.5v-375q0 -23 10.5 -36.5t30.5 -16.5l27 -4v-29h-246v29l30 4q20 2 29.5 15.5t9.5 37.5v375l-163 -463h-27l-170 469v-381q0 -24 10 -38t29 -15l35 -4v-29h-197v29l33 4q20 2 30.5 15t10.5 36
v373q0 23 -11 37t-30 16l-33 2v31h199zM692 1448l10 -188h-30q-8 80 -40 116.5t-93 36.5h-11v-422q0 -23 10.5 -37t28.5 -16l31 -4v-29h-260v29l32 4q19 2 28.5 15.5t9.5 37.5v422h-15q-59 0 -91 -37.5t-40 -115.5h-29l11 188h448z" />
    <glyph glyph-name="acute" unicode="&#xb4;" 
d="M709 1294l-273 -233h-49l242 305q23 29 39 40t32 11q23 0 39.5 -15.5t16.5 -37.5q0 -15 -10 -30.5t-37 -39.5z" />
    <glyph glyph-name="dieresis" unicode="&#xa8;" 
d="M686 1305q35 0 61.5 -26.5t26.5 -61.5q0 -39 -25.5 -65t-62.5 -26q-38 0 -63 25.5t-25 62.5q0 36 26.5 63.5t61.5 27.5zM338 1305q35 0 61.5 -26.5t26.5 -61.5q0 -38 -26 -64.5t-62 -26.5q-38 0 -63 26t-25 65q0 35 26.5 61.5t61.5 26.5z" />
    <glyph glyph-name="notequal" unicode="&#x2260;" horiz-adv-x="1706" 
d="M1327 1112l-170 -215h295v-162h-403l-197 -250h600v-161h-707l-249 -314l-123 99l170 215h-289v161h393l199 250h-592v162h700l250 315z" />
    <glyph glyph-name="AE" unicode="&#xc6;" horiz-adv-x="2337" 
d="M678 678h428v194q0 81 -1.5 193.5t-4.5 254.5l-53 9zM20 35h9q128 0 210 54t169 204l444 764q38 65 53 99.5t15 55.5q0 71 -69.5 100t-244.5 29h-24v33q149 -2 295.5 -3t349.5 -1q333 0 517.5 1t352.5 3v-536h-33q-20 185 -57.5 283t-101.5 147q-51 38 -129 53.5
t-277 15.5h-33q-59 0 -78.5 -5.5t-23.5 -20.5q-6 -22 -9 -163t-3 -402q14 -2 30 -2.5t48 -0.5q170 0 231.5 73.5t69.5 289.5h32v-791h-32q-10 226 -68 310t-201 84q-1 0 -37.5 -1t-72.5 -1q0 -294 3 -452t9 -179q5 -19 44.5 -26t203.5 -7q268 0 371.5 108.5t148.5 419.5h35
q0 -18 -1 -66t-1 -77v-221q0 -66 0.5 -113t0.5 -94q-35 0 -303.5 3t-500.5 3q-123 0 -254 -1.5t-268 -4.5v39q32 2 85 5q177 11 177 136v6q0 10 1 53q3 203 3 398l-461 -6l-133 -240q-39 -69 -59.5 -122.5t-20.5 -88.5q0 -74 56 -106.5t184 -32.5v-39q-13 0 -38 1
q-201 3 -286 3q-38 0 -126.5 -2t-201.5 -6v37z" />
    <glyph glyph-name="Oslash" unicode="&#xd8;" horiz-adv-x="1460" 
d="M426 299l580 875q-35 95 -106 149.5t-161 54.5q-179 0 -273.5 -169t-94.5 -490q0 -119 13.5 -224.5t41.5 -195.5zM442 248q45 -124 119 -187t176 -63q174 0 265.5 164t91.5 477q0 143 -17 264.5t-51 220.5zM160 -88l151 219q-107 101 -166 244t-59 301q0 152 58.5 298.5
t160.5 250.5q90 91 200.5 137.5t237.5 46.5q97 0 181.5 -28.5t169.5 -90.5l120 178l39 -24l-123 -182q122 -121 184 -265.5t62 -308.5q0 -302 -193 -512.5t-466 -210.5q-98 0 -189.5 34t-181.5 103l-151 -217z" />
    <glyph glyph-name="infinity" unicode="&#x221e;" horiz-adv-x="1706" 
d="M928 559q45 -81 109.5 -122.5t146.5 -41.5q97 0 159 61.5t62 157.5q0 95 -57 158.5t-142 63.5q-78 0 -142 -63.5t-136 -213.5zM780 662q-46 81 -111 123t-145 42q-98 0 -159.5 -62t-61.5 -159q0 -94 56.5 -156.5t140.5 -62.5q80 0 144.5 62.5t135.5 212.5zM844 750
q71 139 149.5 200.5t184.5 61.5q127 0 222 -116t95 -284q0 -178 -84.5 -288.5t-220.5 -110.5q-92 0 -166.5 57.5t-161.5 200.5q-71 -135 -148.5 -197.5t-172.5 -62.5q-137 0 -232.5 114.5t-95.5 284.5q0 179 85 289.5t220 110.5q93 0 168.5 -60t157.5 -200z" />
    <glyph glyph-name="plusminus" unicode="&#xb1;" horiz-adv-x="1706" 
d="M1452 182v-168h-1198v168h1198zM938 1206v-334h514v-165h-514v-334h-170v334h-514v165h514v334h170z" />
    <glyph glyph-name="lessequal" unicode="&#x2264;" horiz-adv-x="1706" 
d="M1446 178v-166h-1186v166h1186zM1446 1047l-889 -287l889 -287v-176l-1186 389v145l1186 392v-176z" />
    <glyph glyph-name="greaterequal" unicode="&#x2265;" horiz-adv-x="1706" 
d="M1448 178v-166h-1188v166h1188zM1446 831v-145l-1186 -389v176l891 287l-891 287v176z" />
    <glyph glyph-name="yen" unicode="&#xa5;" horiz-adv-x="1186" 
d="M195 33h4q256 12 266 43q5 15 7.5 67t2.5 238v203h-412v32h398l-127 269h-271v33h254l-124 264q-43 91 -199 99q-38 2 -59 3v31q106 -3 189 -4.5t146 -1.5q78 0 168.5 1.5t191.5 4.5v-31q-56 -1 -114.5 -6.5t-122.5 -15.5l291 -646l197 437q17 38 24.5 65t7.5 49
q0 57 -43.5 85.5t-152.5 39.5v27q15 0 45 -1q121 -3 170 -3q47 0 111.5 2.5t164.5 7.5v-29q-100 -10 -160 -55t-110 -151l-82 -172h268v-33h-282l-131 -269h413v-32l-428 -1q-1 -47 -1.5 -93t-0.5 -111q0 -162 3 -227.5t10 -78.5q9 -15 59.5 -23.5t212.5 -16.5l-1 -33
q-123 3 -228.5 4.5t-192.5 1.5q-42 0 -132.5 -1.5t-229.5 -4.5v33z" />
    <glyph glyph-name="mu" unicode="&#xb5;" horiz-adv-x="1184" 
d="M68 373l108 512h207l-100 -467q-10 -46 -15.5 -82t-5.5 -57q0 -64 37 -101t102 -37q87 0 139 53.5t76 167.5l111 523h209l-113 -533l-3 -15q-15 -70 -15 -110q0 -42 22.5 -66t63.5 -24q40 0 71 21.5t58 68.5q9 17 23 49q25 60 51 60q11 0 16.5 -7.5t5.5 -23.5
q0 -28 -17 -85.5t-40 -100.5q-41 -72 -95.5 -108t-123.5 -36q-84 0 -129.5 55t-47.5 156q-42 -104 -109.5 -157.5t-156.5 -53.5q-99 0 -156.5 58t-68.5 168q-23 -124 -48 -315q-39 -306 -134 -306q-47 0 -73 26.5t-26 74.5q0 52 69 282.5t108 409.5z" />
    <glyph glyph-name="partialdiff" unicode="&#x2202;" horiz-adv-x="1075" 
d="M758 639q17 103 26 186.5t9 147.5q0 120 -29 174.5t-92 54.5q-62 0 -147 -58.5t-122 -58.5t-64.5 26t-27.5 60q0 66 79 115t200 49q176 0 287.5 -159t111.5 -422q0 -338 -150 -558.5t-376 -220.5q-161 0 -266 112t-105 286q0 193 113 322.5t278 129.5q101 0 167.5 -45
t107.5 -141zM705 504q0 116 -41 178.5t-117 62.5q-105 0 -174.5 -131.5t-69.5 -337.5q0 -116 40.5 -177.5t117.5 -61.5q105 0 174.5 132.5t69.5 334.5z" />
    <glyph glyph-name="summation" unicode="&#x2211;" horiz-adv-x="1499" 
d="M18 1473h1199l120 -394h-82l-81 238q-15 43 -50.5 60.5t-130.5 17.5h-628l745 -809v-41l-784 -709h893q47 0 64.5 13.5t29.5 50.5l69 229h84l-159 -522h-1289v55l875 787l-875 964v60z" />
    <glyph glyph-name="product" unicode="&#x220f;" horiz-adv-x="1673" 
d="M51 1473h1569v-78h-190v-1710h190v-78h-643v78h184v1710h-653v-1710h186v-78h-643v78h189v1710h-189v78z" />
    <glyph glyph-name="pi" unicode="&#x3c0;" horiz-adv-x="1427" 
d="M1352 653h-342q-12 -73 -17.5 -147t-5.5 -152v-147q0 -129 -33 -189.5t-102 -60.5q-49 0 -74.5 30t-25.5 87q0 64 74.5 253.5t107.5 325.5h-381q-12 -68 -18.5 -141t-6.5 -152q0 -4 1 -21q1 -67 1 -130q0 -129 -33.5 -190.5t-103.5 -61.5q-48 0 -73 29t-25 86
q0 65 75 254.5t107 326.5h-139q-5 0 -15.5 -1t-15.5 -1q-106 0 -153 -36.5t-68 -135.5h-59q41 227 128.5 316.5t266.5 89.5h981z" />
    <glyph glyph-name="integral" unicode="&#x222b;" horiz-adv-x="1120" 
d="M324 -258q106 0 122 692q2 81 3 123q13 538 113 766.5t312 228.5q87 0 143 -45.5t56 -111.5q0 -61 -34 -95t-95 -34q-45 0 -74.5 22.5t-40.5 65.5q-4 17 -6 45q-3 40 -26 41q-101 0 -119 -615q-5 -161 -8 -249q-10 -280 -30.5 -427t-59.5 -245q-55 -136 -139.5 -205.5
t-194.5 -69.5q-87 0 -142 44t-55 112q0 63 35.5 97t99.5 34q39 0 66 -18t41 -54q6 -16 9 -59t24 -43z" />
    <glyph glyph-name="ordfeminine" unicode="&#xaa;" horiz-adv-x="799" 
d="M457 1108q-34 -36 -130 -50l-5 -1q-45 -6 -80 -51.5t-35 -106.5q0 -73 23.5 -109t70.5 -36q67 0 109.5 55.5t44.5 151.5zM459 842q-37 -65 -92.5 -95t-137.5 -30q-85 0 -130.5 38.5t-45.5 110.5q0 86 63 148t150 63q122 4 157.5 26.5t35.5 115.5q0 89 -27.5 123t-93.5 34
q-67 0 -108 -28t-52 -82h4q37 0 56.5 -15.5t19.5 -44.5t-25 -51t-57 -22q-36 0 -57 22t-21 59q0 74 72.5 128.5t177.5 54.5q104 0 183 -43.5t79 -96.5q0 -12 -5 -109t-5 -183q0 -116 14 -158.5t48 -42.5q35 0 52 37t17 117q0 21 -1.5 46t-4.5 58h23q0 -11 3 -53t3 -66
q0 -98 -33.5 -142t-108.5 -44q-60 0 -101.5 33.5t-51.5 91.5z" />
    <glyph glyph-name="ordmasculine" unicode="&#xba;" horiz-adv-x="786" 
d="M393 1376q-83 0 -124.5 -83t-41.5 -251q0 -151 41.5 -229t122.5 -78q79 0 122.5 79.5t43.5 225.5q0 164 -42 250t-122 86zM406 1397q139 0 233 -100t94 -250q0 -140 -100.5 -237t-241.5 -97q-146 0 -242 95.5t-96 238.5q0 150 101 250t252 100z" />
    <glyph glyph-name="Omega" unicode="&#x3a9;" horiz-adv-x="1569" 
d="M1122 221h301l54 168h67l-117 -389h-516q111 218 167.5 434.5t56.5 423.5q0 278 -87.5 417.5t-261.5 139.5t-262 -139t-88 -416q0 -205 57 -421.5t169 -438.5h-519l-116 389h67l53 -168h302v23q-158 127 -240 283.5t-82 330.5q0 277 188 458t471 181q284 0 471 -180.5
t187 -458.5q0 -176 -82 -332t-240 -282v-23z" />
    <glyph glyph-name="ae" unicode="&#xe6;" horiz-adv-x="1475" 
d="M805 498h356v43v43q0 170 -41.5 252t-128.5 82q-88 0 -134.5 -105.5t-51.5 -314.5zM614 518q-42 -62 -143 -68q-41 -2 -62 -8q-70 -18 -109.5 -82.5t-39.5 -160.5q0 -84 37.5 -129t105.5 -45q108 0 159.5 93t51.5 285v115zM614 174q-31 -100 -101.5 -149.5t-180.5 -49.5
q-120 0 -190 61.5t-70 166.5q0 133 100 206.5t285 73.5h39q42 0 72.5 23.5t45.5 68.5q1 26 2.5 56.5t1.5 34.5q0 143 -38 197.5t-136 54.5q-85 0 -149.5 -44t-99.5 -124q14 7 28.5 10.5t28.5 3.5q40 0 66 -25.5t26 -64.5q0 -47 -30 -77t-76 -30q-48 0 -77.5 32.5t-29.5 84.5
q0 105 96.5 183.5t231.5 78.5q89 0 154 -32t112 -99q58 68 126.5 99.5t156.5 31.5q169 0 261 -124.5t95 -356.5h-557q-1 -16 -1.5 -34.5t-0.5 -53.5q0 -190 56 -276.5t179 -86.5q130 0 206.5 85.5t88.5 244.5h29q-12 -185 -107 -277t-274 -92q-130 0 -221 49.5t-148 149.5z
" />
    <glyph glyph-name="oslash" unicode="&#xf8;" horiz-adv-x="1049" 
d="M336 152q26 -75 72.5 -112.5t111.5 -37.5q110 0 171 114t61 322q0 74 -8.5 144t-24.5 139zM702 768q-24 75 -69 113.5t-109 38.5q-112 0 -169.5 -117t-57.5 -344q0 -79 6.5 -140.5t20.5 -119.5zM121 -94l112 168q-76 64 -118.5 162.5t-42.5 212.5q0 214 133.5 356.5
t335.5 142.5q69 0 127 -18.5t108 -57.5l94 144l33 -25l-94 -145q83 -72 125.5 -172.5t42.5 -224.5q0 -199 -134 -338.5t-321 -139.5q-77 0 -137.5 18t-118.5 58l-110 -164z" />
    <glyph glyph-name="questiondown" unicode="&#xbf;" horiz-adv-x="930" 
d="M688 1247q0 -50 -34 -87.5t-81 -37.5q-49 0 -81.5 36t-32.5 89q0 52 34 88.5t78 36.5q46 0 81.5 -37.5t35.5 -87.5zM598 1034v-18q0 -130 -27.5 -202t-97.5 -130q-97 -83 -122 -154.5t-25 -201.5q0 -175 42.5 -252.5t137.5 -77.5q89 0 151 67t62 168q-15 -9 -28 -13.5
t-27 -4.5q-47 0 -75 35.5t-28 93.5q0 53 29 85t78 32q48 0 80 -49.5t32 -128.5q0 -138 -84 -227t-217 -89q-149 0 -245.5 115t-96.5 291q0 127 41.5 199t158.5 130q19 9 55 25q177 78 177 272v35h29z" />
    <glyph glyph-name="exclamdown" unicode="&#xa1;" horiz-adv-x="508" 
d="M360 1247q0 -50 -34 -87.5t-82 -37.5t-80.5 36t-32.5 89q0 50 35 87.5t80 37.5t79.5 -37.5t34.5 -87.5zM234 1018h28v-23q0 -222 48 -471.5t48 -285.5q0 -108 -37 -189.5t-79 -81.5q-38 0 -72.5 79t-34.5 171q0 29 48 292.5t51 508.5z" />
    <glyph glyph-name="logicalnot" unicode="&#xac;" horiz-adv-x="1706" 
d="M1452 862v-502h-166v336h-1032v166h1198z" />
    <glyph glyph-name="radical" unicode="&#x221a;" horiz-adv-x="1323" 
d="M1325 1675v-110h-108l-594 -1606h-82l-316 872l-131 -49l-28 95l305 108l247 -688l510 1378h197z" />
    <glyph glyph-name="florin" unicode="&#x192;" horiz-adv-x="1034" 
d="M596 825h238v-49h-238v-350q0 -187 -17 -280.5t-57 -161.5q-47 -85 -123.5 -134t-158.5 -49q-89 0 -146 47.5t-57 118.5q0 51 30.5 84t75.5 33q41 0 65.5 -26t24.5 -68q0 -37 -20.5 -64.5t-60.5 -44.5q18 -23 40 -34t50 -11q85 0 116 79.5t31 379.5v481h-217v49h217v29
q0 221 102 357.5t259 136.5q99 0 161 -52t62 -135q0 -46 -32.5 -79t-78.5 -33q-43 0 -69.5 26.5t-26.5 69.5q0 40 22 69.5t64 45.5q-17 27 -46 42t-65 15q-81 0 -113 -82.5t-32 -323.5v-86z" />
    <glyph glyph-name="approxequal" unicode="&#x2248;" horiz-adv-x="1706" 
d="M1530 406q-107 -73 -200 -106.5t-189 -33.5q-89 0 -279.5 66.5t-298.5 66.5q-84 0 -173.5 -36t-211.5 -121v184q112 75 206.5 110t180.5 35q118 0 309 -67.5t277 -67.5q83 0 172 36.5t207 119.5v-186zM1530 795q-109 -75 -201.5 -108.5t-187.5 -33.5q-88 0 -278.5 67.5
t-299.5 67.5q-82 0 -170 -35t-215 -122v184q109 73 205 109.5t182 36.5q120 0 310 -68t268 -68q92 0 181 35t206 119v-184z" />
    <glyph glyph-name="Delta" unicode="&#x2206;" horiz-adv-x="1350" 
d="M958 250l-380 899l-385 -899h765zM705 1497l641 -1497h-1340l651 1497h48z" />
    <glyph glyph-name="guillemotleft" unicode="&#xab;" horiz-adv-x="1067" 
d="M494 455l415 391l21 -17l-225 -376l229 -365l-25 -22zM72 455l415 391l21 -17l-227 -376l231 -365l-25 -22z" />
    <glyph glyph-name="guillemotright" unicode="&#xbb;" horiz-adv-x="1067" 
d="M995 457l-415 -391l-21 16l225 379l-229 364l25 21zM573 457l-415 -391l-21 16l225 379l-229 364l25 21z" />
    <glyph glyph-name="ellipsis" unicode="&#x2026;" horiz-adv-x="2048" 
d="M209 111q0 51 34.5 89t82.5 38q47 0 80.5 -37.5t33.5 -89.5t-34 -88.5t-80 -36.5q-45 0 -81 37.5t-36 87.5zM891 111q0 51 34.5 89t82.5 38q47 0 80.5 -37.5t33.5 -89.5t-34 -88.5t-80 -36.5q-45 0 -81 37.5t-36 87.5zM1575 111q0 51 34.5 89t82.5 38q47 0 80.5 -37.5
t33.5 -89.5t-34 -88.5t-80 -36.5q-45 0 -81 37.5t-36 87.5z" />
    <glyph glyph-name="nonbreakingspace" unicode="&#xa0;" horiz-adv-x="1034" 
 />
    <glyph glyph-name="Agrave" unicode="&#xc0;" horiz-adv-x="1481" 
d="M436 522h363l-183 525zM33 0v39q109 3 174 67.5t127 243.5l368 1057h48q147 -441 279 -811t188 -504q17 -41 139 -48q53 -2 87 -5v-39q-129 3 -223 4.5t-151 1.5q-69 0 -167.5 -1.5t-229.5 -4.5v39q118 4 179 8.5t107 9.5l-141 412h-395l-49 -139q-15 -43 -23 -79.5
t-8 -64.5q0 -77 48 -109.5t171 -37.5v-39q-87 3 -156 4.5t-116 1.5q-39 0 -103.5 -1.5t-152.5 -4.5zM624 1827l242 -305h-49l-273 233q-27 24 -37 39.5t-10 30.5q0 22 16.5 37.5t39.5 15.5q16 0 32 -11t39 -40z" />
    <glyph glyph-name="Atilde" unicode="&#xc3;" horiz-adv-x="1481" 
d="M436 522h363l-183 525zM33 0v39q109 3 174 67.5t127 243.5l368 1057h48q147 -441 279 -811t188 -504q17 -41 139 -48q53 -2 87 -5v-39q-129 3 -223 4.5t-151 1.5q-69 0 -167.5 -1.5t-229.5 -4.5v39q118 4 179 8.5t107 9.5l-141 412h-395l-49 -139q-15 -43 -23 -79.5
t-8 -64.5q0 -77 48 -109.5t171 -37.5v-39q-87 3 -156 4.5t-116 1.5q-39 0 -103.5 -1.5t-152.5 -4.5zM983 1788h43q-20 -90 -64 -136t-110 -46q-18 0 -37.5 3.5t-40.5 10.5l-117 35q-21 6 -36 9t-23 3q-42 0 -63.5 -19.5t-35.5 -70.5h-43q17 89 61.5 136.5t108.5 47.5
q16 0 38 -4t52 -12l118 -35q19 -5 32.5 -7.5t21.5 -2.5q38 0 61 21.5t34 66.5z" />
    <glyph glyph-name="Otilde" unicode="&#xd5;" horiz-adv-x="1460" 
d="M739 1372q-177 0 -270.5 -168t-93.5 -487q0 -332 95 -522.5t259 -190.5q177 0 266.5 160t89.5 475q0 350 -90.5 541.5t-255.5 191.5zM717 -35q-122 0 -240.5 55t-206.5 152q-86 96 -135 228.5t-49 271.5q0 155 58 301.5t161 251.5q90 91 200.5 137.5t237.5 46.5
q99 0 195.5 -36t177.5 -103q121 -101 190.5 -256.5t69.5 -327.5q0 -301 -193 -511t-466 -210zM973 1788h43q-20 -90 -64 -136t-110 -46q-18 0 -37.5 3.5t-40.5 10.5l-117 35q-21 6 -36 9t-23 3q-42 0 -63.5 -19.5t-35.5 -70.5h-43q17 89 61.5 136.5t108.5 47.5q16 0 38 -4
t52 -12l118 -35q19 -5 32.5 -7.5t21.5 -2.5q38 0 61 21.5t34 66.5z" />
    <glyph glyph-name="OE" unicode="&#x152;" horiz-adv-x="2292" 
d="M795 1343q-216 0 -326.5 -170.5t-110.5 -502.5q0 -317 107.5 -478t316.5 -161q164 0 222.5 98.5t58.5 517.5v58q0 319 -10.5 424.5t-36.5 144.5q-23 34 -79.5 51.5t-141.5 17.5zM2121 0q-201 1 -469.5 4.5t-336.5 3.5q-129 0 -299.5 -5t-212.5 -5q-168 0 -274 34
t-199 113q-122 104 -183 234t-61 287q0 135 49 260.5t141 226.5q106 114 238.5 169.5t300.5 55.5q19 0 89 -2q243 -8 450 -8q141 0 386.5 3t311.5 3v-536h-35q-32 303 -126.5 401t-374.5 98q-126 0 -158 -5.5t-39 -20.5q-9 -18 -12 -472v-93q14 -2 30 -2.5t47 -0.5
q171 0 232.5 73.5t69.5 289.5h32v-791h-32q-10 226 -68 310t-201 84q-1 0 -37.5 -1t-72.5 -1q0 -332 2 -471.5t8 -159.5q5 -19 45 -26t205 -7q268 0 371.5 108.5t148.5 419.5h33v-143v-221q0 -66 0.5 -113t0.5 -94z" />
    <glyph glyph-name="oe" unicode="&#x153;" horiz-adv-x="1606" 
d="M711 455q0 247 -45.5 350.5t-149.5 103.5q-115 0 -168 -113t-53 -362q0 -235 47 -333.5t158 -98.5q112 0 161.5 105.5t49.5 347.5zM926 510h370q1 20 1.5 37.5t0.5 34.5q0 170 -45 255t-137 85q-95 0 -141 -100t-49 -312zM813 133q-62 -79 -141 -119.5t-170 -40.5
q-176 0 -303 136.5t-127 328.5q0 202 135.5 351t320.5 149q99 0 172.5 -47t122.5 -143q49 101 126.5 149.5t191.5 48.5q164 0 255.5 -122t96.5 -348l-569 -1v-53q0 -208 61 -308t189 -100q133 0 208.5 91.5t81.5 261.5h29q-6 -189 -95.5 -288t-252.5 -99q-109 0 -183.5 34.5
t-148.5 118.5z" />
    <glyph glyph-name="endash" unicode="&#x2013;" 
d="M1038 532v-116h-1052v116h1052z" />
    <glyph glyph-name="emdash" unicode="&#x2014;" horiz-adv-x="2048" 
d="M-14 416v116h2076v-116h-2076z" />
    <glyph glyph-name="quotedblleft" unicode="&#x201c;" horiz-adv-x="1010" 
d="M870 1649l17 -17q-86 -73 -130.5 -165t-45.5 -199q19 11 38 16.5t37 5.5q46 0 71.5 -28t25.5 -78q0 -49 -32 -82t-79 -33q-62 0 -98.5 49.5t-36.5 134.5q0 108 61.5 212t171.5 184zM371 1632q-86 -73 -129.5 -164.5t-44.5 -199.5q20 12 37.5 17t35.5 5q45 0 71 -28
t26 -78q0 -49 -32 -82t-79 -33q-62 0 -97.5 49.5t-35.5 134.5q0 109 60.5 213t170.5 183z" />
    <glyph glyph-name="quotedblright" unicode="&#x201d;" horiz-adv-x="1010" 
d="M621 924q86 60 128 132.5t43 163.5q-14 -8 -28 -12t-31 -4q-38 0 -63 28.5t-25 72.5t30 74t75 30q55 0 86.5 -41t31.5 -115q0 -100 -61.5 -191.5t-173.5 -156.5zM127 924q86 59 127 131t42 165q-14 -8 -27 -12t-29 -4q-38 0 -63 28.5t-25 72.5q0 45 29 74.5t73 29.5
q56 0 88.5 -41.5t32.5 -114.5q0 -100 -61.5 -191.5t-174.5 -156.5z" />
    <glyph glyph-name="quoteleft" unicode="&#x2018;" horiz-adv-x="516" 
d="M371 1632q-86 -73 -129.5 -164.5t-44.5 -199.5q20 12 37.5 17t35.5 5q46 0 72.5 -28.5t26.5 -77.5q0 -48 -33 -81.5t-80 -33.5q-62 0 -97.5 49.5t-35.5 134.5q0 109 60.5 213t170.5 183z" />
    <glyph glyph-name="quoteright" unicode="&#x2019;" horiz-adv-x="516" 
d="M127 924q86 59 127 131t42 165q-14 -8 -27 -12t-29 -4q-38 0 -63 28.5t-25 72.5q0 45 29 74.5t73 29.5q56 0 88.5 -41.5t32.5 -114.5q0 -100 -61.5 -191.5t-174.5 -156.5z" />
    <glyph glyph-name="divide" unicode="&#xf7;" horiz-adv-x="1706" 
d="M854 367q57 0 97 -40.5t40 -97.5q0 -56 -39.5 -95.5t-97.5 -39.5t-97.5 39t-39.5 96t40.5 97.5t96.5 40.5zM1452 694v-166h-1198v166h1198zM854 1128q57 0 97 -41t40 -98q0 -56 -39.5 -95.5t-97.5 -39.5t-97.5 39t-39.5 96t40.5 98t96.5 41z" />
    <glyph glyph-name="lozenge" unicode="&#x25ca;" horiz-adv-x="1012" 
d="M506 1409l-385 -817l385 -825l385 825zM506 1653l500 -1061l-500 -1069l-500 1069z" />
    <glyph glyph-name="ydieresis" unicode="&#xff;" horiz-adv-x="977" 
d="M483 -37l-317 846q-1 3 -3 7q-26 71 -159 75v34q91 -2 187.5 -3.5t195.5 -1.5q55 0 81.5 1t49.5 4v-34q-27 -2 -69 -3q-88 -3 -89 -22q0 -7 12 -36q2 -5 3 -7l207 -553h6l145 435q9 26 14 51.5t5 46.5q0 48 -30 69.5t-105 24.5l-1 29q4 0 13 -1q126 -3 186 -3
q24 0 51 0.5t76 2.5v-30h-14q-110 0 -224 -359q-40 -124 -65 -198q-28 -84 -75 -233q-158 -506 -345 -506q-89 0 -139.5 43.5t-50.5 119.5q0 59 34.5 97.5t88.5 38.5q49 0 79.5 -32t30.5 -81q0 -65 -56 -96l-56 -31q0 -12 19 -21.5t46 -9.5q96 0 158 77t110 259zM663 1305
q35 0 61.5 -26.5t26.5 -61.5q0 -39 -25.5 -65t-62.5 -26q-38 0 -63 25.5t-25 62.5q0 36 26.5 63.5t61.5 27.5zM315 1305q35 0 61.5 -26.5t26.5 -61.5q0 -38 -26 -64.5t-62 -26.5q-38 0 -63 26t-25 65q0 35 26.5 61.5t61.5 26.5z" />
    <glyph glyph-name="Ydieresis" unicode="&#x178;" horiz-adv-x="1565" 
d="M344 27q11 0 32 1q258 11 269 44q6 16 8 69.5t2 245.5v211l-344 637q-52 98 -228 104q-38 2 -58 2v33q127 -3 217.5 -4.5t146.5 -1.5q91 0 196.5 1.5t225.5 4.5v-32q-77 -2 -142.5 -7.5t-123.5 -15.5l350 -660l8 -2l252 443q18 33 27.5 64.5t9.5 58.5q0 56 -45.5 86
t-155.5 43v28h30q136 -4 191 -4q66 0 135 2t140 6v-28q-87 -8 -148.5 -56t-126.5 -161l-302 -528q-2 -52 -2.5 -102t-0.5 -120q0 -203 3 -256.5t10 -65.5q16 -28 241 -38q38 -1 60 -2v-35q-23 0 -67 1q-272 7 -382 7q-84 0 -323 -6q-68 -1 -105 -2v35zM956 1766
q35 0 61.5 -26.5t26.5 -61.5q0 -39 -25.5 -65t-62.5 -26q-38 0 -63 25.5t-25 62.5q0 36 26.5 63.5t61.5 27.5zM608 1766q35 0 61.5 -26.5t26.5 -61.5q0 -38 -26 -64.5t-62 -26.5q-38 0 -63 26t-25 65q0 35 26.5 61.5t61.5 26.5z" />
    <glyph glyph-name="fraction" unicode="&#x2215;" horiz-adv-x="342" 
d="M-342 0l944 1346h80l-944 -1346h-80z" />
    <glyph glyph-name="currency" unicode="&#xa4;" horiz-adv-x="1241" 
d="M913 885q0 119 -85.5 205t-204.5 86q-120 0 -205.5 -86t-85.5 -205q0 -120 84.5 -204.5t206.5 -84.5q121 0 205.5 84.5t84.5 204.5zM371 1227q55 41 117 61.5t133 20.5t134 -20.5t117 -61.5l203 203l94 -93l-204 -204q39 -54 59 -116.5t20 -131.5q0 -70 -20 -132.5
t-59 -115.5l204 -205l-94 -92l-203 205q-57 -42 -118 -62t-131 -20q-72 0 -135 20.5t-117 61.5l-203 -205l-92 92l203 205q-40 53 -60 115.5t-20 132.5q0 69 20 131.5t60 116.5l-203 204l92 93z" />
    <glyph glyph-name="guilsinglleft" unicode="&#x2039;" horiz-adv-x="645" 
d="M72 455l415 391l21 -17l-227 -376l231 -365l-25 -22z" />
    <glyph glyph-name="guilsinglright" unicode="&#x203a;" horiz-adv-x="645" 
d="M573 457l-415 -391l-21 16l225 379l-229 364l25 21z" />
    <glyph glyph-name="fi" unicode="&#xf001;" horiz-adv-x="1206" 
d="M52 0v33q19 2 50 4q136 12 136 80l2 753h-195v50h195v26q0 209 119.5 339t308.5 130q117 0 193.5 -57t76.5 -141q0 -59 -33 -94.5t-88 -35.5q-47 0 -76.5 31t-29.5 78q0 48 33.5 81t90.5 42q-35 35 -79.5 52.5t-100.5 17.5q-118 0 -171.5 -94.5t-53.5 -305.5q0 -11 1 -34
t1 -35h189q102 0 190.5 5t173.5 15l-2 -805v-20q0 -66 132 -78q26 -3 40 -5v-32q-86 3 -154 4.5t-120 1.5q-44 0 -107 -1.5t-141 -4.5v33q67 4 108 12.5t45 17.5q7 18 10 112t3 325q0 183 -3 256.5t-9 84.5q-10 17 -34 23t-112 6h-209l-4 -745v-21q0 -56 135 -66
q11 -1 17 -1v-35q-11 0 -32 1q-158 3 -226 3q-32 0 -99.5 -1.5t-170.5 -4.5z" />
    <glyph glyph-name="fl" unicode="&#xf002;" horiz-adv-x="1210" 
d="M786 1309q-27 29 -62 44t-75 15q-111 0 -163 -95.5t-52 -303.5v-54h361l-1 158q-53 2 -86.5 32.5t-33.5 76.5q0 43 29.5 76.5t82.5 50.5zM64 0l-1 33q141 14 155 30t15 137l5 670h-193v45h195q0 227 111.5 354.5t310.5 127.5q9 0 76 -2t124 -2q46 0 72 0.5t49 0.5
l2 -1275q0 -71 117 -80q36 -2 59 -4v-35q-12 0 -36 1q-157 3 -224 3q-34 0 -104.5 -2t-157.5 -6v33q8 1 23 3q139 17 139 99v6l-6 733h-363l-8 -733v-20q0 -64 124 -80q21 -3 31 -4v-33q-82 3 -146.5 4.5t-106.5 1.5q-49 0 -114 -1.5t-148 -4.5z" />
    <glyph glyph-name="daggerdbl" unicode="&#x2021;" horiz-adv-x="1110" 
d="M570 -8q4 -72 32.5 -161.5t28.5 -113.5q0 -48 -22.5 -82t-53.5 -34q-32 0 -55 34.5t-23 83.5q0 20 28 109t33 164q-66 -4 -152.5 -34t-113.5 -30q-42 0 -73 23t-31 53t31 53t71 23q27 0 114 -29.5t155 -33.5q0 52 -16.5 88t-51.5 63q30 71 44.5 155.5t14.5 180.5
q0 102 -14.5 184.5t-44.5 153.5q33 24 48.5 58.5t18.5 92.5q-66 -4 -152.5 -33.5t-113.5 -29.5q-42 0 -73 23t-31 53q0 29 31 52t73 23q27 0 113.5 -30t152.5 -33q-4 72 -32.5 161t-28.5 113q0 48 23.5 82.5t54.5 34.5q33 0 55.5 -35.5t22.5 -89.5q0 -14 -28 -101.5
t-33 -164.5q66 3 152 33t114 30q41 0 72.5 -23t31.5 -52q0 -30 -31 -53t-73 -23q-27 0 -113.5 29.5t-153.5 33.5q0 -53 16 -88.5t52 -62.5q-30 -71 -44.5 -155t-14.5 -189q0 -97 14.5 -177.5t44.5 -152.5q-35 -26 -51.5 -62t-18.5 -89q69 4 156 33.5t113 29.5
q41 0 72.5 -23.5t31.5 -52.5t-32 -52.5t-74 -23.5q-27 0 -113 30t-153 34z" />
    <glyph glyph-name="periodcentered" unicode="&#xb7;" horiz-adv-x="516" 
d="M139 674q0 48 35 83.5t84 35.5t84 -35t35 -84t-35.5 -84t-83.5 -35t-83.5 35.5t-35.5 83.5z" />
    <glyph glyph-name="quotesinglbase" unicode="&#x201a;" horiz-adv-x="516" 
d="M115 -281q86 62 127.5 133t43.5 162q-12 -7 -25.5 -10.5t-33.5 -3.5q-38 0 -63 27.5t-25 70.5q0 45 30.5 76t74.5 31q55 0 86.5 -41.5t31.5 -114.5q0 -99 -61.5 -190t-173.5 -158z" />
    <glyph glyph-name="quotedblbase" unicode="&#x201e;" horiz-adv-x="1010" 
d="M608 -281q87 62 128 132.5t44 162.5q-12 -7 -25 -10.5t-32 -3.5q-38 0 -63 27.5t-25 70.5q0 46 29 76.5t73 30.5q57 0 89 -41.5t32 -114.5q0 -99 -61.5 -190t-173.5 -158zM115 -281q86 62 127.5 133t43.5 162q-12 -7 -25.5 -10.5t-33.5 -3.5q-38 0 -63 27.5t-25 70.5
q0 45 30.5 76t74.5 31q55 0 86.5 -41.5t31.5 -114.5q0 -99 -61.5 -190t-173.5 -158z" />
    <glyph glyph-name="perthousand" unicode="&#x2030;" horiz-adv-x="2372" 
d="M1880 371q0 -218 25.5 -293.5t93.5 -75.5q61 0 84.5 63.5t23.5 266.5q0 231 -25 306t-89 75q-66 0 -89.5 -56t-23.5 -286zM2001 739q127 0 213 -109.5t86 -275.5q0 -162 -88.5 -272.5t-212.5 -110.5q-134 0 -221.5 111.5t-87.5 282.5q0 166 86.5 270t224.5 104zM1151 371
q0 -218 25.5 -293.5t93.5 -75.5q61 0 84.5 63.5t23.5 266.5q0 231 -25 306t-89 75q-66 0 -89.5 -56t-23.5 -286zM1272 739q126 0 211.5 -109.5t85.5 -275.5q0 -162 -88.5 -272.5t-212.5 -110.5q-133 0 -220 111.5t-87 282.5q0 166 86.5 270t224.5 104zM477 -57h-63l716 1403
h72zM260 977q0 -215 26.5 -292t94.5 -77q61 0 84.5 64.5t23.5 267.5q0 231 -25 306t-89 75q-67 0 -91 -58.5t-24 -285.5zM383 1346q126 0 211.5 -110t85.5 -275q0 -166 -88.5 -274.5t-218.5 -108.5q-128 0 -215.5 112.5t-87.5 280.5q0 166 87.5 270.5t225.5 104.5z" />
    <glyph glyph-name="Acircumflex" unicode="&#xc2;" horiz-adv-x="1481" 
d="M436 522h363l-183 525zM33 0v39q109 3 174 67.5t127 243.5l368 1057h48q147 -441 279 -811t188 -504q17 -41 139 -48q53 -2 87 -5v-39q-129 3 -223 4.5t-151 1.5q-69 0 -167.5 -1.5t-229.5 -4.5v39q118 4 179 8.5t107 9.5l-141 412h-395l-49 -139q-15 -43 -23 -79.5
t-8 -64.5q0 -77 48 -109.5t171 -37.5v-39q-87 3 -156 4.5t-116 1.5q-39 0 -103.5 -1.5t-152.5 -4.5zM694 1870h94l223 -348h-47l-223 231l-223 -231h-47z" />
    <glyph glyph-name="Ecircumflex" unicode="&#xca;" horiz-adv-x="1554" 
d="M41 39q15 1 43 3q204 12 213 42q7 20 10.5 125t3.5 311v305q0 222 -3.5 336t-10.5 136q-10 31 -239 40h-17v37q118 -2 251.5 -3t385.5 -1q193 0 405.5 2t231.5 2v-536h-35q-32 303 -126.5 401t-375.5 98q-125 0 -157 -5.5t-39 -20.5q-8 -16 -13 -353q-2 -133 -4 -212
q17 -2 34 -2.5t48 -0.5q171 0 232 73.5t69 289.5h33v-791h-33q-9 226 -67 310t-201 84q-1 0 -38.5 -1t-76.5 -1q0 -274 4 -441t11 -191q5 -18 45 -25t204 -7q269 0 372 108.5t149 419.5h32v-143v-221q0 -67 0.5 -113t1.5 -94q-278 3 -465.5 4.5t-285.5 1.5
q-153 0 -301.5 -1.5t-290.5 -4.5v39zM731 1870h94l223 -348h-47l-223 231l-223 -231h-47z" />
    <glyph glyph-name="Aacute" unicode="&#xc1;" horiz-adv-x="1481" 
d="M436 522h363l-183 525zM33 0v39q109 3 174 67.5t127 243.5l368 1057h48q147 -441 279 -811t188 -504q17 -41 139 -48q53 -2 87 -5v-39q-129 3 -223 4.5t-151 1.5q-69 0 -167.5 -1.5t-229.5 -4.5v39q118 4 179 8.5t107 9.5l-141 412h-395l-49 -139q-15 -43 -23 -79.5
t-8 -64.5q0 -77 48 -109.5t171 -37.5v-39q-87 3 -156 4.5t-116 1.5q-39 0 -103.5 -1.5t-152.5 -4.5zM938 1755l-273 -233h-49l242 305q23 29 39 40t32 11q23 0 39.5 -15.5t16.5 -37.5q0 -15 -10 -30.5t-37 -39.5z" />
    <glyph glyph-name="Edieresis" unicode="&#xcb;" horiz-adv-x="1554" 
d="M41 39q15 1 43 3q204 12 213 42q7 20 10.5 125t3.5 311v305q0 222 -3.5 336t-10.5 136q-10 31 -239 40h-17v37q118 -2 251.5 -3t385.5 -1q193 0 405.5 2t231.5 2v-536h-35q-32 303 -126.5 401t-375.5 98q-125 0 -157 -5.5t-39 -20.5q-8 -16 -13 -353q-2 -133 -4 -212
q17 -2 34 -2.5t48 -0.5q171 0 232 73.5t69 289.5h33v-791h-33q-9 226 -67 310t-201 84q-1 0 -38.5 -1t-76.5 -1q0 -274 4 -441t11 -191q5 -18 45 -25t204 -7q269 0 372 108.5t149 419.5h32v-143v-221q0 -67 0.5 -113t1.5 -94q-278 3 -465.5 4.5t-285.5 1.5
q-153 0 -301.5 -1.5t-290.5 -4.5v39zM952 1766q35 0 61.5 -26.5t26.5 -61.5q0 -39 -25.5 -65t-62.5 -26q-38 0 -63 25.5t-25 62.5q0 36 26.5 63.5t61.5 27.5zM604 1766q35 0 61.5 -26.5t26.5 -61.5q0 -38 -26 -64.5t-62 -26.5q-38 0 -63 26t-25 65q0 35 26.5 61.5t61.5 26.5
z" />
    <glyph glyph-name="Egrave" unicode="&#xc8;" horiz-adv-x="1554" 
d="M41 39q15 1 43 3q204 12 213 42q7 20 10.5 125t3.5 311v305q0 222 -3.5 336t-10.5 136q-10 31 -239 40h-17v37q118 -2 251.5 -3t385.5 -1q193 0 405.5 2t231.5 2v-536h-35q-32 303 -126.5 401t-375.5 98q-125 0 -157 -5.5t-39 -20.5q-8 -16 -13 -353q-2 -133 -4 -212
q17 -2 34 -2.5t48 -0.5q171 0 232 73.5t69 289.5h33v-791h-33q-9 226 -67 310t-201 84q-1 0 -38.5 -1t-76.5 -1q0 -274 4 -441t11 -191q5 -18 45 -25t204 -7q269 0 372 108.5t149 419.5h32v-143v-221q0 -67 0.5 -113t1.5 -94q-278 3 -465.5 4.5t-285.5 1.5
q-153 0 -301.5 -1.5t-290.5 -4.5v39zM661 1827l242 -305h-49l-273 233q-27 24 -37 39.5t-10 30.5q0 22 16.5 37.5t39.5 15.5q16 0 32 -11t39 -40z" />
    <glyph glyph-name="Iacute" unicode="&#xcd;" horiz-adv-x="905" 
d="M55 39q15 1 42 3q203 12 212 42q9 26 13 198t4 539q0 206 -4.5 326.5t-12.5 144.5q-10 33 -251 45h-3l1 37q80 -3 175.5 -4.5t286.5 -1.5q71 0 154.5 1.5t177.5 4.5v-37h-5q-241 -12 -251 -45q-9 -24 -12.5 -160.5t-3.5 -422.5q0 -310 3.5 -456t12.5 -169q12 -30 214 -42
q27 -2 42 -3l-1 -39q-123 3 -222.5 4.5t-173.5 1.5q-75 0 -174.5 -1.5t-222.5 -4.5zM650 1755l-273 -233h-49l242 305q23 29 39 40t32 11q23 0 39.5 -15.5t16.5 -37.5q0 -15 -10 -30.5t-37 -39.5z" />
    <glyph glyph-name="Icircumflex" unicode="&#xce;" horiz-adv-x="905" 
d="M55 39q15 1 42 3q203 12 212 42q9 26 13 198t4 539q0 206 -4.5 326.5t-12.5 144.5q-10 33 -251 45h-3l1 37q80 -3 175.5 -4.5t286.5 -1.5q71 0 154.5 1.5t177.5 4.5v-37h-5q-241 -12 -251 -45q-9 -24 -12.5 -160.5t-3.5 -422.5q0 -310 3.5 -456t12.5 -169q12 -30 214 -42
q27 -2 42 -3l-1 -39q-123 3 -222.5 4.5t-173.5 1.5q-75 0 -174.5 -1.5t-222.5 -4.5zM406 1870h94l223 -348h-47l-223 231l-223 -231h-47z" />
    <glyph glyph-name="Idieresis" unicode="&#xcf;" horiz-adv-x="905" 
d="M55 39q15 1 42 3q203 12 212 42q9 26 13 198t4 539q0 206 -4.5 326.5t-12.5 144.5q-10 33 -251 45h-3l1 37q80 -3 175.5 -4.5t286.5 -1.5q71 0 154.5 1.5t177.5 4.5v-37h-5q-241 -12 -251 -45q-9 -24 -12.5 -160.5t-3.5 -422.5q0 -310 3.5 -456t12.5 -169q12 -30 214 -42
q27 -2 42 -3l-1 -39q-123 3 -222.5 4.5t-173.5 1.5q-75 0 -174.5 -1.5t-222.5 -4.5zM627 1766q35 0 61.5 -26.5t26.5 -61.5q0 -39 -25.5 -65t-62.5 -26q-38 0 -63 25.5t-25 62.5q0 36 26.5 63.5t61.5 27.5zM279 1766q35 0 61.5 -26.5t26.5 -61.5q0 -38 -26 -64.5t-62 -26.5
q-38 0 -63 26t-25 65q0 35 26.5 61.5t61.5 26.5z" />
    <glyph glyph-name="Igrave" unicode="&#xcc;" horiz-adv-x="905" 
d="M55 39q15 1 42 3q203 12 212 42q9 26 13 198t4 539q0 206 -4.5 326.5t-12.5 144.5q-10 33 -251 45h-3l1 37q80 -3 175.5 -4.5t286.5 -1.5q71 0 154.5 1.5t177.5 4.5v-37h-5q-241 -12 -251 -45q-9 -24 -12.5 -160.5t-3.5 -422.5q0 -310 3.5 -456t12.5 -169q12 -30 214 -42
q27 -2 42 -3l-1 -39q-123 3 -222.5 4.5t-173.5 1.5q-75 0 -174.5 -1.5t-222.5 -4.5zM336 1827l242 -305h-49l-273 233q-27 24 -37 39.5t-10 30.5q0 22 16.5 37.5t39.5 15.5q16 0 32 -11t39 -40z" />
    <glyph glyph-name="Oacute" unicode="&#xd3;" horiz-adv-x="1460" 
d="M739 1372q-177 0 -270.5 -168t-93.5 -487q0 -332 95 -522.5t259 -190.5q177 0 266.5 160t89.5 475q0 350 -90.5 541.5t-255.5 191.5zM717 -35q-122 0 -240.5 55t-206.5 152q-86 96 -135 228.5t-49 271.5q0 155 58 301.5t161 251.5q90 91 200.5 137.5t237.5 46.5
q99 0 195.5 -36t177.5 -103q121 -101 190.5 -256.5t69.5 -327.5q0 -301 -193 -511t-466 -210zM928 1755l-273 -233h-49l242 305q23 29 39 40t32 11q23 0 39.5 -15.5t16.5 -37.5q0 -15 -10 -30.5t-37 -39.5z" />
    <glyph glyph-name="Ocircumflex" unicode="&#xd4;" horiz-adv-x="1460" 
d="M739 1372q-177 0 -270.5 -168t-93.5 -487q0 -332 95 -522.5t259 -190.5q177 0 266.5 160t89.5 475q0 350 -90.5 541.5t-255.5 191.5zM717 -35q-122 0 -240.5 55t-206.5 152q-86 96 -135 228.5t-49 271.5q0 155 58 301.5t161 251.5q90 91 200.5 137.5t237.5 46.5
q99 0 195.5 -36t177.5 -103q121 -101 190.5 -256.5t69.5 -327.5q0 -301 -193 -511t-466 -210zM684 1870h94l223 -348h-47l-223 231l-223 -231h-47z" />
    <glyph glyph-name="apple" unicode="&#xf000;" horiz-adv-x="1618" 
d="M836 1216q-1 6 -1.5 14t-0.5 23q0 124 95 229.5t236 131.5q1 -10 1.5 -23t0.5 -39q0 -131 -103.5 -234.5t-203.5 -103.5h-8q-3 0 -7.5 1t-8.5 1zM1505 403q-114 -247 -205 -342.5t-204 -95.5q-50 0 -131.5 33t-122.5 33q-45 0 -131 -33t-127 -33q-64 0 -128.5 44
t-129.5 132q-102 140 -157.5 295.5t-55.5 300.5q0 219 125 356.5t323 137.5q68 0 155 -34t124 -34q34 0 121.5 35t152.5 35q110 0 198 -40t161 -124q-102 -65 -151.5 -145.5t-49.5 -182.5q0 -113 60 -200t173 -138z" />
    <glyph glyph-name="Ograve" unicode="&#xd2;" horiz-adv-x="1460" 
d="M739 1372q-177 0 -270.5 -168t-93.5 -487q0 -332 95 -522.5t259 -190.5q177 0 266.5 160t89.5 475q0 350 -90.5 541.5t-255.5 191.5zM717 -35q-122 0 -240.5 55t-206.5 152q-86 96 -135 228.5t-49 271.5q0 155 58 301.5t161 251.5q90 91 200.5 137.5t237.5 46.5
q99 0 195.5 -36t177.5 -103q121 -101 190.5 -256.5t69.5 -327.5q0 -301 -193 -511t-466 -210zM614 1827l242 -305h-49l-273 233q-27 24 -37 39.5t-10 30.5q0 22 16.5 37.5t39.5 15.5q16 0 32 -11t39 -40z" />
    <glyph glyph-name="Uacute" unicode="&#xda;" horiz-adv-x="1608" 
d="M297 1174v69q0 30 -3.5 43.5t-12.5 20.5q-24 14 -147 22q-59 4 -93 7v38q104 -4 206.5 -6t205.5 -2q70 0 167.5 2t210.5 6v-39q-22 -1 -63 -3q-198 -11 -207 -50q-6 -25 -11 -227t-5 -482q0 -335 68.5 -449t242.5 -114q144 0 247 61.5t150 174.5q14 33 20.5 71t6.5 95v49
l-10 538q-4 194 -63 262.5t-228 79.5v33q19 0 57 -1q167 -3 230 -3q62 0 230 3q37 1 56 1v-32q-143 -4 -194 -57t-51 -214v-33l10 -575v-76q0 -180 -131.5 -300t-333.5 -120q-159 0 -293 66t-217 186q-26 40 -37.5 75t-11.5 97q0 3 -1 10.5t-1 10.5q0 5 0.5 7.5t1.5 4.5z
M1057 1755l-273 -233h-49l242 305q23 29 39 40t32 11q23 0 39.5 -15.5t16.5 -37.5q0 -15 -10 -30.5t-37 -39.5z" />
    <glyph glyph-name="Ucircumflex" unicode="&#xdb;" horiz-adv-x="1608" 
d="M297 1174v69q0 30 -3.5 43.5t-12.5 20.5q-24 14 -147 22q-59 4 -93 7v38q104 -4 206.5 -6t205.5 -2q70 0 167.5 2t210.5 6v-39q-22 -1 -63 -3q-198 -11 -207 -50q-6 -25 -11 -227t-5 -482q0 -335 68.5 -449t242.5 -114q144 0 247 61.5t150 174.5q14 33 20.5 71t6.5 95v49
l-10 538q-4 194 -63 262.5t-228 79.5v33q19 0 57 -1q167 -3 230 -3q62 0 230 3q37 1 56 1v-32q-143 -4 -194 -57t-51 -214v-33l10 -575v-76q0 -180 -131.5 -300t-333.5 -120q-159 0 -293 66t-217 186q-26 40 -37.5 75t-11.5 97q0 3 -1 10.5t-1 10.5q0 5 0.5 7.5t1.5 4.5z
M813 1870h94l223 -348h-47l-223 231l-223 -231h-47z" />
    <glyph glyph-name="Ugrave" unicode="&#xd9;" horiz-adv-x="1608" 
d="M297 1174v69q0 30 -3.5 43.5t-12.5 20.5q-24 14 -147 22q-59 4 -93 7v38q104 -4 206.5 -6t205.5 -2q70 0 167.5 2t210.5 6v-39q-22 -1 -63 -3q-198 -11 -207 -50q-6 -25 -11 -227t-5 -482q0 -335 68.5 -449t242.5 -114q144 0 247 61.5t150 174.5q14 33 20.5 71t6.5 95v49
l-10 538q-4 194 -63 262.5t-228 79.5v33q19 0 57 -1q167 -3 230 -3q62 0 230 3q37 1 56 1v-32q-143 -4 -194 -57t-51 -214v-33l10 -575v-76q0 -180 -131.5 -300t-333.5 -120q-159 0 -293 66t-217 186q-26 40 -37.5 75t-11.5 97q0 3 -1 10.5t-1 10.5q0 5 0.5 7.5t1.5 4.5z
M743 1827l242 -305h-49l-273 233q-27 24 -37 39.5t-10 30.5q0 22 16.5 37.5t39.5 15.5q16 0 32 -11t39 -40z" />
    <glyph glyph-name="dotlessi" unicode="&#x131;" horiz-adv-x="631" 
d="M12 33q107 8 134.5 15.5t31.5 20.5q6 15 12.5 140.5t6.5 282.5q0 31 2 130.5t2 168.5q0 80 -128 85q-36 2 -57 3l1 32q100 3 202 9.5t202 15.5q-7 -209 -11 -378t-4 -251q0 -154 2 -193.5t8 -48.5q7 -9 40.5 -16t118.5 -16v-33q-38 1 -108 4q-127 4 -164 4q-57 0 -221 -6
q-45 -1 -70 -2v33z" />
    <glyph glyph-name="circumflex" unicode="&#x2c6;" 
d="M465 1409h94l223 -348h-47l-223 231l-223 -231h-47z" />
    <glyph glyph-name="tilde" unicode="&#x2dc;" 
d="M754 1327h43q-20 -90 -64 -136t-110 -46q-18 0 -37.5 3.5t-40.5 10.5l-117 35q-21 6 -36 9t-23 3q-42 0 -63.5 -19.5t-35.5 -70.5h-43q17 89 61.5 136.5t108.5 47.5q16 0 38 -4t52 -12l118 -35q19 -5 32.5 -7.5t21.5 -2.5q38 0 61 21.5t34 66.5z" />
    <glyph glyph-name="macron" unicode="&#xaf;" 
d="M256 1270h512v-109h-512v109z" />
    <glyph glyph-name="breve" unicode="&#x2d8;" 
d="M229 1366h45q19 -82 75 -119t163 -37q109 0 164.5 37t71.5 119h47q-19 -128 -91.5 -196t-191.5 -68q-118 0 -190.5 67.5t-92.5 196.5z" />
    <glyph glyph-name="dotaccent" unicode="&#x2d9;" 
d="M512 1309q39 0 66.5 -27t27.5 -65q0 -40 -27 -67.5t-67 -27.5q-38 0 -65 28t-27 67q0 36 27.5 64t64.5 28z" />
    <glyph glyph-name="ring" unicode="&#x2da;" 
d="M512 1427q-63 0 -107.5 -45t-44.5 -108q0 -65 43.5 -108.5t108.5 -43.5t109.5 44t44.5 108q0 63 -45.5 108t-108.5 45zM512 1507q97 0 165 -68t68 -165t-68 -165.5t-165 -68.5q-98 0 -165.5 68t-67.5 166t67.5 165.5t165.5 67.5z" />
    <glyph glyph-name="cedilla" unicode="&#xb8;" 
d="M483 0h56v-121q8 1 23 2q29 2 40 2q75 0 120.5 -44.5t45.5 -117.5q0 -75 -56 -118t-155 -43q-57 0 -122 17t-148 54l24 60q73 -33 130.5 -49.5t99.5 -16.5q57 0 87.5 26t30.5 75q0 42 -30 67t-82 25q-12 0 -27.5 -1.5t-35.5 -4.5z" />
    <glyph glyph-name="hungarumlaut" unicode="&#x2dd;" 
d="M561 1305l-166 -244h-43l117 289q14 36 29.5 51.5t38.5 15.5q21 0 36 -14t15 -35q0 -10 -7 -27t-20 -36zM807 1307l-186 -246h-43l141 295q16 32 32 46.5t35 14.5q21 0 37.5 -14t16.5 -33q0 -10 -8 -25.5t-25 -37.5z" />
    <glyph glyph-name="ogonek" unicode="&#x2db;" 
d="M598 12q-83 -64 -123.5 -127.5t-40.5 -130.5q0 -53 29.5 -86t77.5 -33q34 0 62.5 18.5t62.5 61.5l24 -16q-31 -66 -84.5 -102.5t-118.5 -36.5q-67 0 -110 42.5t-43 108.5q0 77 57.5 157t159.5 144h47z" />
    <glyph glyph-name="caron" unicode="&#x2c7;" 
d="M242 1409h47l223 -231l223 231h47l-223 -348h-94z" />
    <glyph glyph-name="Lslash" unicode="&#x141;" horiz-adv-x="1507" 
d="M62 39q29 2 78 5q184 10 184 124v31q0 2 2.5 136t3.5 271l-312 -186v59l310 189q-1 90 -1 240q-1 356 -12 386q-6 19 -49.5 28t-204.5 15v37q27 0 81 -1q223 -3 307 -3q91 0 334 3q54 1 81 1v-36q-140 -4 -191.5 -12.5t-62.5 -27.5t-11 -299q0 -122 -1 -194l356 215v-62
l-356 -217v-268q0 -198 2.5 -286.5t7.5 -108.5q6 -19 46.5 -26t199.5 -7q238 0 352 138.5t150 467.5h35v-166q0 -7 -1 -37q-1 -113 -1 -215q0 -74 0.5 -127t0.5 -106q-284 3 -482.5 4.5t-313.5 1.5q-110 0 -243.5 -1.5t-288.5 -4.5v39z" />
    <glyph glyph-name="lslash" unicode="&#x142;" horiz-adv-x="659" 
d="M418 1395v-617l227 142v-58l-227 -143v-533q0 -15 1 -33.5t1 -21.5v-12q0 -68 115 -79q33 -3 53 -5v-35q-31 1 -132.5 3.5t-160.5 2.5q-24 0 -72 -1.5t-196 -8.5v33q22 3 59 7q119 14 119 114v16v446l-191 -120v57l191 123v563q-1 96 -122 103q-38 2 -60 3v33
q70 2 151.5 6.5t243.5 14.5z" />
    <glyph glyph-name="Scaron" unicode="&#x160;" horiz-adv-x="1352" 
d="M209 -33v623h31q71 -286 210.5 -437t329.5 -151q128 0 205.5 73t77.5 191q0 125 -75 195t-359 139q-255 62 -361 162.5t-106 269.5q0 166 116 273.5t295 107.5q109 0 199 -45t174 -141q46 29 73 74t42 114h22v-530h-28q-44 227 -175 359t-311 132q-130 0 -209 -66
t-79 -175t85 -170.5t363 -116.5q259 -52 369 -156.5t110 -290.5q0 -191 -123 -312.5t-317 -121.5q-107 0 -207.5 56t-183.5 161q-53 -30 -88 -82t-60 -135h-20zM406 1870h47l223 -231l223 231h47l-223 -348h-94z" />
    <glyph glyph-name="scaron" unicode="&#x161;" horiz-adv-x="924" 
d="M150 -23v420h22q35 -186 130 -288.5t233 -102.5q79 0 128.5 42.5t49.5 109.5q0 90 -60 140.5t-243 92.5q-173 39 -236 100.5t-63 174.5q0 128 77 206t203 78q71 0 130.5 -27t111.5 -83h18q17 19 30 45t24 61h20v-375h-25q-16 164 -97.5 257.5t-207.5 93.5
q-83 0 -136.5 -42t-53.5 -106q0 -118 277 -189q44 -11 67 -18q137 -35 200.5 -106.5t63.5 -188.5q0 -133 -76.5 -215t-199.5 -82q-86 0 -158 37.5t-137 114.5q-25 -34 -43 -72t-29 -78h-20zM193 1409h47l223 -231l223 231h47l-223 -348h-94z" />
    <glyph glyph-name="Zcaron" unicode="&#x17d;" horiz-adv-x="1442" 
d="M123 0v14l776 1231q20 30 26.5 44t6.5 24q0 12 -26 16t-118 4h-63q-235 0 -327.5 -110.5t-127.5 -417.5h-32q0 180 -2 317t-6 246q122 2 462 2.5t557 3.5v-14q-147 -234 -382 -606q-418 -661 -418 -697q0 -10 45.5 -14t187.5 -4q210 0 283 31.5t127 115.5
q50 80 82.5 194.5t46.5 262.5h32q-1 -41 -1.5 -88t-0.5 -139q0 -125 2 -227t7 -189h-25q-389 4 -573 4q-122 0 -248.5 -1t-290.5 -3zM451 1870h47l223 -231l223 231h47l-223 -348h-94z" />
    <glyph glyph-name="zcaron" unicode="&#x17e;" horiz-adv-x="1038" 
d="M674 889q-29 1 -76.5 2.5t-58.5 1.5q-170 0 -230.5 -72t-89.5 -309h-20v410q15 -2 31.5 -3t39.5 -1q39 0 117.5 1t120.5 1q26 0 102.5 -1t126.5 -1q9 0 71 1.5t114 1.5v-6l-608 -880q53 -3 100 -4.5t84 -1.5q176 0 243 83t109 343h24q1 -122 3.5 -236t6.5 -219
q-53 2 -87.5 3t-67.5 1q-27 0 -112 -1t-142 -1q-30 0 -112 1t-134 1q-40 0 -81.5 -1t-86.5 -3v4zM250 1409h47l223 -231l223 231h47l-223 -348h-94z" />
    <glyph glyph-name="brokenbar" unicode="&#xa6;" 
d="M602 408v-758h-178v758h178zM602 1432v-758h-178v758h178z" />
    <glyph glyph-name="Eth" unicode="&#xd0;" horiz-adv-x="1577" 
d="M588 51q61 -8 101 -11t73 -3q243 0 346.5 134t103.5 450q0 383 -107 552.5t-347 169.5q-43 0 -85 -3t-85 -9q-3 -157 -3.5 -239.5t-0.5 -155.5v-111v-92h336v-53h-336v-113v-274q0 -64 3 -211q1 -21 1 -31zM33 31q51 6 132 13q143 12 153 47q7 29 9 383q0 130 1 206h-310
v53h308q0 17 1 54.5t1 60.5q0 69 -2 185.5t-2 162.5q0 54 -5 79t-16 32q-25 15 -147 25q-76 6 -123 12v38q41 -1 114 -3q184 -5 246 -5q103 0 234 4t159 4q315 0 506 -197t191 -517q0 -143 -62 -275t-178 -235q-95 -85 -208.5 -121.5t-291.5 -36.5q-58 0 -159.5 3t-145.5 3
q-73 0 -166.5 -3t-238.5 -11v39z" />
    <glyph glyph-name="eth" unicode="&#xf0;" horiz-adv-x="1049" 
d="M303 442q0 -222 54 -331t163 -109q107 0 165 109.5t58 312.5q0 227 -56 346t-163 119q-108 0 -164.5 -113.5t-56.5 -333.5zM670 883q-29 61 -63.5 120.5t-78.5 124.5l-333 -127l-23 41l332 129q-33 45 -72 92t-84 97l39 35q50 -42 102 -90t103 -99l264 101l23 -43
l-248 -95q182 -201 264 -368t82 -332q0 -219 -130 -358.5t-325 -139.5q-196 0 -323 132t-127 331q0 201 130 342.5t304 141.5q47 0 85.5 -8.5t78.5 -26.5z" />
    <glyph glyph-name="Yacute" unicode="&#xdd;" horiz-adv-x="1565" 
d="M344 27q11 0 32 1q258 11 269 44q6 16 8 69.5t2 245.5v211l-344 637q-52 98 -228 104q-38 2 -58 2v33q127 -3 217.5 -4.5t146.5 -1.5q91 0 196.5 1.5t225.5 4.5v-32q-77 -2 -142.5 -7.5t-123.5 -15.5l350 -660l8 -2l252 443q18 33 27.5 64.5t9.5 58.5q0 56 -45.5 86
t-155.5 43v28h30q136 -4 191 -4q66 0 135 2t140 6v-28q-87 -8 -148.5 -56t-126.5 -161l-302 -528q-2 -52 -2.5 -102t-0.5 -120q0 -203 3 -256.5t10 -65.5q16 -28 241 -38q38 -1 60 -2v-35q-23 0 -67 1q-272 7 -382 7q-84 0 -323 -6q-68 -1 -105 -2v35zM979 1755l-273 -233
h-49l242 305q23 29 39 40t32 11q23 0 39.5 -15.5t16.5 -37.5q0 -15 -10 -30.5t-37 -39.5z" />
    <glyph glyph-name="yacute" unicode="&#xfd;" horiz-adv-x="977" 
d="M483 -37l-317 846q-1 3 -3 7q-26 71 -159 75v34q91 -2 187.5 -3.5t195.5 -1.5q55 0 81.5 1t49.5 4v-34q-27 -2 -69 -3q-88 -3 -89 -22q0 -7 12 -36q2 -5 3 -7l207 -553h6l145 435q9 26 14 51.5t5 46.5q0 48 -30 69.5t-105 24.5l-1 29q4 0 13 -1q126 -3 186 -3
q24 0 51 0.5t76 2.5v-30h-14q-110 0 -224 -359q-40 -124 -65 -198q-28 -84 -75 -233q-158 -506 -345 -506q-89 0 -139.5 43.5t-50.5 119.5q0 59 34.5 97.5t88.5 38.5q49 0 79.5 -32t30.5 -81q0 -65 -56 -96l-56 -31q0 -12 19 -21.5t46 -9.5q96 0 158 77t110 259zM686 1294
l-273 -233h-49l242 305q23 29 39 40t32 11q23 0 39.5 -15.5t16.5 -37.5q0 -15 -10 -30.5t-37 -39.5z" />
    <glyph glyph-name="Thorn" unicode="&#xde;" horiz-adv-x="1395" 
d="M576 1034q-4 -169 -5.5 -337.5t-1.5 -334.5q16 0 45 -1q85 -3 113 -3q195 0 271.5 76t76.5 262q0 184 -83 268.5t-265 84.5q-40 0 -78 -4t-73 -11zM41 39q15 1 43 3q204 12 213 42q6 17 8 89t2 347v305q0 296 -2 375t-8 97q-10 31 -239 40h-17v37q113 -3 214 -4.5
t187 -1.5q73 0 171.5 1.5t223.5 4.5l1 -37h-9q-221 -12 -241 -36q-12 -16 -14 -163q0 -39 -1 -61l13 1q130 7 186 7q261 0 412 -104.5t151 -282.5q0 -181 -155 -280t-441 -99q-36 0 -129 6q-27 2 -41 3q1 -33 1 -88q1 -150 14 -164q20 -25 244 -35q27 -1 42 -2v-39
q-138 3 -245.5 4.5t-182.5 1.5q-54 0 -153.5 -1.5t-247.5 -4.5v39z" />
    <glyph glyph-name="thorn" unicode="&#xfe;" horiz-adv-x="1083" 
d="M610 901q-91 0 -144.5 -101.5t-53.5 -279.5q0 -226 58 -363t151 -137q81 0 121 103t40 313q0 259 -39.5 362t-132.5 103zM403 725q27 104 91 161.5t151 57.5q144 0 252.5 -138t108.5 -331q0 -192 -115.5 -340.5t-249.5 -148.5q-92 0 -153.5 76t-84.5 219v-574
q1 -58 150 -67q47 -2 78 -5v-32q-99 3 -182.5 4.5t-151.5 1.5q-45 0 -117.5 -1.5t-175.5 -4.5v32q19 2 50 4q138 9 139 78q0 8 -1.5 32.5t-1.5 41.5v1444q0 96 -121 103q-38 2 -61 4v32q70 2 151.5 6.5t243.5 14.5v-670z" />
    <glyph glyph-name="minus" unicode="&#x2212;" horiz-adv-x="1706" 
d="M1452 696v-170h-1198v170h1198z" />
    <glyph glyph-name="multiply" unicode="&#xd7;" horiz-adv-x="1706" 
d="M862 729l461 459l117 -117l-459 -461l459 -458l-117 -119l-461 461l-459 -461l-116 119l458 458l-458 461l116 117z" />
    <glyph glyph-name="onesuperior" unicode="&#xb9;" horiz-adv-x="682" 
d="M74 525v20q41 3 99 5q95 4 95 44v606q0 61 -125 63q-45 0 -73 1v20q17 0 52 -1t52 -1q91 0 143.5 12t85.5 39h19q-1 -24 -1 -67q-3 -174 -3 -240q0 -221 3 -336t9 -125q8 -13 102 -14q50 -1 82 -2v-19h-219q-73 0 -154 -1.5t-167 -3.5z" />
    <glyph glyph-name="twosuperior" unicode="&#xb2;" horiz-adv-x="682" 
d="M90 510h-29q9 100 48 174t97 104q15 8 41 21q103 52 136 96q24 33 35.5 80t11.5 117q0 109 -39 162t-119 53q-82 0 -132 -56t-50 -151v-14h4q9 16 21 23t30 7q30 0 46 -22t16 -64q0 -38 -19 -62t-49 -24q-38 0 -62 36t-24 95q0 116 66 183t180 67q124 0 201.5 -78
t77.5 -200q0 -110 -56.5 -168.5t-191.5 -85.5q-114 -22 -153.5 -53.5t-63.5 -93.5q18 5 31.5 7.5t25.5 2.5q50 0 143 -20.5t133 -20.5q59 0 85 32t26 105v24h18q0 -17 1.5 -41t1.5 -30q0 -100 -42 -157.5t-112 -57.5q-64 0 -127 65q-9 10 -14 15q-32 31 -55 43t-50 12
q-42 0 -63.5 -30.5t-24.5 -94.5z" />
    <glyph glyph-name="threesuperior" unicode="&#xb3;" horiz-adv-x="682" 
d="M94 661q0 -61 50.5 -97t136.5 -36q89 0 133.5 51.5t44.5 155.5q0 101 -37 158t-103 57q-24 0 -60.5 -10t-53.5 -10q-23 0 -36 5t-13 13q0 9 20 17t43 8q12 0 37 -4t39 -4q76 0 112.5 44t36.5 134q0 86 -35.5 130t-105.5 44q-69 0 -114.5 -28.5t-59.5 -79.5q12 4 21 5.5
t20 2.5q25 0 40 -16.5t15 -43.5q0 -30 -20 -48.5t-51 -18.5q-34 0 -53 19.5t-19 53.5q0 75 68 123.5t178 48.5q119 0 192.5 -54.5t73.5 -139.5q0 -70 -54.5 -113t-168.5 -63v-6q114 -5 176.5 -55.5t62.5 -139.5q0 -106 -91 -180t-222 -74q-116 0 -188 53.5t-72 136.5
q0 46 26 73.5t68 27.5q34 0 56 -21.5t22 -54.5q0 -28 -22 -49t-54 -21q-8 0 -17.5 1.5t-21.5 4.5z" />
    <glyph glyph-name="onequarter" unicode="&#xbc;" horiz-adv-x="1645" 
d="M1315 233v347h-6l-234 -347h240zM1139 -2v18q16 1 46 3q124 6 124 42v134h-283l387 579h33q-3 -102 -3.5 -157t-0.5 -105q0 -26 1.5 -122.5t2.5 -156.5h149v-38h-149l2 -107q2 -50 14.5 -57t126.5 -9v-18q-45 1 -88 1.5t-94 0.5q-65 0 -131.5 -2t-136.5 -6zM309 0
l944 1346h80l-944 -1346h-80zM72 578v18q38 3 92 5q92 5 92 42v565q0 57 -125 59q-40 0 -65 1v18q16 0 50 -1t50 -1q85 0 135.5 11.5t83.5 37.5h18q0 -21 -1 -62q-3 -165 -3 -227q0 -194 3 -306t8 -122q7 -12 113 -13q41 0 65 -1v-18h-209q-70 0 -147 -1.5t-160 -4.5z" />
    <glyph glyph-name="onehalf" unicode="&#xbd;" horiz-adv-x="1645" 
d="M1079 -16h-26q7 93 44 163t93 99q8 4 25 12q109 52 145 96q22 30 32.5 73t10.5 110q0 102 -36.5 151t-113.5 49q-79 0 -126.5 -51.5t-47.5 -140.5v-13l2 -1q11 15 23 21.5t29 6.5q28 0 42.5 -20t14.5 -58q0 -37 -17.5 -59.5t-46.5 -22.5q-36 0 -59 34t-23 89
q0 107 63 169.5t171 62.5q118 0 193 -73t75 -185q0 -102 -53.5 -157t-183.5 -81h-3q-166 -34 -204 -137q12 4 25.5 6t27.5 2q47 0 137 -18.5t129 -18.5q56 0 80.5 29.5t24.5 97.5v25h16q0 -16 1 -38.5t1 -29.5q0 -93 -39.5 -147t-107.5 -54q-60 0 -119 62l-14 14
q-29 27 -52 38t-49 11q-40 0 -61 -29t-23 -87zM309 0l944 1346h80l-944 -1346h-80zM72 578v18q38 3 92 5q92 5 92 42v565q0 57 -125 59q-40 0 -65 1v18q16 0 50 -1t50 -1q85 0 135.5 11.5t83.5 37.5h18q0 -21 -1 -62q-3 -165 -3 -227q0 -194 3 -306t8 -122q7 -12 113 -13
q41 0 65 -1v-18h-209q-70 0 -147 -1.5t-160 -4.5z" />
    <glyph glyph-name="threequarters" unicode="&#xbe;" horiz-adv-x="1645" 
d="M1315 233v347h-6l-234 -347h240zM1139 -2v18q16 1 46 3q124 6 124 42v134h-283l387 579h33q-3 -102 -3.5 -157t-0.5 -105q0 -26 1.5 -122.5t2.5 -156.5h149v-38h-149l2 -107q2 -50 14.5 -57t126.5 -9v-18q-45 1 -88 1.5t-94 0.5q-65 0 -131.5 -2t-136.5 -6zM309 0
l944 1346h80l-944 -1346h-80zM88 706q2 -58 49.5 -91t128.5 -33q87 0 129.5 48t42.5 144q0 94 -35.5 147.5t-97.5 53.5q-24 0 -58 -9.5t-50 -9.5q-22 0 -36 5t-14 12q0 8 20 16t42 8q11 0 35 -5t37 -5q72 0 107.5 42t35.5 126q0 82 -34 123t-101 41q-65 0 -108.5 -27
t-57.5 -75q11 4 20.5 6t18.5 2q24 0 38.5 -15.5t14.5 -40.5q0 -27 -19.5 -45t-50.5 -18t-49 19t-18 51q0 68 65 112.5t168 44.5q115 0 185.5 -50.5t70.5 -129.5q0 -65 -51.5 -105.5t-161.5 -60.5l1 -4q109 -5 168 -52.5t59 -129.5q0 -99 -87 -168.5t-210 -69.5
q-112 0 -181 50t-69 128q0 43 25 69t65 26q32 0 53 -19.5t21 -50.5q0 -28 -20.5 -47t-51.5 -19q-8 0 -17.5 1.5t-21.5 4.5z" />
    <glyph glyph-name="franc" unicode="&#x20a3;" horiz-adv-x="2255" 
d="M41 39q15 1 43 3q204 12 213 42q7 20 10.5 125t3.5 311v305q0 222 -3.5 336t-10.5 136q-10 31 -239 40h-17v37q131 -2 268 -3t363 -1q150 0 304.5 1t323.5 3v-567h-32q-25 318 -121.5 424t-382.5 106q-107 0 -141.5 -5.5t-44.5 -20.5q-5 -15 -8 -282q-3 -174 -5 -283
q17 -2 32.5 -2.5t43.5 -0.5q167 0 228 73.5t69 289.5h35v-776h-35q-13 220 -70 299.5t-196 79.5q-1 0 -36 -1t-71 -1v-193v-170q0 -103 4 -171.5t11 -89.5q11 -32 251 -43q21 -1 31 -1v-39q-145 3 -254 4.5t-186 1.5q-51 0 -146.5 -1.5t-234.5 -4.5v39zM1420 35q27 4 70 8
q99 12 103 36q6 34 9.5 185.5t3.5 374.5v156q-1 81 -158 90q-17 1 -27 2v32q160 6 239.5 10t145.5 9l2 -324h11q34 168 91.5 246t145.5 78q68 0 108 -37.5t40 -101.5q0 -59 -30.5 -94t-82.5 -35q-43 0 -70.5 29t-27.5 75q0 58 43 89.5t43 37.5q0 5 -7.5 9.5t-17.5 4.5
q-126 0 -184 -188t-58 -600q0 -80 149 -92q36 -3 56 -5v-34q-164 6 -230.5 8t-103.5 2q-93 0 -151 -1.5t-112 -4.5v35z" />
    <glyph glyph-name="Gbreve" unicode="&#x11e;" horiz-adv-x="1536" 
d="M1292 0h-24q-8 74 -34.5 110.5t-72.5 36.5q-45 0 -133 -64l-12 -9q-83 -58 -157.5 -82.5t-166.5 -24.5q-246 0 -422 203t-176 500q0 162 62 304.5t182 256.5q93 89 194.5 134.5t204.5 45.5t189 -43.5t164 -134.5h30q28 31 53.5 72t51.5 98h28v-604h-26
q-54 271 -182.5 425t-299.5 154q-176 0 -266 -185t-90 -552q0 -326 82.5 -481.5t255.5 -155.5q89 0 163.5 34.5t108.5 90.5q26 42 37 109.5t11 203.5v9q-1 154 -197 159q-57 1 -92 3v36q114 -3 212.5 -4.5t180.5 -1.5q55 0 144 1.5t212 4.5v-37q-12 0 -35 -1
q-153 -8 -165 -31q-9 -16 -13 -96.5t-4 -245.5q0 -76 0.5 -129.5t1.5 -108.5zM485 1827h45q19 -82 75 -119t163 -37q109 0 164.5 37t71.5 119h47q-19 -128 -91.5 -196t-191.5 -68q-118 0 -190.5 67.5t-92.5 196.5z" />
    <glyph glyph-name="gbreve" unicode="&#x11f;" horiz-adv-x="1090" 
d="M621 -25q-186 0 -278.5 -44t-92.5 -132q0 -91 80 -139.5t233 -48.5q169 0 264 54.5t95 150.5q0 80 -75 119.5t-226 39.5zM362 627q0 -129 48.5 -199t136.5 -70t132 67t44 202q0 138 -45.5 211t-130.5 73q-87 0 -136 -74.5t-49 -209.5zM260 399q-55 34 -86 89t-31 120
q0 140 117.5 236t292.5 96q47 0 91.5 -8.5t84.5 -24.5q-10 30 -14 51t-4 39q0 66 38.5 108t98.5 42q45 0 75.5 -28.5t30.5 -69.5q0 -30 -19 -49t-50 -19q-34 0 -54 18.5t-20 49.5q0 12 4 24t12 23h-16q-29 0 -49.5 -25t-20.5 -63q0 -28 6.5 -55t20.5 -58q79 -50 121.5 -121
t42.5 -151q0 -128 -105 -210.5t-274 -82.5q-67 0 -131.5 12t-120.5 35q-55 -13 -89 -46.5t-34 -74.5q0 -50 42.5 -78t117.5 -28q45 0 159 12t181 12q154 0 238.5 -72.5t84.5 -203.5q0 -152 -113 -234t-325 -82q-201 0 -327.5 65t-126.5 160q0 58 44.5 93t149.5 59v6
q-93 17 -140.5 69.5t-47.5 137.5q0 75 36 132t109 95zM262 1366h45q19 -82 75 -119t163 -37q109 0 164.5 37t71.5 119h47q-19 -128 -91.5 -196t-191.5 -68q-118 0 -190.5 67.5t-92.5 196.5z" />
    <glyph glyph-name="Idotaccent" unicode="&#x130;" horiz-adv-x="905" 
d="M55 39q15 1 42 3q203 12 212 42q9 26 13 198t4 539q0 206 -4.5 326.5t-12.5 144.5q-10 33 -251 45h-3l1 37q80 -3 175.5 -4.5t286.5 -1.5q71 0 154.5 1.5t177.5 4.5v-37h-5q-241 -12 -251 -45q-9 -24 -12.5 -160.5t-3.5 -422.5q0 -310 3.5 -456t12.5 -169q12 -30 214 -42
q27 -2 42 -3l-1 -39q-123 3 -222.5 4.5t-173.5 1.5q-75 0 -174.5 -1.5t-222.5 -4.5zM453 1770q39 0 66.5 -27t27.5 -65q0 -40 -27 -67.5t-67 -27.5q-38 0 -65 28t-27 67q0 36 27.5 64t64.5 28z" />
    <glyph glyph-name="Scedilla" unicode="&#x15e;" horiz-adv-x="1352" 
d="M209 -33v623h31q71 -286 210.5 -437t329.5 -151q128 0 205.5 73t77.5 191q0 125 -75 195t-359 139q-255 62 -361 162.5t-106 269.5q0 166 116 273.5t295 107.5q109 0 199 -45t174 -141q46 29 73 74t42 114h22v-530h-28q-44 227 -175 359t-311 132q-130 0 -209 -66
t-79 -175t85 -170.5t363 -116.5q259 -52 369 -156.5t110 -290.5q0 -191 -123 -312.5t-317 -121.5q-107 0 -207.5 56t-183.5 161q-53 -30 -88 -82t-60 -135h-20zM647 0h56v-121q8 1 23 2q29 2 40 2q75 0 120.5 -44.5t45.5 -117.5q0 -75 -56 -118t-155 -43q-57 0 -122 17
t-148 54l24 60q73 -33 130.5 -49.5t99.5 -16.5q57 0 87.5 26t30.5 75q0 42 -30 67t-82 25q-12 0 -27.5 -1.5t-35.5 -4.5z" />
    <glyph glyph-name="scedilla" unicode="&#x15f;" horiz-adv-x="924" 
d="M150 -23v420h22q35 -186 130 -288.5t233 -102.5q79 0 128.5 42.5t49.5 109.5q0 90 -60 140.5t-243 92.5q-173 39 -236 100.5t-63 174.5q0 128 77 206t203 78q71 0 130.5 -27t111.5 -83h18q17 19 30 45t24 61h20v-375h-25q-16 164 -97.5 257.5t-207.5 93.5
q-83 0 -136.5 -42t-53.5 -106q0 -118 277 -189q44 -11 67 -18q137 -35 200.5 -106.5t63.5 -188.5q0 -133 -76.5 -215t-199.5 -82q-86 0 -158 37.5t-137 114.5q-25 -34 -43 -72t-29 -78h-20zM434 0h56v-121q8 1 23 2q29 2 40 2q75 0 120.5 -44.5t45.5 -117.5q0 -75 -56 -118
t-155 -43q-57 0 -122 17t-148 54l24 60q73 -33 130.5 -49.5t99.5 -16.5q57 0 87.5 26t30.5 75q0 42 -30 67t-82 25q-12 0 -27.5 -1.5t-35.5 -4.5z" />
    <glyph glyph-name="Cacute" unicode="&#x106;" horiz-adv-x="1309" 
d="M1227 575q0 -288 -137 -448t-383 -160q-282 0 -451.5 189.5t-169.5 505.5q0 327 175.5 537t445.5 210q98 0 174 -36.5t149 -119.5h19q29 42 53 85t41 87h31v-649h-37q-32 294 -139 445t-283 151q-179 0 -271 -173t-92 -509q0 -345 95.5 -513.5t291.5 -168.5
q205 0 328 151t123 404v12h37zM910 1755l-273 -233h-49l242 305q23 29 39 40t32 11q23 0 39.5 -15.5t16.5 -37.5q0 -15 -10 -30.5t-37 -39.5z" />
    <glyph glyph-name="cacute" unicode="&#x107;" horiz-adv-x="967" 
d="M874 389v-16q0 -188 -93.5 -294t-260.5 -106q-198 0 -323 127t-125 328q0 212 139 366t328 154q127 0 219 -79t92 -181q0 -58 -32 -94.5t-83 -36.5q-48 0 -81 34t-33 83q0 45 28.5 73.5t73.5 28.5q3 0 10 -1t10 -1q-18 70 -67.5 108t-122.5 38q-128 0 -188 -112t-60 -351
q0 -236 57 -339.5t185 -103.5q144 0 223.5 95.5t79.5 267.5v12h24zM721 1294l-273 -233h-49l242 305q23 29 39 40t32 11q23 0 39.5 -15.5t16.5 -37.5q0 -15 -10 -30.5t-37 -39.5z" />
    <glyph glyph-name="Ccaron" unicode="&#x10c;" horiz-adv-x="1309" 
d="M1227 575q0 -288 -137 -448t-383 -160q-282 0 -451.5 189.5t-169.5 505.5q0 327 175.5 537t445.5 210q98 0 174 -36.5t149 -119.5h19q29 42 53 85t41 87h31v-649h-37q-32 294 -139 445t-283 151q-179 0 -271 -173t-92 -509q0 -345 95.5 -513.5t291.5 -168.5
q205 0 328 151t123 404v12h37zM443 1870h47l223 -231l223 231h47l-223 -348h-94z" />
    <glyph glyph-name="ccaron" unicode="&#x10d;" horiz-adv-x="967" 
d="M874 389v-16q0 -188 -93.5 -294t-260.5 -106q-198 0 -323 127t-125 328q0 212 139 366t328 154q127 0 219 -79t92 -181q0 -58 -32 -94.5t-83 -36.5q-48 0 -81 34t-33 83q0 45 28.5 73.5t73.5 28.5q3 0 10 -1t10 -1q-18 70 -67.5 108t-122.5 38q-128 0 -188 -112t-60 -351
q0 -236 57 -339.5t185 -103.5q144 0 223.5 95.5t79.5 267.5v12h24zM254 1409h47l223 -231l223 231h47l-223 -348h-94z" />
    <glyph glyph-name="dcroat" unicode="&#x111;" horiz-adv-x="1124" 
d="M678 457q0 209 -54 338t-139 129q-89 0 -135.5 -120t-46.5 -351q0 -243 39.5 -345t130.5 -102q89 0 147 125t58 326zM694 233h-12q-33 -138 -93 -198t-165 -60q-155 0 -253.5 131t-98.5 340q0 208 118 356t277 148q83 0 135.5 -60t75.5 -181l8 -2v378h-311v48h311v90
q0 101 -144 104q-78 2 -130 4v33q118 2 236.5 9.5t238.5 21.5v-262h223v-48h-223v-931v-45q0 -60 100 -64q42 -2 69 -4l1 -28q-35 -3 -104 -7q-178 -11 -258 -18z" />
    <glyph glyph-name="sfthyphen" unicode="&#xad;" horiz-adv-x="627" 
d="M72 395v158h483v-158h-483z" />
    <glyph glyph-name="periodcentered" unicode="&#x2219;" horiz-adv-x="516" 
d="M139 674q0 48 35 83.5t84 35.5t84 -35t35 -84t-35.5 -84t-83.5 -35t-83.5 35.5t-35.5 83.5z" />
    </font>
</defs>
</svg>
