<?xml version="1.0" encoding="utf-8"?>
<!-- Generator: Adobe Illustrator 15.1.0, SVG Export Plug-In . SVG Version: 6.00 Build 0)  -->
<!DOCTYPE svg PUBLIC "-//W3C//DTD SVG 1.1//EN" "http://www.w3.org/Graphics/SVG/1.1/DTD/svg11.dtd">
<svg version="1.1" id="Layer_1" xmlns="http://www.w3.org/2000/svg" xmlns:xlink="http://www.w3.org/1999/xlink" x="0px" y="0px"
	 width="120px" height="20px" viewBox="0 0 120 20" enable-background="new 0 0 120 20" xml:space="preserve">
<g>
	<path d="M42.38,2v0.95h-7.443v6.966h7.443v0.949h-7.443v6.967h7.443v0.95h-8.393V2H42.38z"/>
	<path d="M50.832,2l6.09,16.782h-0.997l-2.683-7.386h-5.806l-2.73,7.386h-1.009L49.859,2H50.832z M52.898,10.461l-2.552-7.038
		l-2.564,7.038H52.898L52.898,10.461z"/>
	<path d="M62.371,12.966h-3.134v5.816h-0.95V2h4.404c1.281,0.174,2.371,0.708,3.265,1.602c1.067,1.077,1.603,2.367,1.603,3.869
		c0,1.519-0.531,2.813-1.603,3.88c-0.744,0.742-1.595,1.229-2.554,1.459l3.871,5.973h-1.164L62.371,12.966z M59.237,2.961v9.043
		h2.849c1.242,0,2.307-0.441,3.193-1.324c0.887-0.881,1.33-1.952,1.33-3.208c0-1.249-0.443-2.313-1.33-3.191
		c-0.887-0.878-1.951-1.318-3.193-1.318L59.237,2.961L59.237,2.961z"/>
	<path d="M70.74,2v16.782h-0.949V2H70.74z"/>
	<path d="M80.866,2v0.95h-6.397v6.966h6.397v0.949h-6.397v7.917h-0.951V2H80.866z"/>
	<path d="M83.883,2v16.782h-0.949V2H83.883z"/>
	<path d="M95.053,2v0.95h-7.441v6.966h7.441v0.949h-7.441v6.967h7.441v0.95H86.66V2H95.053z"/>
	<path d="M100.82,2c2.764,0.016,4.904,0.787,6.425,2.315c1.677,1.685,2.517,3.71,2.517,6.075c0,2.379-0.84,4.412-2.517,6.088
		c-1.521,1.52-3.661,2.287-6.425,2.304h-3.107V2H100.82z M98.662,2.985v14.826h2.146c2.414,0,4.316-0.672,5.711-2.021
		c1.487-1.484,2.229-3.287,2.229-5.4c0-2.104-0.741-3.904-2.229-5.398c-1.395-1.337-3.297-2.007-5.711-2.007L98.662,2.985
		L98.662,2.985z"/>
</g>
<polygon fill="#8C8A8B" points="26.325,2 25.328,2 21.37,10.471 21.894,11.593 "/>
<polygon fill="#8C8A8B" points="18.287,17.073 11.236,2 10.239,2 17.991,18.782 18.573,18.782 21.367,12.73 20.844,11.6 "/>
<polygon points="17.406,2 16.409,2 20.844,11.6 21.37,10.471 "/>
<polygon points="31.497,2 24.458,17.072 21.894,11.593 21.367,12.73 24.161,18.782 24.743,18.782 32.495,2 "/>
</svg>
